<?xml version="1.0" standalone="no"?>
<!DOCTYPE svg PUBLIC "-//W3C//DTD SVG 1.1//EN" "http://www.w3.org/Graphics/SVG/1.1/DTD/svg11.dtd" >
<svg xmlns="http://www.w3.org/2000/svg" xmlns:xlink="http://www.w3.org/1999/xlink" version="1.1">
<metadata></metadata>
<defs>
<font id="steadyregular" horiz-adv-x="336" >
<font-face units-per-em="1000" ascent="800" descent="-200" />
<missing-glyph horiz-adv-x="213" />
<glyph unicode="br" horiz-adv-x="655" d="M704 216q4 -7 -1 -15q-12 -22 -29 -48.5t-45.5 -64.5t-62 -63t-61.5 -25q-50 0 -50 72q0 55 22.5 139t51.5 154q-9 -4 -30 -4q-11 0 -22 3q-61 -94 -139 -119l-7 -23q-38 -110 -93 -166t-110 -56q-41 0 -68 24t-36.5 63t-8.5 83t12 88q20 77 44.5 150.5t42.5 118.5 t54 131q15 35 55 28q33 -6 42 -29q4 -11 -1 -21q-61 -123 -129 -345t-8 -222q16 0 41.5 39.5t52.5 106.5q7 18 11 32q-30 13 -46 40.5t-16 59.5q0 45 31.5 84t80.5 39q45 0 64 -49.5t3 -132.5q46 26 92 98v1q-29 33 -29 81q0 53 31 98.5t60 45.5q14 0 23.5 -15.5t9.5 -38.5 q0 -31 -8 -59.5t-31 -85.5q28 3 78 30q27 16 57 -0.5t20 -41.5q0 -1 -9 -23t-17.5 -45t-20 -55t-19 -59t-12.5 -51.5t-1.5 -39t14.5 -14.5q29 0 94 104q4 7 11.5 6t11.5 -8zM242 284q23 101 -4 115q-13 7 -23 -4.5t-10 -31.5q0 -55 37 -79z" />
<glyph unicode="or" horiz-adv-x="636" d="M685 216q4 -7 -1 -15q-12 -22 -29 -48.5t-45.5 -64.5t-62 -63t-61.5 -25q-50 0 -50 72q0 55 22.5 139t51.5 154q-9 -4 -30 -4q-11 0 -22 3q-61 -93 -136 -118v-1q-5 -18 -7 -23q-37 -110 -92.5 -166t-111.5 -56q-54 0 -82.5 36t-28.5 105q0 96 42 190.5t90 116.5 q27 11 48 -25q35 47 86 47q45 0 64.5 -49.5t2.5 -131.5q46 26 90 97l-1 1q-29 33 -29 81q0 53 31 98.5t60 45.5q14 0 23.5 -15.5t9.5 -38.5q0 -31 -8 -59.5t-31 -85.5q28 3 78 30q27 16 57 -0.5t20 -41.5q0 -1 -9 -23t-17.5 -45t-20 -55t-19 -59t-12.5 -51.5t-1.5 -39 t14.5 -14.5q29 0 94 104q4 7 11.5 6t11.5 -8zM215 225q2 4 7 19q-58 23 -67 87q-15 -29 -31 -70q-24 -60 -30 -117.5t13 -69.5q21 -10 51.5 34t56.5 117zM231 282q9 45 6.5 78t-14.5 39q-14 7 -24 -4.5t-10 -31.5q0 -59 42 -81z" />
<glyph unicode="vr" horiz-adv-x="636" d="M685 216q4 -7 -1 -15q-12 -22 -29 -48.5t-45.5 -64.5t-62 -63t-61.5 -25q-50 0 -50 72q0 55 22.5 139t51.5 154q-9 -4 -30 -4q-11 0 -22 3l-4 3q-64 -100 -144 -123q-41 -102 -98.5 -173t-113.5 -71q-44 0 -71 31.5t-27 94.5q0 105 66 297q9 26 39.5 28.5t54 -14 t16.5 -36.5q-43 -124 -61.5 -217.5t2.5 -99.5q21 0 52.5 48.5t63.5 123.5q-7 17 -7 39q0 55 26 115t71 60q15 0 24 -10t9 -27q0 -55 -29 -144q49 29 92 101q-26 33 -26 78q0 53 31 98.5t60 45.5q14 0 23.5 -15.5t9.5 -38.5q0 -31 -8 -59.5t-31 -85.5q28 3 78 30 q27 16 57 -0.5t20 -41.5q0 -1 -9 -23t-17.5 -45t-20 -55t-19 -59t-12.5 -51.5t-1.5 -39t14.5 -14.5q29 0 94 104q4 7 11.5 6t11.5 -8z" />
<glyph unicode="wr" horiz-adv-x="833" d="M882 216q4 -7 -1 -15q-12 -22 -29 -48.5t-45.5 -64.5t-62 -63t-61.5 -25q-50 0 -50 72q0 55 22.5 139t51.5 154q-9 -4 -30 -4q-11 0 -22 3l-4 3q-64 -101 -145 -124q-42 -101 -99 -172t-113 -71q-88 0 -85 127q-84 -127 -159 -127q-50 0 -50 72q0 71 36.5 185.5 t64.5 165.5q14 25 41 27t45 -13.5t10 -35.5q0 -1 -9 -23t-17.5 -45t-20 -55t-19 -59t-12.5 -51.5t-1.5 -39t14.5 -14.5q18 0 45.5 31t41.5 68q17 91 63 210q11 26 41 28.5t53 -14t16 -36.5q-88 -253 -88 -299q0 -18 9 -18q21 0 52.5 48.5t64.5 123.5q-8 16 -8 39 q0 32 9.5 70.5t33 71.5t54.5 33q15 0 24 -10t9 -27q0 -56 -29 -145q48 27 94 102q-27 34 -27 78q0 53 31 98.5t60 45.5q14 0 23.5 -15.5t9.5 -38.5q0 -31 -8 -59.5t-31 -85.5q28 3 78 30q27 16 57 -0.5t20 -41.5q0 -1 -9 -23t-17.5 -45t-20 -55t-19 -59t-12.5 -51.5 t-1.5 -39t14.5 -14.5q29 0 94 104q4 7 11.5 6t11.5 -8z" />
<glyph unicode="bs" horiz-adv-x="601" d="M650 216q4 -9 0 -15q-119 -203 -248 -201h-10q-49 0 -81 60q-6 11 14 32q14 15 18 7q21 -39 43 -39q24 0 36.5 30t12.5 60q0 36 -5 139q-43 -29 -92 -44l-7 -23q-38 -110 -93 -166t-110 -56q-41 0 -68 24t-36.5 63t-8.5 83t12 88q20 77 44.5 150.5t42.5 118.5t54 131 q15 35 55 28q33 -6 42 -29q4 -11 -1 -21q-61 -123 -129 -345t-8 -222q16 0 41.5 39.5t52.5 106.5q7 18 11 32q-30 13 -46 40.5t-16 59.5q0 45 31.5 84t80.5 39q45 0 64.5 -51t1.5 -135q37 13 81 42q-2 45 2 72q11 79 63 128t91 22q51 -37 -65 -186q2 -12 10 -51.5t12 -71.5 t4 -68q0 -34 -7 -56q54 44 88 104q4 7 11.5 6t11.5 -9zM242 284q23 101 -4 115q-13 7 -23 -4.5t-10 -31.5q0 -55 37 -79z" />
<glyph unicode="os" horiz-adv-x="587" d="M635 216q6 -8 0 -15q-119 -203 -248 -201h1h-11q-48 0 -80 60q-6 11 14 32q14 15 18 7q18 -39 42 -39t37 30.5t13 59.5q0 38 -5 140q-49 -31 -94 -45q-5 -18 -7 -23q-37 -110 -92.5 -166t-111.5 -56q-54 0 -82.5 36t-28.5 105q0 96 42 190.5t90 116.5q27 11 48 -25 q35 47 86 47q46 0 65 -51t1 -135q42 14 82 43q-2 39 3 71q10 79 62.5 128.5t90.5 21.5q52 -38 -65 -186q2 -13 8 -41t9.5 -46.5t6.5 -47t3 -56.5t-7 -56q58 48 87 104q5 7 12.5 6t10.5 -9zM215 225q2 4 7 19q-58 23 -67 87q-15 -29 -31 -70q-24 -60 -30 -117.5t13 -69.5 q21 -10 51.5 34t56.5 117zM231 282q9 45 6.5 78t-14.5 39q-14 7 -24 -4.5t-10 -31.5q0 -59 42 -81z" />
<glyph unicode="vs" horiz-adv-x="587" d="M635 216q6 -8 0 -15q-119 -203 -248 -201h1h-11q-48 0 -80 60q-6 11 14 32q14 15 18 7q18 -39 42 -39t37 30.5t13 59.5q0 58 -6 142q-56 -44 -110 -59q-40 -98 -96 -165.5t-111 -67.5q-44 0 -71 31.5t-27 94.5q0 105 66 297q9 26 39.5 28.5t54 -14t16.5 -36.5 q-43 -124 -61.5 -217.5t2.5 -99.5q21 0 52.5 48.5t63.5 123.5q-7 17 -7 39q0 55 26 115t71 60q15 0 24 -10t9 -27q0 -63 -33 -153q50 24 91 57q0 42 3 61q10 79 62.5 128.5t90.5 21.5q52 -38 -65 -186q2 -13 8 -41t9.5 -46.5t6.5 -47t3 -56.5t-7 -56q58 48 87 104 q5 7 12.5 6t10.5 -9z" />
<glyph unicode="ws" horiz-adv-x="781" d="M829 216q6 -8 0 -15q-119 -203 -248 -201h1h-11q-48 0 -80 60q-6 11 14 32q14 15 18 7q18 -39 42 -39t37 30.5t13 59.5q0 58 -6 142q-57 -46 -108 -59q-40 -98 -96 -165.5t-111 -67.5q-88 0 -85 127q-84 -127 -159 -127q-50 0 -50 72q0 71 36.5 185.5t64.5 165.5 q14 25 41 27t45 -13.5t10 -35.5q0 -1 -9 -23t-17.5 -45t-20 -55t-19 -59t-12.5 -51.5t-1.5 -39t14.5 -14.5q18 0 45.5 31t41.5 68q19 99 63 210q11 26 41 28.5t53 -14t16 -36.5q-88 -253 -88 -299q0 -18 9 -18q21 0 52.5 48.5t63.5 123.5q-7 17 -7 39q0 32 9.5 70.5t33 71.5 t54.5 33q15 0 24 -10t9 -27q0 -63 -33 -153q38 17 88 53l1 -4q-2 37 3 69q10 79 62.5 128.5t90.5 21.5q52 -38 -65 -186q2 -13 8 -41t9.5 -46.5t6.5 -47t3 -56.5t-7 -56q58 48 87 104q5 7 12.5 6t10.5 -9z" />
<glyph unicode="bx" horiz-adv-x="711" d="M758 216q5 -9 1 -14q-1 -1 -16 -27.5t-25.5 -43t-30 -44t-35 -44.5t-34.5 -30t-34 -13q-57 0 -87 89q-72 -86 -127 -86q-20 0 -29.5 10t-8.5 25q1 19 14 35t31 16q45 0 105 57q-15 71 -28 181q-52 -63 -116 -81v-1l-7 -23q-38 -110 -93 -166t-110 -56q-41 0 -68 24 t-36.5 63t-8.5 83t12 88q20 77 44.5 150.5t42.5 118.5t54 131q15 35 55 28q33 -6 42 -29q4 -11 -1 -21q-61 -123 -129 -345t-8 -222q16 0 41.5 39.5t52.5 106.5q7 18 11 32q-30 13 -46 40.5t-16 59.5q0 45 31.5 84t80.5 39q45 0 64 -50t2 -132q54 25 101 101q-2 24 -2 34 q-1 29 25 42.5t53 5.5t27 -30q3 -98 11 -163q14 32 19.5 44.5t19 41.5t22.5 42.5t21.5 31t24.5 25t24 7.5q20 0 33.5 -19t12.5 -40t-16 -27q-46 -16 -149 -179q19 -87 51 -98q8 0 13 -1t13 5.5t13.5 10.5t14 14t13.5 16.5t12.5 18t11.5 17.5t10 16.5t8 13.5q4 7 11.5 6 t11.5 -8zM242 284q23 101 -4 115q-13 7 -23 -4.5t-10 -31.5q0 -55 37 -79z" />
<glyph unicode="ox" horiz-adv-x="697" d="M744 216q5 -9 1 -14q-1 -1 -16 -27.5t-25.5 -43t-30 -44t-35 -44.5t-34.5 -30t-34 -13q-57 0 -87 89q-72 -86 -127 -86q-20 0 -29.5 10t-8.5 25q1 19 14 35t31 16q45 0 105 57q-15 71 -28 181q-54 -65 -118 -81v-1q-5 -18 -7 -23q-37 -110 -92.5 -166t-111.5 -56 q-54 0 -82.5 36t-28.5 105q0 96 42 190.5t90 116.5q27 11 48 -25q35 47 86 47q45 0 64.5 -50t2.5 -133q53 23 102 102q-2 24 -2 34q-1 29 25 42.5t53 5.5t27 -30q3 -98 11 -163q14 32 19.5 44.5t19 41.5t22.5 42.5t21.5 31t24.5 25t24 7.5q20 0 33.5 -19t12.5 -40t-16 -27 q-46 -16 -149 -179q19 -87 51 -98q8 0 13 -1t13 5.5t13.5 10.5t14 14t13.5 16.5t12.5 18t11.5 17.5t10 16.5t8 13.5q4 7 11.5 6t11.5 -8zM215 225q2 4 7 19q-58 23 -67 87q-15 -29 -31 -70q-24 -60 -30 -117.5t13 -69.5q21 -10 51.5 34t56.5 117zM231 282q9 45 6.5 78 t-14.5 39q-14 7 -24 -4.5t-10 -31.5q0 -59 42 -81z" />
<glyph unicode="vx" horiz-adv-x="687" d="M734 216q5 -9 1 -14q-1 -1 -16 -27.5t-25.5 -43t-30 -44t-35 -44.5t-34.5 -30t-34 -13q-57 0 -87 89q-72 -86 -127 -86q-20 0 -29.5 10t-8.5 25q1 19 14 35t31 16q45 0 105 57q-15 71 -27 171q-56 -62 -122 -74l-4 -10q-40 -98 -96 -165.5t-111 -67.5q-44 0 -71 31.5 t-27 94.5q0 105 66 297q9 26 39.5 28.5t54 -14t16.5 -36.5q-43 -124 -61.5 -217.5t2.5 -99.5q21 0 52.5 48.5t63.5 123.5q-7 17 -7 39q0 55 26 115t71 60q15 0 24 -10t9 -27q0 -61 -32 -149q53 18 102 91q-2 25 -3 48q-1 29 25 42.5t53 5.5t27 -30q3 -98 11 -163 q14 32 19.5 44.5t19 41.5t22.5 42.5t21.5 31t24.5 25t24 7.5q20 0 33.5 -19t12.5 -40t-16 -27q-46 -16 -149 -179q19 -87 51 -98q8 0 13 -1t13 5.5t13.5 10.5t14 14t13.5 16.5t12.5 18t11.5 17.5t10 16.5t8 13.5q4 7 11.5 6t11.5 -8z" />
<glyph unicode="wx" horiz-adv-x="883" d="M929 216q6 -8 2 -14q-1 -1 -16 -27.5t-25.5 -43t-30 -44t-35 -44.5t-34.5 -30t-34 -13q-57 0 -87 89q-72 -86 -127 -86q-39 0 -39 35q1 19 14.5 35t31.5 16q45 0 104 57q-18 96 -26 171q-56 -62 -121 -74q-42 -101 -99 -172t-113 -71q-88 0 -85 127q-84 -127 -159 -127 q-50 0 -50 72q0 71 36.5 185.5t64.5 165.5q14 25 41 27t45 -13.5t10 -35.5q0 -1 -9 -23t-17.5 -45t-20 -55t-19 -59t-12.5 -51.5t-1.5 -39t14.5 -14.5q18 0 45.5 31t41.5 68q17 91 63 210q11 26 41 28.5t53 -14t16 -36.5q-88 -253 -88 -299q0 -18 9 -18q21 0 52.5 48.5 t64.5 123.5q-8 16 -8 39q0 32 9.5 70.5t33 71.5t54.5 33q15 0 24 -10t9 -27q0 -58 -31 -149q53 20 101 91q-3 25 -3 48q-1 29 25 42.5t53 5.5t27 -30q0 -72 11 -163q21 49 30 68.5t28.5 56t37 52t35.5 15.5q20 0 33 -19t12 -40t-16 -27q-45 -16 -148 -179q19 -87 51 -98 q8 0 13 -1t13 5.5t13.5 10.5t14 14t13.5 16.5t12.5 18t11.5 17.5t10 16.5t8 13.5q4 7 11.5 6t10.5 -8z" />
<glyph unicode="ft" horiz-adv-x="462" d="M418 658q11 27 37.5 29.5t45.5 -14.5t13 -37q-3 -10 -16.5 -47.5t-34.5 -98t-39 -119.5q9 2 18.5 3.5t16.5 2.5t9 1q16 2 5 -34q-11 -41 -32 -50q-10 -4 -43 -6q-2 -7 -6 -19q-7 -24 -11 -39t-8.5 -35t-5.5 -32.5t-0.5 -25t5 -18t13.5 -5.5q38 0 103 104q4 7 11.5 6 t11.5 -8t-1 -15q-114 -201 -207 -201q-29 0 -44 19t-15 53q0 22 7 59q-77 -99 -156 -124q21 -80 14 -160q-4 -49 -30 -81.5t-66 -32.5t-62 16t-27 47.5t-0.5 67.5t17.5 87q46 180 139 488q39 131 83 186.5t110 55.5q36 0 54.5 -26.5t18.5 -68.5q0 -127 -227 -373l-42 -144 q53 1 109 48.5t84 92.5q3 9 7.5 25t8.5 29t8 24q-7 0 -16 0.5t-15 1t-9 0.5q-18 1 -6 26q14 27 34 32q8 3 33 6q72 231 103 304zM287 601q-45 0 -139 -296q154 180 154 269q0 27 -15 27zM27 -217q22 0 29 66t-2 136q-5 -21 -14 -51t-10 -35q-8 -28 -12 -46.5t-5.5 -35.5 t2 -25.5t12.5 -8.5z" />
<glyph unicode="fr" horiz-adv-x="599" d="M648 216q4 -7 -1 -15q-12 -22 -29 -48.5t-45.5 -64.5t-62 -63t-61.5 -25q-50 0 -50 72q0 55 22.5 139t51.5 154q-9 -4 -30 -4q-11 0 -22 3q-6 -12 -18 -39q-12 -26 -19 -40.5t-20.5 -42.5t-24 -44t-26 -41t-29.5 -39.5t-32 -32t-36.5 -26t-39.5 -15.5t-44 -6t-48 8 q33 -99 25 -198q-4 -49 -30 -81.5t-66 -32.5t-62 16t-27 47.5t-0.5 67.5t17.5 87q46 180 139 488q39 131 83 186.5t110 55.5q36 0 54.5 -26.5t18.5 -68.5q0 -127 -227 -373q-3 -12 -10 -34.5t-9 -30.5q35 -56 98.5 -35.5t107.5 90.5q48 79 79 183q-29 33 -29 81 q0 53 31 98.5t60 45.5q14 0 23.5 -15.5t9.5 -38.5q0 -31 -8 -59.5t-31 -85.5q28 3 78 30q27 16 57 -0.5t20 -41.5q0 -1 -9 -23t-17.5 -45t-20 -55t-19 -59t-12.5 -51.5t-1.5 -39t14.5 -14.5q29 0 94 104q4 7 11.5 6t11.5 -8zM287 602q-45 0 -139 -296q154 180 154 269 q0 27 -15 27zM27 -216q22 0 29 66t-2 136q-12 -42 -24 -86q-8 -28 -12 -46.5t-6 -36t2 -25.5t13 -8z" />
<glyph unicode="tt" horiz-adv-x="432" d="M388 658q11 27 37.5 29.5t45.5 -14.5t13 -37q-2 -9 -12 -36t-26 -72.5t-30 -88.5q28 3 36 3q16 2 5 -35q-13 -40 -32 -49q-7 -3 -37 -5q-1 -3 -10.5 -35t-14.5 -49q-11 -38 -16 -58t-9.5 -46.5t0.5 -38.5t18 -12q37 0 102 104q4 7 11.5 6t11.5 -8t-1 -15 q-13 -25 -28.5 -49t-45 -63.5t-65 -64t-68.5 -24.5q-29 0 -44 19t-15 53q0 16 6 54q-87 -126 -161 -126q-59 0 -59 72q0 53 53 226q5 17 17 55q-10 0 -19 0.5t-15 0.5h-7q-18 1 -6 26q14 27 34 32q1 0 33 4q64 194 83 242q12 27 38.5 29.5t45.5 -14.5t13 -37 q-3 -10 -13.5 -39t-28 -78t-32.5 -95q18 1 57 3.5t57 4.5q57 177 78 226zM267 298q3 10 9 28.5t8 24.5h-111q-22 -71 -25 -82q-7 -24 -11 -39t-8.5 -35t-5.5 -32.5t-0.5 -25t5 -18t13.5 -5.5q39 0 101 102q3 10 25 82z" />
<glyph unicode="vt" horiz-adv-x="564" d="M520 658q11 27 37.5 29.5t45.5 -14.5t13 -37q-3 -9 -12.5 -37t-26 -73.5t-30.5 -89.5q11 2 25 4t17 2q16 2 5 -34q-11 -41 -32 -50q-10 -4 -42 -6q-9 -27 -25 -83q-11 -38 -16 -58t-9.5 -46.5t0 -38.5t17.5 -12q38 0 103 104q4 7 11.5 6t11.5 -8t-1 -15 q-13 -25 -28.5 -49t-45 -63.5t-65 -64t-68.5 -24.5q-29 0 -44 19t-15 53q0 47 28 144q-45 -20 -82 -13q-41 -88 -92.5 -145.5t-101.5 -57.5q-44 0 -71 31.5t-27 94.5q0 105 66 297q9 26 39.5 28.5t54 -14t16.5 -36.5q-43 -124 -61.5 -217.5t2.5 -99.5q21 0 52 47.5t63 122.5 q-6 18 -6 41q0 55 26 115t71 60q15 0 24 -10t9 -27q0 -79 -48 -193q37 -4 81 25q2 6 5.5 17t4.5 16q1 2 17 54q-7 0 -16.5 0.5t-15.5 1t-9 0.5q-18 1 -6 26q14 27 34 32q7 2 34 6q66 202 83 240z" />
<glyph unicode="wt" horiz-adv-x="761" d="M520 280l-14 -37q31 -11 77 13l13 42l17 54q-7 0 -16.5 0.5t-15.5 1t-9 0.5q-18 1 -6 26q14 27 34 32q8 3 34 6q66 202 83 240q11 27 37.5 29.5t45.5 -14.5t13 -37q-3 -9 -12.5 -37t-26 -73.5t-30.5 -89.5l42 6q16 2 5 -34q-11 -41 -32 -50q-10 -4 -43 -6l-24 -83 q-7 -23 -11.5 -38.5t-9 -35.5t-5.5 -33t-0.5 -24.5t5 -17.5t13.5 -6q38 0 103 104q4 7 11.5 6t11.5 -8t-1 -15q-13 -24 -29 -48.5t-45 -64t-64.5 -64t-68.5 -24.5q-29 0 -44 19t-15 53q0 47 27 139q-47 -17 -80 -5q-41 -89 -93 -147.5t-103 -58.5q-88 0 -85 127 q-22 -59 -59.5 -93t-80.5 -34q-29 0 -47.5 20.5t-18.5 62.5q0 85 33 183.5t65 156.5q14 25 41 27t45 -13.5t10 -35.5q0 -1 -6.5 -17t-13 -33t-16 -43t-17 -50t-16 -50t-13 -48t-6 -39.5t2 -27.5t12.5 -10q32 0 63.5 67t60.5 164t34 109q11 26 41 28.5t53 -14t16 -36.5 q-88 -253 -88 -299q0 -18 9 -18q21 0 52.5 48.5t64.5 123.5q-8 16 -8 39q0 32 9.5 70.5t33 71.5t54.5 33q15 0 24 -10t9 -27q0 -62 -32 -153zM505 240l1 3z" />
<glyph unicode="Fr" horiz-adv-x="595" d="M251 345q26 4 27 -25q1 -34 -24 -56q-15 -12 -30 -12q-38 0 -64 1q-45 -151 -58 -231q-4 -26 -38 -21q-37 5 -55 37q-7 14 -7 29q0 41 46 196q-18 2 -25 4q-29 5 -16 33q12 26 40 34q6 2 12 2q4 -1 11 -1q37 113 69 192h-45q-37 0 -65 -11.5t-28 -37.5q0 -15 -16 -11 q-17 5 -17 22q0 64 37 95t103 40q30 4 57.5 4.5t62.5 -1t53 -1.5q92 0 92 36q0 12 19 15t22 -13q2 -11 -1 -33t-13 -49t-35 -46.5t-61 -19.5q-12 0 -84 5q23 -28 14 -50q-18 -46 -48 -133q33 2 65 7zM644 216q4 -7 -1 -15q-12 -22 -29 -48.5t-45.5 -64.5t-62 -63t-61.5 -25 q-50 0 -50 72q0 82 50 228q-15 -4 -40 3q-30 -97 -69 -174t-76 -77q-14 0 -23 13.5t-8 25.5t4 14q17 0 67 83t66 139q-29 33 -29 81q0 52 30.5 88t60.5 36q13 0 20 -7.5t7.5 -23t-1 -30.5t-8 -39.5t-11.5 -39t-13 -39.5q11 1 44.5 41.5t48.5 48.5q27 16 57 -0.5t20 -41.5 q0 -1 -9 -23t-17.5 -45t-20 -55t-19 -59t-12.5 -51.5t-1.5 -39t14.5 -14.5q29 0 94 104q4 7 11.5 6t11.5 -8z" />
<glyph unicode="of" horiz-adv-x="581" d="M607 219q4 7 11.5 6t10.5 -9q6 -8 0 -15q-96 -163 -192 -193q19 -81 14 -160q-4 -48 -30 -81t-66 -33t-62.5 16t-27 47.5t0 67t17.5 87.5q29 117 86 311q-21 -10 -47 -18q-5 -18 -7 -23q-37 -110 -92.5 -166t-111.5 -56q-54 0 -82.5 36t-28.5 105q0 96 42 190.5t90 116.5 q27 11 48 -25q35 47 86 47q46 0 65 -51t1 -135q26 9 50 23q12 43 40 133q39 131 83 186.5t110 55.5q32 0 52 -25.5t20 -59.5q0 -61 -54.5 -130t-132.5 -127q-31 -96 -81 -270q38 1 80 31t68 61.5t40 56.5zM215 225q2 4 7 19q-58 23 -67 87q-15 -29 -31 -70 q-24 -60 -30 -117.5t13 -69.5q21 -10 51.5 34t56.5 117zM231 282q9 45 6.5 78t-14.5 39q-14 7 -24 -4.5t-10 -31.5q0 -59 42 -81zM629 602q-38 0 -112 -211q55 46 91 96.5t36 87.5q0 27 -15 27zM369 -216q22 0 29 66t-2 136q-12 -42 -24 -86q-8 -27 -12.5 -46t-6 -36 t2.5 -25.5t13 -8.5z" />
<glyph unicode=" "  horiz-adv-x="213" />
<glyph unicode="&#x09;" horiz-adv-x="213" />
<glyph unicode="&#xa0;" horiz-adv-x="213" />
<glyph unicode="!" horiz-adv-x="305" d="M195 65q-6 -27 -29 -46t-49 -19t-40 19t-7 46t29.5 46t48.5 19t40 -19t7 -46zM201 186q-7 -7 -24 -3t-32 20.5t-9 33.5q74 212 124 397q12 26 38 24t51 -25t18 -43q-78 -238 -166 -404z" />
<glyph unicode="&#x22;" horiz-adv-x="314" d="M183 668q48 0 34 -66q-12 -54 -46.5 -88.5t-68.5 -50.5q-12 -7 -18 6q-4 12 5 16q49 37 49 52q-29 0 -26 41q4 46 35 74q17 16 36 16zM303 668q48 0 34 -66q-12 -54 -46.5 -88.5t-68.5 -50.5q-12 -7 -18 6q-4 12 5 16q49 37 49 52q-29 0 -26 41q4 46 35 74q17 16 36 16z " />
<glyph unicode="#" horiz-adv-x="550" d="M508 438q11 3 12 -12q0 -27 -24 -57q-15 -19 -29 -20h-69q-7 -20 -21 -62q68 2 77 4q11 3 12 -12q0 -27 -24 -57q-15 -20 -30 -20q-1 0 -22.5 -0.5t-39.5 -0.5q-24 -72 -25 -87q-2 -19 -27 3q-31 29 -35 58q-1 7 1 12q0 1 1.5 6t2.5 8q-43 0 -65 -1q-23 -70 -25 -86 q-2 -19 -27 3q-31 28 -35 58q-1 7 1 12q0 1 1.5 5.5l2.5 7.5h-35.5t-28.5 -0.5t-13 -0.5q-17 -1 -12 30q6 37 30 51q6 3 13 4q6 0 16.5 0.5t27.5 1t30 0.5q6 19 20 61q-64 0 -71 -1q-18 -1 -12 32q7 37 31 50q6 3 12 3q26 2 68 2q5 17 12.5 40.5t11 35.5t4.5 16q5 16 30 -3 q32 -23 33 -51q0 -5 -1 -9q-1 -3 -9 -29q11 0 33 0.5t32 0.5q28 85 29 91q5 16 30 -3q32 -23 32 -51q0 -5 -1 -9q-1 -8 -8 -28q73 2 83 4zM296 286q6 20 20 62h-65q-7 -20 -21 -62h66z" />
<glyph unicode="$" horiz-adv-x="391" d="M311 346q-16 -11 -34.5 -0.5t-27 28.5t-0.5 26q32 35 27 74q-2 20 -17 29q-25 -77 -41 -148q9 -10 45.5 -46t54 -61.5t21.5 -52.5q9 -65 -36.5 -111t-130.5 -51q-1 -6 -1 -17q-3 -40 -36 -23q-22 12 -30 29q-2 4 -1 6q2 3 4 11q-41 10 -70.5 35.5t-35.5 59.5 q-8 54 26.5 92t70.5 38q15 0 35 -27q19 -24 5 -29q-12 -5 -23.5 -28.5t-8.5 -45.5q4 -28 21 -43q29 84 47 160q-10 10 -43.5 40t-49.5 53t-20 53q-8 65 36 107.5t108 50.5q0 13 -2 43t27.5 36t46.5 -15q14 -16 6 -40l-9 -27q41 -9 66 -34.5t25 -61.5q0 -74 -55 -110z M219 165q-4 32 -25 64q-10 -66 -18 -144q22 9 34 33t9 47zM178 427q2 -20 20 -46q7 57 9 119q-34 -24 -29 -73z" />
<glyph unicode="%" horiz-adv-x="612" d="M150 271q-53 0 -80.5 39t-14.5 94t59.5 93.5t99.5 38.5t80.5 -38.5t14.5 -93.5q-14 -55 -60.5 -94t-98.5 -39zM139 413q-13 -42 -10 -74t20 -36q18 -4 40.5 23t35.5 69q13 41 10 73t-21 36q-17 4 -39.5 -23t-35.5 -68zM482 304q53 0 80.5 -38.5t14.5 -93.5t-59.5 -94 t-99.5 -39q-52 0 -80 39t-15 94q14 55 60.5 93.5t98.5 38.5zM493 163q13 41 10 73t-20 36q-18 4 -40 -23t-36 -68q-13 -42 -10 -74t21 -36q17 -4 39.5 23t35.5 69zM468 533q15 25 36 21.5t36.5 -25.5t7.5 -38q-8 -14 -106 -117.5t-209 -217t-120 -123.5q-21 -23 -40 -5 q-17 16 -5 33l4 4q62 54 219 240t177 228z" />
<glyph unicode="&#x26;" horiz-adv-x="453" d="M355 106q20 -24 30 -34q7 -7 -5 -29t-32.5 -36t-32.5 -2q-15 13 -36 39q-64 -39 -123 -42q-59 -2 -109.5 28.5t-54.5 81.5q-4 61 32.5 111.5t87.5 84.5q-33 71 -36 115q-6 82 51 133t128 51q58 0 95 -29t37 -77q0 -33 -11 -61.5t-32 -51t-35.5 -35.5t-39 -28.5 t-25.5 -16.5t-4 -3q28 -67 60 -119q42 69 42 96q0 19 37.5 5t45.5 -34q1 -3 1 -6q0 -65 -71 -141zM255 552q-23 0 -43.5 -25.5t-17.5 -69.5q3 -34 18 -81q32 24 58.5 62.5t23.5 73.5q-1 18 -11.5 29.5t-27.5 10.5zM152 57q35 0 82 45q-43 60 -83 129q-47 -54 -44 -112 q2 -28 16 -45t29 -17z" />
<glyph unicode="'" horiz-adv-x="172" d="M190 668q48 0 34 -66q-12 -54 -46.5 -88.5t-68.5 -50.5q-12 -7 -18 6q-4 12 5 16q49 37 49 52q-29 0 -26 41q4 46 35 74q17 16 36 16z" />
<glyph unicode="(" horiz-adv-x="213" d="M288 665q-94 -98 -154.5 -309t-28.5 -346q9 -36 -8.5 -42t-39.5 24q-47 67 -54 168t20.5 200t88 187t139.5 132q45 24 49 9q3 -8 -12 -23z" />
<glyph unicode=")" horiz-adv-x="380" d="M42 -5q94 97 154.5 308t28.5 346q-8 37 9.5 43t38.5 -25q47 -67 54.5 -168t-20 -199.5t-88 -187t-139.5 -131.5q-46 -25 -50 -9q-2 8 12 23z" />
<glyph unicode="*" horiz-adv-x="363" d="M285 421q10 -18 -20 -33q-28 -15 -37 -3q-1 1 -1 3q-5 21 -14 50q-23 -42 -28 -52q-10 -21 -34 -3q-21 17 -16 33q0 2 2 4q24 30 34 46q-34 -4 -51 -7q-14 -2 -16 15q-3 27 13 46q6 7 12 6q24 -3 48 -3q-9 18 -23 45q-8 16 20.5 32.5t38.5 3.5q1 -2 2 -5q7 -31 11 -44 q22 39 27 49q10 18 34 1q23 -17 17 -33l-4 -6q-6 -7 -31 -39q30 3 50 6q15 2 14 -24q-1 -33 -18 -44q-4 -3 -9 -2q-23 5 -46 5q14 -30 25 -47z" />
<glyph unicode="+" horiz-adv-x="382" d="M314 272q23 -3 17 -35q-6 -33 -31 -44q-6 -2 -11 -2q-32 -2 -75 0q-14 -57 -24 -90q-9 -18 -25 -17t-31.5 17t-13.5 33l9 60q-50 4 -78 6q-19 2 -21 20t11 35.5t29 18.5q25 2 75 4q8 40 24 94q7 22 37 10t36 -37l1 -13q-3 -26 -9 -55q34 -1 80 -5z" />
<glyph unicode="," horiz-adv-x="226" d="M85 0q-26 1 -39.5 19.5t-7.5 45.5q7 27 30 46t49 19t39.5 -19t7.5 -46q-20 -91 -115 -140q-13 -5 -18 7q-3 10 5 16q49 37 49 52z" />
<glyph unicode="-" horiz-adv-x="382" d="M289 192q-112 -6 -238 9q-27 3 -20 33q7 29 30 39q4 2 9 2q138 9 244 -3q22 -2 17 -33q-6 -33 -30 -44q-6 -3 -12 -3z" />
<glyph unicode="." horiz-adv-x="221" d="M158 65q-6 -27 -29 -46t-49 -19t-40 19t-7 46t29.5 46t48.5 19t40 -19t7 -46z" />
<glyph unicode="/" horiz-adv-x="320" d="M282 634q8 18 23 23.5t28.5 -1t25.5 -18t16 -26t-1 -25.5q-249 -473 -292 -565q-11 -22 -25.5 -24t-22 11.5t-0.5 29.5q5 12 118.5 285.5t129.5 309.5z" />
<glyph unicode="0" horiz-adv-x="369" d="M235 566q77 0 106.5 -81t5.5 -202q-24 -122 -85 -202.5t-138 -80.5t-106.5 80.5t-6.5 202.5q24 121 85.5 202t138.5 81zM246 309q32 148 11 202q-8 21 -24 14q-28 -10 -63 -88.5t-58 -179.5q-32 -150 -11 -203q10 -19 25 -14q28 10 62.5 89t57.5 180z" />
<glyph unicode="1" horiz-adv-x="235" d="M154 562q5 14 34 15t53 -12.5t18 -36.5q-70 -234 -124 -499q-8 -36 -52 -28q-33 7 -44 26q-3 6 -1 12q8 20 49 177t67 268q-15 -56 -74 -142q-12 -18 -28 4q-18 23 -9 42q1 3 3 5q26 28 58 77t50 92z" />
<glyph unicode="2" horiz-adv-x="376" d="M303 170q37 0 37 -55q0 -47 -28 -81t-74 -34q-34 0 -59.5 14t-44.5 31t-30 20q-48 -35 -74 -35q-24 0 -41 17.5t-17 37.5q0 27 20.5 54t68.5 27q18 0 33 -5q72 71 130.5 166t58.5 165q0 54 -33 54q-41 0 -74 -62t-33 -136q0 -7 -11.5 -12t-29.5 -5t-32.5 13t-14.5 32 q0 73 55 142t142 69q48 0 88.5 -26.5t40.5 -83.5q0 -71 -67 -176.5t-152 -186.5q22 -17 46 -17q34 0 52 17t18 34q0 22 25 22z" />
<glyph unicode="3" horiz-adv-x="338" d="M215 286q25 -7 48 -35t23 -69q0 -70 -55 -126t-115 -56q-30 0 -53 11t-35.5 27t-18.5 28t-8 21q-5 20 10 30q17 10 20 -3q3 -12 6 -18.5t16 -15.5t33 -9q35 0 69.5 37.5t34.5 88.5q0 30 -13.5 48.5t-30.5 18.5v1q-9 -2 -27 -2q-26 0 -37.5 13.5t-3.5 29.5q5 10 36 10 q39 0 89.5 55.5t50.5 120.5q0 54 -33 54q-32 0 -59.5 -48.5t-27.5 -102.5q0 -6 -12 -11t-29 -5q-18 0 -32.5 13t-14.5 31q0 59 55 111.5t122 52.5q63 0 96 -26.5t33 -74.5q0 -58 -38.5 -114.5t-98.5 -85.5z" />
<glyph unicode="4" horiz-adv-x="389" d="M330 258q27 -3 42 -29q10 -20 -4 -21q-35 0 -53 -1q-13 -54 -39 -179q-8 -36 -52 -28q-33 7 -44 26q-3 6 -1 12q15 45 44 161q-98 -10 -165 -21q-14 -2 -38.5 26.5t-18.5 37.5q97 170 167 334q9 13 29 9.5t38.5 -20t13.5 -31.5q-14 -41 -65 -142t-80 -143q56 10 134 12 q46 197 61 300q2 15 30 16t52.5 -13t18.5 -37q-44 -148 -73 -269h3z" />
<glyph unicode="5" horiz-adv-x="320" d="M345 565q17 2 23 -22q7 -34 -18 -59q-22 -23 -61 -18q-47 7 -97 19q0 -1 -1 -2.5t-1 -2.5l-71 -187q35 41 85 41q40 0 67 -28t27 -82q0 -81 -60.5 -152.5t-120.5 -71.5q-30 0 -53 11t-35.5 27t-18.5 28t-8 21q-5 20 10 30t20 -3q3 -12 6 -18.5t16 -15.5t33 -9q36 0 75 51 t39 117q0 44 -29 44q-15 0 -49.5 -36t-50.5 -57q-5 -7 -25.5 2.5t-36 26t-8.5 28.5q18 30 111 261q-2 0 -7.5 1.5t-7.5 1.5q-15 1 -19 27q-5 28 13 31q3 1 6 0q21 -3 119 -5t128 1z" />
<glyph unicode="6" horiz-adv-x="346" d="M232 576q30 0 53.5 -10.5t35.5 -26.5t17.5 -28t7.5 -21q0 -22 -12 -30q-17 -10 -20 3q-9 43 -54 43v1q-34 0 -73.5 -61t-59.5 -124q42 47 92 47t78 -38.5t26 -96.5q-4 -85 -62 -159t-133 -74q-64 0 -100 48t-32 129q3 86 40 179.5t92 156t104 62.5zM174 307 q-26 -10 -51 -56t-34 -100q-6 -40 6.5 -69.5t38.5 -18.5q28 11 52 49.5t33 90.5q8 54 -5 84.5t-40 19.5z" />
<glyph unicode="7" horiz-adv-x="369" d="M409 502q0 -27 -20.5 -54t-68.5 -27q-14 0 -25 3q-71 -83 -134 -199.5t-63 -188.5q0 -12 -12.5 -21.5t-28.5 -9.5q-27 0 -42 12t-15 33q0 74 71 198.5t157 218.5q-31 23 -55 23q-34 0 -52 -17t-18 -34q0 -22 -25 -22q-37 0 -37 54q0 44 28.5 80t73.5 36q36 0 63 -16 t45.5 -32.5t31.5 -17.5q42 36 68 36q24 0 41 -17.5t17 -37.5z" />
<glyph unicode="8" horiz-adv-x="382" d="M379 480q6 -46 -29.5 -93.5t-84.5 -79.5q26 -32 40.5 -52t28.5 -50t16 -55q6 -66 -49.5 -106.5t-131.5 -40.5q-70 0 -115.5 33.5t-52.5 84.5q-4 29 5 55.5t21 43.5t38 36.5t39.5 27.5t42.5 24q-56 77 -63 128q-8 62 37.5 101t96.5 39q18 0 38 -11q10 2 18 2q40 0 70 -25 t35 -62zM177 49q30 0 46.5 30t13.5 65q-4 46 -55 116q-25 -27 -37 -41.5t-25.5 -45t-11.5 -59.5q3 -29 23.5 -47t45.5 -18zM226 356q71 73 63 129q-2 15 -13.5 17.5t-21.5 -2.5t-16 -11q-12 -12 -27 10q-35 -24 -29 -58q5 -34 44 -85z" />
<glyph unicode="9" horiz-adv-x="370" d="M127 0q-30 0 -53.5 10.5t-35.5 26.5t-17.5 28t-7.5 21q0 22 12 30q17 10 20 -3q9 -43 54 -43v-1q34 0 73.5 61t59.5 124q-42 -47 -92 -47t-78 38.5t-26 96.5q4 85 62 159t133 74q64 0 100 -48t32 -129q-3 -86 -40 -179.5t-92 -156t-104 -62.5zM185 269q26 10 51 56 t34 100q6 40 -6.5 69.5t-38.5 18.5q-28 -11 -52 -49.5t-33 -90.5q-8 -54 5 -84.5t40 -19.5z" />
<glyph unicode=":" horiz-adv-x="295" d="M215 103q-6 -27 -29 -46t-49 -19t-40 19t-7 46t30 46.5t48 19.5q26 0 40 -19.5t7 -46.5zM277 325q-6 -27 -29 -46t-49 -19t-40 19t-7 46t30 46.5t48 19.5q26 0 40 -19.5t7 -46.5z" />
<glyph unicode=";" horiz-adv-x="300" d="M142 38q-26 2 -39.5 20t-7.5 45q7 27 30 46.5t49 19.5q25 0 39 -19.5t8 -46.5q-12 -54 -46.5 -88.5t-68.5 -50.5q-12 -7 -18 6q-4 12 5 16q49 37 49 52zM283 325q-7 -27 -30 -46t-49 -19t-39.5 19t-7.5 46q7 27 30 46.5t49 19.5q25 0 39 -19.5t8 -46.5z" />
<glyph unicode="&#x3c;" horiz-adv-x="325" d="M252 185q8 -10 3 -32.5t-23 -40.5t-33 -8q-21 14 -98 79t-93 73q-17 9 1.5 40t42.5 40q22 8 118.5 61.5t125.5 67.5q27 13 28 -17q1 -31 -20 -55q-5 -6 -11 -9q-34 -15 -170 -92q19 -16 49.5 -41.5t51.5 -43t28 -22.5z" />
<glyph unicode="=" horiz-adv-x="415" d="M322 253q-112 -4 -237 9q-27 3 -21 33q6 28 29 39q6 3 11 3q147 8 243 -3q23 -3 17 -35q-6 -33 -31 -44q-6 -2 -11 -2zM289 130q-100 -5 -238 9q-19 2 -21 20t11 35.5t29 18.5q134 9 244 -2q22 -3 17 -34q-5 -32 -29 -44q-6 -3 -13 -3z" />
<glyph unicode="&#x3e;" horiz-adv-x="393" d="M385 313q10 -7 5.5 -23t-19.5 -33.5t-30 -22.5q-22 -8 -118.5 -62t-125.5 -68q-27 -13 -28 17q-1 32 20 55q5 6 11 9q14 7 170 92q-115 98 -129 107q-8 11 -3 33t23.5 40t33.5 8q21 -14 97.5 -79t92.5 -73z" />
<glyph unicode="?" horiz-adv-x="370" d="M195 65q7 27 -7 46t-40 19t-48.5 -19t-29.5 -46t7 -46t40 -19t49 19t29 46zM182 416q0 -22 -27 -26q-34 -4 -54 24q-11 16 -11 37q0 62 58 135t139 73q65 0 104 -41t39 -93q0 -40 -19.5 -77t-49.5 -67t-61 -58.5t-58.5 -63t-37.5 -68.5q-6 -22 -39 -9q-35 12 -45 41 q-4 11 -1 23q5 21 29.5 50.5t55.5 60t61.5 63t51 68t20.5 64.5q0 56 -33 52q-36 -5 -83 -65q-51 -67 -44 -110q2 -7 5 -13z" />
<glyph unicode="@" horiz-adv-x="744" d="M444 618q134 0 211 -71.5t77 -193.5q0 -134 -94.5 -243.5t-189.5 -109.5q-27 0 -48 20t-21 51v4q-47 -75 -109 -75q-55 0 -75.5 67t7.5 180q28 110 79 166.5t106 56.5q43 0 58.5 -37.5t2.5 -77.5l-1 -6q18 48 33 73q14 25 41 27.5t45 -13.5t10 -35l-10 -26 q-11 -26 -21 -53t-24 -65.5t-23 -71.5t-16 -63t-4.5 -47t13.5 -17q15 0 39.5 24t49.5 63t42.5 99.5t17.5 123.5q0 97 -51 153t-130 56q-91 0 -174 -65.5t-132.5 -172t-49.5 -220.5q0 -101 62 -165.5t148 -64.5q94 0 169 67q13 11 27 -8q20 -28 -2 -59l-4 -6q-7 -8 -30.5 -19 t-71 -22t-99.5 -11q-50 0 -101.5 19.5t-97 56t-74.5 98t-29 136.5q0 106 41.5 198.5t107 152t143 93t152.5 33.5zM399 216q21 69 24.5 122.5t-12.5 61.5q-17 8 -43.5 -34.5t-47.5 -110.5q-22 -68 -25.5 -122.5t13.5 -62.5t43.5 35t47.5 111z" />
<glyph unicode="A" horiz-adv-x="454" d="M505 216q4 -7 -1 -15q-13 -25 -28.5 -49t-45 -63.5t-65 -64t-68.5 -24.5q-29 0 -46.5 19.5t-17.5 52.5q0 14 4 33q-69 -105 -140 -105q-40 0 -64 38t-26 111.5t28 179.5q41 143 114.5 226t143.5 83q87 0 69 -138q22 48 34 71q17 35 59 27q34 -6 43 -29q3 -11 -1 -20 q-69 -153 -110 -294t-8 -141q38 0 103 104q4 7 11.5 6.5t11.5 -8.5zM144 110q23 -13 63 42.5t75 147.5q34 91 42 164t-15 86t-63.5 -43t-74.5 -147t-42 -164t15 -86z" />
<glyph unicode="B" horiz-adv-x="549" d="M406 348q46 -14 74 -49.5t28 -79.5q0 -62 -31.5 -117.5t-81 -88.5t-109.5 -45t-117 13q-7 1 -13 20q-22 2 -40.5 20.5t-18.5 45.5q0 47 40.5 191.5t99.5 282.5q15 36 58 28q33 -6 43 -29q4 -10 0 -20q-28 -69 -58 -162q59 24 102 74t43 102q0 37 -27.5 60t-73.5 23 q-61 0 -112.5 -43t-77 -96t-25.5 -96q0 -20 -21 -22q-29 -1 -46 29q-12 21 -12 48q0 29 20 67t56 75.5t95 63t127 25.5q86 0 147 -38t61 -102q0 -114 -130 -180zM191 20q72 -4 132 63t60 149q0 35 -19.5 54t-54.5 19q-23 0 -48 -6q-50 -163 -69 -277q0 -1 -1 -2z" />
<glyph unicode="C" horiz-adv-x="428" d="M308 438q4 22 13 51t16.5 51t13 42t4 31t-10.5 11q-21 0 -58.5 -40.5t-75.5 -101.5t-65.5 -144.5t-27.5 -157.5q0 -112 59 -112q36 0 81 54.5t71 135.5q7 22 31 12q26 -12 31 -45q1 -13 -2 -26q-8 -32 -26 -65.5t-45.5 -64t-67.5 -50t-84 -19.5q-66 0 -115 47.5 t-49 144.5q0 111 52 223.5t126.5 181.5t139.5 69t96 -41t28 -98.5t-31 -116.5q-11 -23 -39 -26.5t-49 12.5t-16 42z" />
<glyph unicode="D" horiz-adv-x="554" d="M328 668q96 0 160 -60.5t64 -172.5q0 -70 -17 -139t-46.5 -124.5t-68.5 -102t-82.5 -71.5t-88.5 -32.5t-88 15.5q-17 8 -20 31q-30 19 -30 55q0 47 41 191t99 283q15 36 58 28q33 -6 43 -29q4 -10 0 -20q-102 -257 -143 -479q6 -16 19 -16q42 0 91.5 68.5t83.5 171.5 t34 194q0 79 -29.5 118.5t-83.5 39.5q-79 0 -147 -83.5t-68 -151.5q0 -20 -21 -22q-29 -1 -46 29q-12 21 -12 48q0 29 20.5 67t56 75.5t94.5 63t127 25.5z" />
<glyph unicode="E" horiz-adv-x="458" d="M350 666q65 0 95.5 -41t27.5 -98.5t-31 -116.5q-11 -23 -39 -26.5t-49 12.5t-16 42q4 22 13 51t16.5 51t13 42t4.5 31t-10 11q-38 0 -102.5 -77.5t-64.5 -150.5q0 -59 83 -59q12 0 16 -11q4 -15 -23 -24q-2 0 -5 -1q-1 0 -19 -3q-8 -2 -25 -2q-33 0 -73.5 -47.5 t-40.5 -101.5q0 -35 21 -57t51 -22q48 0 96 55t59 135q3 22 29 13q29 -9 40 -39q6 -17 2 -33q-17 -69 -91.5 -134t-169.5 -65q-67 0 -113.5 42.5t-46.5 104.5q0 81 52.5 131.5t110.5 50.5q-52 36 -52 98q0 90 77 164.5t164 74.5z" />
<glyph unicode="F" horiz-adv-x="366" d="M486 667q0 11 10 15t20 -1.5t10 -17.5q0 -19 -10 -50t-42 -64t-79 -33q-11 0 -114 7q25 -30 15 -52q-18 -46 -48 -133q33 2 65 7q26 4 27 -25q1 -34 -24 -56q-15 -12 -30 -12q-38 0 -64 1q-45 -151 -58 -231q-4 -26 -38 -21q-37 5 -55 37q-7 14 -7 29q0 41 46 196 q-18 2 -25 4q-29 5 -16 33q12 26 40 34q6 2 12 2q4 -1 11 -1q37 113 69 192h-45q-37 0 -65 -11.5t-28 -37.5q0 -15 -16 -11q-16 6 -17 22q0 31 10 54.5t25 38.5t40 25t47.5 14.5t55.5 6t56 1t57 -1.5t51 -1q114 0 114 41z" />
<glyph unicode="G" horiz-adv-x="483" d="M343 311q9 25 24 33.5t30.5 2t29 -18t20.5 -27t4 -25.5q-5 -15 -35 -122t-48 -165q-30 -97 -73 -142t-109 -45q-54 0 -102 33.5t-70 78t-10 77.5q11 29 35.5 32.5t43.5 -10t19 -27.5q0 -69 26.5 -103.5t56.5 -34.5q11 0 20 7t17.5 24.5t15 33t15.5 48t14 53.5t15 64 q-40 -52 -81 -52q-62 0 -106.5 42.5t-44.5 131.5q0 108 47 218t119.5 179t141.5 69q65 0 96 -41t28 -98.5t-31 -116.5q-11 -23 -39 -26.5t-49.5 12.5t-16.5 42q4 22 13 51t16.5 51t13.5 42t4.5 31t-10.5 11q-21 0 -56.5 -38t-71 -96.5t-61 -141t-25.5 -159.5q0 -94 52 -94 q17 0 32.5 15.5t31 48.5t27 63t27.5 80q2 7 4 9z" />
<glyph unicode="H" horiz-adv-x="570" d="M623 216q3 -7 0 -15q-114 -201 -207 -201q-30 0 -47 19.5t-17 52.5q0 59 44 197l-1 -1h-1q-58 -3 -108 -4q-36 -118 -68 -242q-7 -26 -40 -21q-34 6 -49 39q-6 12 -6 27q0 39 53 200q-2 0 -5 0.5t-5 0.5q-28 3 -16 31q12 27 39 37l11 3q35 110 46 143l10 35t8 31.5t5 29 t0 22.5t-7 16t-15 5q-42 0 -90 -89t-48 -153q0 -20 -21 -22q-29 -1 -46 29q-12 21 -12 48q0 22 9.5 52t28.5 61.5t44.5 58.5t60.5 44.5t72 17.5q76 0 104 -60.5t-2 -146.5q-19 -61 -36 -114q60 5 110 16q2 1 5 1q56 173 96 271q11 27 38.5 29.5t48 -14.5t14.5 -37 q-3 -10 -22 -59t-46 -126.5t-50 -158.5q-11 -38 -16 -58t-9.5 -46.5t0.5 -38.5t18 -12q38 0 103 104q4 7 11.5 6.5t10.5 -8.5z" />
<glyph unicode="I" horiz-adv-x="274" d="M258 664q24 17 56 -16t21 -61q-42 -101 -100.5 -301t-68.5 -264q-4 -26 -36 -21q-36 5 -52 37q-7 14 -7 29q0 39 60 239.5t109 326.5q-22 13 -40.5 -6.5t-44 -71.5t-39.5 -72q-17 -20 -39 -17.5t-37.5 25t-6.5 46.5q22 59 56 100t78.5 53.5t90.5 -26.5z" />
<glyph unicode="J" horiz-adv-x="377" d="M350 659q28 15 57.5 -14.5t22.5 -52.5q-4 -10 -22.5 -77t-46.5 -164.5t-48 -164.5q-46 -151 -96 -204t-124 -53q-40 0 -63 41.5t-27 97.5t0.5 108.5t14.5 79.5q11 29 35.5 32.5t43.5 -10t19 -27.5q0 -27 -5.5 -67t-12 -74.5t-12 -66t-4.5 -50t10 -18.5q23 0 47.5 43 t49.5 120t45.5 153.5t47 176t42.5 153.5q2 5 4 11q-22 14 -40.5 -4.5t-45 -71.5t-39.5 -73q-17 -20 -39.5 -17.5t-38 25t-6.5 46.5q22 61 57.5 102t81 52.5t92.5 -32.5z" />
<glyph unicode="K" horiz-adv-x="523" d="M580 216q6 -8 2 -14q-1 -1 -16 -27.5t-25.5 -43t-30 -44t-35 -44.5t-34.5 -30t-34 -13q-21 0 -39 12t-30 34.5t-21 46t-15 56t-9.5 54t-6.5 49.5q-68 -229 -68 -230q-5 -21 -30 -22t-47.5 18.5t-22.5 48.5q0 16 6 42.5t18.5 68t25.5 81t35 105.5t38 118q29 96 26 119 q-4 19 -20 20q-42 0 -90 -89t-48 -153q0 -20 -21 -22q-29 -1 -46 29q-12 21 -12 48q0 22 9.5 52t28.5 61.5t44.5 58.5t60.5 44.5t72 17.5q76 0 104 -60.5t-2 -146.5q-15 -46 -47 -151q61 55 119.5 138t70.5 130q3 13 30 2q37 -16 44 -50q1 -5 1 -11q0 -38 -56 -105.5 t-132 -123.5q3 -5 3 -11q2 -55 23.5 -113.5t45.5 -58.5q39 0 109 111q4 7 11.5 6.5t10.5 -8.5z" />
<glyph unicode="L" horiz-adv-x="509" d="M436 155q0 10 10 14t20 -1t10 -17q0 -19 -10 -50t-42 -64t-79 -33q-25 0 -74 5.5t-115 5.5q-37 0 -65 -11.5t-28 -37.5q0 -15 -16 -11q-16 6 -17 22q0 73 37 103t103 35q-14 17 -14 39q0 19 7 46.5t17 56.5t32 94t43 131q32 101 26 125q-4 14 -19 14q-28 0 -61.5 -44 t-55 -101t-21.5 -97q0 -20 -21 -22q-29 -1 -46 29q-12 21 -12 48q0 39 25 92t77 97.5t112 44.5q76 0 104 -60.5t-1 -146.5q-82 -257 -104 -346q44 -2 64 -2q114 0 114 42z" />
<glyph unicode="M" horiz-adv-x="817" d="M865 216q4 -5 0 -15q-114 -201 -207 -201q-30 0 -47 19.5t-17 52.5q0 40 31 147.5t59 187.5q14 40 20.5 61t10 39t0.5 24t-12 6q-34 0 -89 -89.5t-87 -177.5q-43 -139 -70 -248q-5 -21 -31 -22t-50 18.5t-24 48.5q0 25 14 74t51 162t58 179q4 13 12 36q23 70 15 83 q-6 8 -17 8q-32 0 -85 -84.5t-87 -171.5q-57 -182 -95 -331q-5 -21 -30 -22t-47.5 18.5t-22.5 48.5q0 16 6 42.5t18.5 68t25.5 81t35 105.5t38 118q29 96 26 119q-4 19 -20 20q-42 0 -90 -89t-48 -153q0 -20 -21 -22q-29 -1 -46 29q-12 21 -12 48q0 22 9.5 52t28.5 61.5 t44.5 58.5t60.5 44.5t72 17.5q53 0 82.5 -30t33.5 -80q63 110 143 110q54 0 79 -41.5t16 -108.5q57 78 123 78q59 0 81 -49.5t-3 -150.5q-4 -15 -12.5 -41.5t-16 -51t-16 -53t-14 -52t-9 -43t-1.5 -30.5t9 -11q38 0 103 104q4 7 11.5 6.5t10.5 -8.5z" />
<glyph unicode="N" horiz-adv-x="592" d="M640 216q4 -7 -1 -15q-114 -201 -207 -201q-30 0 -49.5 19.5t-19.5 52.5q0 61 112 411q28 84 30 99q2 27 -20 27q-32 0 -85 -84.5t-87 -171.5q-57 -182 -95 -331q-5 -21 -30 -22t-47.5 18.5t-22.5 48.5q0 16 6 42.5t18.5 68t25.5 81t35 105.5t38 118q29 96 26 119 q-4 19 -20 20q-42 0 -90 -89t-48 -153q0 -20 -21 -22q-29 -1 -46 29q-12 21 -12 48q0 22 9.5 52t28.5 61.5t44.5 58.5t60.5 44.5t72 17.5q53 0 82.5 -30t33.5 -80q63 110 143 110q66 0 90 -60.5t-3 -147.5q-4 -13 -13.5 -44.5t-18.5 -60.5t-19.5 -65.5t-18 -66t-12 -55 t-3.5 -40t8 -14.5q38 0 103 104q4 7 11.5 6.5t11.5 -8.5z" />
<glyph unicode="O" horiz-adv-x="473" d="M272 663q40 0 42 -25q1 -17 -12 -24q-3 -1 -6 -1q-31 0 -75 -66t-77.5 -171.5t-33.5 -201.5q0 -54 18.5 -79.5t46.5 -25.5q41 0 92 74.5t87.5 187.5t36.5 212q0 23 -7.5 39t-19.5 16q-26 0 -38 -61.5t-10 -124.5q1 -27 -25 -32q-26 -4 -40 19q-6 10 -7 23q-3 97 30 156.5 t104 59.5q53 0 83 -42.5t30 -109.5q0 -95 -41 -206t-120 -195.5t-170 -84.5q-67 0 -113.5 52.5t-46.5 150.5q0 89 30 176.5t73 148t89 98t80 37.5z" />
<glyph unicode="P" horiz-adv-x="508" d="M551 502q0 -72 -45.5 -129t-113.5 -89t-148 -43q-35 -124 -52 -219q-4 -26 -38 -21q-37 5 -55 37q-7 14 -7 29q0 47 41 191t99 283q11 26 41 28.5t52 -14t14 -35.5q-39 -96 -80 -227q67 25 116.5 85.5t49.5 135.5q0 51 -26.5 77t-74.5 26q-61 0 -112.5 -43t-77 -96 t-25.5 -96q0 -20 -21 -22q-29 -1 -46 29q-12 21 -12 48q0 29 20 67t56 75.5t95 63t127 25.5q89 0 156 -44.5t67 -121.5z" />
<glyph unicode="Q" horiz-adv-x="473" d="M277 35q23 -34 66 -85q19 -24 -4 -43q-22 -19 -47 -4q-7 4 -12 11q-35 43 -54 95q-26 -9 -52 -9q-69 0 -121.5 53t-52.5 150q0 89 30 176.5t73 148t89 98t80 37.5q40 0 42 -25q1 -17 -12 -24q-3 -1 -6 -1q-31 0 -75 -66t-77.5 -171.5t-33.5 -201.5q0 -55 18 -86t45 -31 q19 0 38 15q-10 75 30 90q19 6 31 -17q49 79 84 190.5t35 207.5q0 23 -7.5 39t-19.5 16q-26 0 -46.5 -95.5t-18.5 -156.5q1 -27 -25 -32t-40 18q-6 11 -7 23q-2 63 14.5 127t53 110t83.5 46q53 0 83 -42.5t30 -109.5q0 -114 -62.5 -252t-151.5 -199z" />
<glyph unicode="R" horiz-adv-x="489" d="M532 216q4 -9 1 -14q-1 -1 -16 -27.5t-25.5 -43t-30 -44t-35 -44.5t-34.5 -30t-34 -13q-80 0 -118 223q-35 -127 -48 -201q-4 -26 -38 -21q-37 5 -55 37q-7 14 -7 29q0 47 41 191t99 283q11 26 41 28.5t52 -14t14 -35.5q-39 -96 -80 -227q67 25 116.5 85.5t49.5 135.5 q0 51 -26.5 77t-74.5 26q-61 0 -112.5 -43t-77 -96t-25.5 -96q0 -20 -21 -22q-29 -1 -46 29q-12 21 -12 48q0 29 20 67t56 75.5t95 63t127 25.5q89 0 156 -44.5t67 -121.5q0 -86 -61.5 -148t-158.5 -93q2 -52 24 -103t45 -51q39 0 109 111q4 7 11.5 6.5t11.5 -8.5z" />
<glyph unicode="S" horiz-adv-x="381" d="M291 429q29 69 29 127q0 23 -11 36.5t-28 13.5q-23 0 -42 -22t-19 -68q0 -58 26.5 -125t53 -129t26.5 -108q0 -74 -55.5 -114.5t-118.5 -40.5t-107.5 44t-44.5 110q0 42 15.5 63.5t37.5 21.5q27 0 43 -20.5t16 -51.5q0 -14 1.5 -29.5t6 -36.5t16 -34.5t27.5 -13.5 q49 0 49 77q0 37 -27.5 97.5t-55 126.5t-27.5 118q0 90 50.5 141t114.5 51q71 0 107.5 -41t36.5 -92q0 -50 -20 -93.5t-60 -43.5q-24 0 -35.5 10.5t-4.5 25.5z" />
<glyph unicode="T" horiz-adv-x="287" d="M487 667q0 11 10 15t20 -1.5t10 -17.5q0 -19 -10 -50t-42 -64t-79 -33q-10 0 -120 7q28 -29 17 -52q-41 -100 -81.5 -242t-50.5 -207q-4 -26 -36 -21q-36 5 -52 37q-7 14 -7 29q0 41 44.5 191.5t92.5 268.5h-46q-37 0 -65 -11.5t-28 -37.5q0 -14 -15 -11q-16 3 -18 17v5 q7 49 27 81t45 46t62.5 18.5t67.5 2t73 -6.5t67 -4q114 0 114 41z" />
<glyph unicode="U" horiz-adv-x="591" d="M642 216q4 -7 -1 -15q-13 -25 -28.5 -49t-45 -63.5t-65 -64t-68.5 -24.5q-58 0 -58 72q0 25 4 48q-70 -120 -137 -120q-32 0 -54 12t-31.5 34.5t-13.5 50t1 63.5t12 68.5t19 72.5t21.5 68.5t21.5 62.5t17 50q27 90 29 102q5 37 -18 37q-42 0 -90 -89t-48 -153 q0 -20 -21 -22q-29 -1 -46 29q-12 21 -12 48q0 22 9.5 52t28.5 61.5t44.5 58.5t60.5 44.5t72 17.5q76 0 104 -60.5t-2 -146.5q-4 -12 -26 -77.5t-33 -103.5t-23.5 -89.5t-9.5 -77.5t21 -26q22 0 53 42.5t62 110t52.5 119.5t40.5 103v2l1 2q26 72 42 106q11 27 38.5 29.5 t48 -14t14.5 -36.5q-3 -11 -18 -44t-39 -95t-47 -143q-11 -38 -16 -58t-9.5 -46.5t0.5 -38.5t18 -12q37 0 102 104q4 7 11.5 6.5t11.5 -8.5z" />
<glyph unicode="V" horiz-adv-x="530" d="M262 0q-36 0 -57.5 20.5t-27.5 59.5t-4.5 83t14 104t24.5 107.5t30 107.5q26 92 27 112q0 27 -21 27q-42 0 -90 -89t-48 -153q0 -20 -21 -22q-29 -1 -46 29q-12 21 -12 48q0 22 9.5 52t28.5 61.5t44.5 58.5t60.5 44.5t72 17.5q77 0 103 -55t-1 -152q-3 -10 -11 -41 t-13.5 -51t-14 -53.5t-13 -56.5t-10.5 -52t-7.5 -48t-1 -37t5 -26.5t13.5 -8.5q35 0 87.5 160.5t67.5 296.5q4 41 48 51q42 9 67 -14q15 -15 10 -37q-20 -91 -45.5 -172.5t-64 -172.5t-91.5 -145t-112 -54z" />
<glyph unicode="W" horiz-adv-x="777" d="M696 544q4 40 47 50q41 10 66 -12q17 -15 12 -38q-20 -91 -45.5 -172.5t-64 -172.5t-91.5 -145t-112 -54q-101 0 -83 209q-27 -83 -75.5 -146t-106.5 -63q-32 0 -53.5 12t-31.5 34.5t-13.5 50t1.5 63.5t11.5 68.5t19 73t21.5 68.5t21 62.5t17 49.5q27 90 29 102 q5 37 -18 37q-42 0 -90 -89t-48 -153q0 -20 -21 -22q-29 -1 -46 29q-12 21 -12 48q0 22 9.5 52t28.5 61.5t44.5 58.5t60.5 44.5t72 17.5q76 0 104 -60.5t-2 -146.5q-4 -12 -26 -77.5t-33 -103.5t-23.5 -89.5t-9.5 -77.5t21 -26q60 0 178 297q14 64 32 127q3 9 31.5 11.5 t54 -7t20.5 -30.5q-10 -36 -18.5 -72t-19.5 -84.5t-17.5 -89t-10.5 -76t0 -56t15 -20.5q35 0 88.5 165.5t66.5 291.5z" />
<glyph unicode="X" horiz-adv-x="536" d="M537 643q44 0 62 -54q14 -41 2 -61q-5 -9 -13 -4q-27 15 -82 -48t-147 -193q18 -77 43 -126.5t50 -49.5q39 0 109 111q4 7 11 6.5t11 -8.5t2 -14q0 -1 -16 -27.5t-26 -42.5t-29.5 -44t-35 -45t-34.5 -30t-35 -13q-79 0 -136 162q-126 -165 -188 -165q-28 0 -41.5 21.5 t-13.5 50.5q0 27 17.5 51t40.5 20q67 -14 157 116q-11 47 -17.5 144t-17.5 153.5t-38 55.5q-25 -1 -40 -82.5t-13 -143.5q0 -22 -21.5 -29.5t-44 4t-22.5 34.5q-3 97 47 185.5t131 88.5q48 0 76.5 -24t36.5 -95q2 -11 9.5 -79.5t12.5 -97.5q17 28 41.5 73t41.5 75.5t37 61.5 t38.5 47t34.5 16z" />
<glyph unicode="Y" horiz-adv-x="584" d="M494 557q8 27 24 37t31.5 4.5t29.5 -17.5t21.5 -27.5t4.5 -25.5q-4 -13 -54.5 -219t-69.5 -266q-74 -241 -189 -241q-54 0 -102 33.5t-70 78t-10 77.5q11 29 35 32.5t43 -10t19 -27.5q0 -69 27 -103.5t57 -34.5q26 0 54.5 93.5t66.5 269.5q-72 -151 -152 -151 q-31 0 -53 10t-32.5 29.5t-16 42t-2 54.5t7.5 59t15 63.5t18 60t18.5 57t15.5 46.5q4 14 13 40t13 39.5t7 29.5t-1.5 23t-15.5 7q-42 0 -90 -89t-48 -153q0 -20 -21 -22q-29 -1 -46 29q-12 21 -12 48q0 22 9.5 52t28.5 61.5t44.5 58.5t60.5 44.5t72 17.5q76 0 104 -60.5 t-2 -146.5q-6 -18 -17 -50.5t-19.5 -58.5t-18.5 -57.5t-15 -55t-6.5 -44.5t4 -32t18.5 -11q41 0 92.5 103.5t84.5 214.5q0 1 1 3t1 3q8 32 22 81z" />
<glyph unicode="Z" horiz-adv-x="437" d="M311 297q24 0 51 -36.5t27 -82.5q0 -65 -37 -134t-101 -116t-134 -47q-63 0 -99.5 35.5t-36.5 98.5t41 115t77 52q38 0 62 -27q11 -14 3 -18q-21 -6 -56 -54t-35 -105q0 -27 13 -42.5t32 -15.5q29 0 64.5 38t61 98.5t25.5 116.5q0 21 -15.5 42.5t-38.5 28.5 q-19 -6 -32 -6q-46 0 -60 28q-9 18 6 22h3q52 3 136.5 99.5t84.5 182.5q0 50 -40 50q-37 0 -71.5 -46.5t-53 -103t-18.5 -94.5q0 -19 -28 -22q-36 -4 -56 25q-12 16 -12 39q0 26 17.5 67t46.5 82.5t76 71t98 29.5q61 0 95 -39.5t34 -98.5q0 -68 -36 -129t-94 -104z" />
<glyph unicode="[" horiz-adv-x="281" d="M157 -15q28 -8 27 -22q-1 -21 -52 -23q-35 -5 -83 -1t-48 25q-2 94 69.5 374t125.5 388q8 15 28.5 18t58 -2.5t42.5 -5.5q40 -2 43 -22q2 -15 -18 -21q-7 -2 -16 -2l-55 5q-67 -184 -111 -355q-22 -85 -39 -170t-23 -127l-6 -43q35 -10 57 -16z" />
<glyph unicode="\" horiz-adv-x="338" d="M211 28q-13 38 -94 323t-85 296q-5 17 3.5 29.5t23 9t22.5 -26.5q5 -14 54 -162t95 -285t53 -154q8 -20 -5.5 -41t-34.5 -20.5t-32 31.5z" />
<glyph unicode="]" horiz-adv-x="448" d="M241 698q-28 8 -27 22q1 21 52 23q35 5 83 1t48 -25q2 -94 -69.5 -374t-125.5 -387q-8 -16 -28 -19t-57.5 2.5t-42.5 5.5q-41 3 -44 23q-2 15 18 20q7 2 16 2l55 -4q67 183 112 354q22 85 39 170.5t22 127.5l6 43q-35 9 -57 15z" />
<glyph unicode="^" horiz-adv-x="461" d="M424 454q16 -10 -4.5 -35t-36.5 -25q-21 0 -49 29t-47 66q-96 -105 -126 -105q-16 0 -32.5 12.5t-21.5 26.5t6 23q85 50 172 152q14 13 28 1.5t21 -32.5l1 -1v-2q7 -26 35.5 -61t53.5 -49z" />
<glyph unicode="_" horiz-adv-x="433" d="M363 0q-49 -2 -169.5 1t-169.5 8q-27 3 -22 27q4 22 26 30q5 2 10 2q72 4 184.5 3.5t160.5 -5.5q23 -3 19 -28q-4 -27 -28 -36q-5 -2 -11 -2z" />
<glyph unicode="`" horiz-adv-x="190" d="M91 646q9 -41 28 -72.5t38 -43.5q11 -6 -9 -22q-19 -15 -32 -10q-22 7 -54 44.5t-32 53.5q0 28 30 50q26 17 31 0z" />
<glyph unicode="a" horiz-adv-x="387" d="M436 216q4 -7 -1 -15q-14 -25 -29.5 -49t-45 -63.5t-62.5 -64t-61 -24.5q-50 0 -50 72v11q-50 -83 -116 -83q-54 0 -72.5 67t11.5 180q32 110 84.5 166.5t107.5 56.5q38 0 54 -30.5t8 -68.5q15 36 24 52q14 25 40.5 27t45 -13.5t10.5 -35.5q0 -1 -9 -23t-17.5 -45 t-20 -55t-19 -59t-12.5 -51.5t-1.5 -39t14.5 -14.5q29 0 94 104q4 7 11.5 6t11.5 -8zM111 71q16 -8 44 34t51 111t28 122.5t-11 62.5q-16 8 -44 -35t-51 -111t-28 -122t11 -62z" />
<glyph unicode="b" horiz-adv-x="362" d="M470 335q5 -12 -5 -21q-62 -50 -127 -69q-1 -2 -3.5 -10t-3.5 -13q-38 -110 -93 -166t-110 -56q-41 0 -68 24t-36.5 63t-8.5 83t12 88q20 77 44.5 150.5t42.5 118.5t54 131q15 35 55 28q33 -6 42 -29q4 -11 -1 -21q-61 -123 -129 -345t-8 -222q16 0 41.5 39.5t52.5 106.5 q7 18 11 32q-30 13 -46 40.5t-16 59.5q0 45 31.5 84t80.5 39q45 0 64.5 -51t1.5 -135q52 18 100 58q15 11 22 -7zM205 363q0 -55 37 -79q23 101 -4 115q-13 7 -23 -4.5t-10 -31.5z" />
<glyph unicode="c" d="M361 219q4 7 11.5 6t11.5 -9q4 -7 -1 -16q-15 -26 -25.5 -42t-37 -49.5t-50 -54t-58.5 -37.5t-70 -17q-60 0 -101 39.5t-41 112.5q0 126 70.5 222t155.5 96q41 0 74 -32.5t33 -82.5q0 -78 -60 -133q-10 -12 -28.5 -11.5t-32.5 17.5q-12 15 -12.5 35t10.5 34q37 51 37 80 q0 10 -5.5 17t-13.5 7q-19 0 -46.5 -36t-49.5 -96t-22 -115q0 -38 16 -61t45 -23q55 0 110.5 52t79.5 97z" />
<glyph unicode="d" horiz-adv-x="386" d="M455 636q-85 -209 -139 -430q-22 -92 2 -92q29 0 94 104q4 7 11.5 6t10.5 -8q4 -5 0 -15q-14 -25 -29.5 -49t-45 -63.5t-62.5 -64t-61 -24.5q-51 0 -51 71q0 6 1 10q-50 -81 -115 -81q-54 0 -72.5 67t11.5 180q32 110 84.5 166.5t107.5 56.5q29 0 45.5 -18.5t18.5 -46.5 q47 146 92 253q11 26 38.5 28.5t47 -14t11.5 -36.5zM111 71q16 -8 44 34t51 111t28 122.5t-11 62.5q-16 8 -44 -35t-51 -111t-28 -122t11 -62z" />
<glyph unicode="e" d="M384 216q4 -7 -1 -16q-15 -26 -25.5 -42t-37 -49.5t-50 -54t-58.5 -37.5t-70 -17q-60 0 -101 39.5t-41 112.5q0 126 70.5 222t155.5 96q41 0 74 -32.5t33 -82.5q0 -87 -71.5 -142.5t-149.5 -28.5q-2 -20 -2 -30q0 -38 16 -61t45 -23q55 0 110.5 52t79.5 97q4 7 11.5 6 t11.5 -9zM228 401q-23 0 -57 -52t-51 -118q40 -6 83.5 44.5t43.5 101.5q0 10 -5.5 17t-13.5 7z" />
<glyph unicode="f" horiz-adv-x="240" d="M265 219q4 7 11.5 6t11.5 -9t0 -15q-96 -162 -193 -193q21 -80 14 -160q-4 -49 -30 -81.5t-66 -32.5t-62 16t-27 47.5t-0.5 67.5t17.5 87q46 180 139 488q39 131 83 186.5t110 55.5q36 0 54.5 -26.5t18.5 -68.5q0 -127 -227 -373q-11 -36 -42 -144q55 1 109.5 52.5 t78.5 96.5zM287 602q-45 0 -139 -296q154 180 154 269q0 27 -15 27zM27 -216q22 0 29 66t-2 136q-5 -21 -14 -51t-10 -35q-8 -28 -12 -46.5t-5.5 -35.5t2 -25.5t12.5 -8.5z" />
<glyph unicode="g" horiz-adv-x="394" d="M443 216q4 -7 -1 -15q-21 -42 -74.5 -104t-107.5 -100q-1 -6 -19 -67q-57 -196 -167 -196q-42 0 -62.5 21.5t-20.5 55.5q0 96 162 181q3 10 8 28.5t7 27.5q-41 -48 -90 -48q-54 0 -73 67t11 180q32 110 84.5 166.5t107.5 56.5q43 0 58.5 -40t-0.5 -74l-2 -7q25 65 28 72 q11 26 38.5 28.5t47 -14t11.5 -36.5q-41 -101 -110 -340q74 54 141 159q4 7 11.5 6t11.5 -8zM118 71q16 -8 44 34.5t51 110.5t28 122.5t-11 62.5q-17 8 -45 -35t-50 -111q-23 -69 -28 -122t11 -62zM60 -218q38 0 58 82q3 9 8.5 31.5t9.5 34.5q-102 -62 -102 -117 q0 -14 7.5 -22.5t18.5 -8.5z" />
<glyph unicode="h" horiz-adv-x="375" d="M422 216q4 -5 0 -15q-14 -25 -29.5 -49t-45 -63.5t-62.5 -64t-61 -24.5q-51 0 -51 72q0 53 53 226q3 9 5.5 19t3.5 20t0 17t-6 7q-21 0 -63 -66t-57 -123v1q-27 -104 -34 -151q-4 -26 -35 -22q-33 5 -49 38q-6 13 -6 29q0 48 56 250.5t114 340.5q11 26 38 28.5t46.5 -14 t11.5 -36.5q-49 -124 -96 -290q70 124 136 124q29 0 45 -22t16.5 -51.5t-7.5 -58.5q-51 -152 -54 -192q-2 -32 15 -32q29 0 94 104q4 7 11.5 6t10.5 -8z" />
<glyph unicode="i" horiz-adv-x="190" d="M91 423q14 25 41 27t45 -13.5t10 -35.5q0 -1 -9 -23t-17.5 -45t-20 -55t-19 -59t-12.5 -51.5t-1.5 -39t14.5 -14.5q29 0 94 104q4 7 11.5 6t11.5 -8t-1 -15q-12 -22 -29 -48.5t-45.5 -64.5t-61.5 -63t-62 -25q-50 0 -50 72q0 71 36.5 185.5t64.5 165.5zM260 577 q-14 -38 -41.5 -65.5t-53.5 -27.5q-25 0 -33.5 27.5t5.5 65.5q13 39 40.5 66t53.5 27t34 -27t-5 -66z" />
<glyph unicode="j" horiz-adv-x="194" d="M219 218q4 7 11.5 6t11.5 -8t-1 -15q-21 -42 -74.5 -104t-107.5 -100q-1 -6 -19 -67q-57 -196 -167 -196q-42 0 -62.5 21.5t-20.5 55.5q0 96 162 181q77 279 139 429q11 26 38.5 28.5t47 -14t11.5 -36.5q-41 -101 -110 -340q74 54 141 159zM-141 -218q37 0 58 82 q3 9 8.5 31.5t9.5 34.5q-102 -62 -102 -117q0 -14 7.5 -22.5t18.5 -8.5zM261 577q-14 -38 -41.5 -65.5t-53.5 -27.5q-25 0 -33.5 27.5t5.5 65.5q13 39 40.5 66t53.5 27t34 -27t-5 -66z" />
<glyph unicode="k" horiz-adv-x="342" d="M389 216q5 -9 1 -14q-1 -1 -16 -27.5t-25.5 -43t-30 -44t-35 -44.5t-34.5 -30t-34 -13q-35 0 -63.5 47t-44.5 118q-1 -1 -2 -1q-24 -104 -30 -142q-4 -26 -35 -22q-33 5 -49 38q-6 13 -6 29q0 49 54 251.5t112 339.5q11 26 38 28.5t46.5 -14t11.5 -36.5 q-45 -114 -88 -265q57 99 131 99q26 0 45 -18.5t19 -44.5q0 -77 -152 -184q20 -104 55 -116q8 0 13 -1t13 5.5t13.5 10.5t14 14t13.5 16.5t12.5 18t11.5 17.5t10 16.5t8 13.5q4 7 11.5 6t11.5 -8zM126 234l-3 1q-2 -6 -2 -9q53 48 91 96.5t38 72.5q0 16 -11 16 q-20 0 -59 -58t-54 -119z" />
<glyph unicode="l" horiz-adv-x="202" d="M261 636q-3 -10 -23 -65t-48 -138.5t-51 -163.5q-7 -24 -11 -39t-8.5 -35t-5.5 -32.5t-0.5 -25t5 -18t13.5 -5.5q39 0 102 105q5 7 12.5 6t10.5 -9q4 -6 1 -14q-115 -202 -208 -202q-59 0 -59 72q0 53 53 226q73 241 120 360q12 27 38.5 29.5t45.5 -14.5t13 -37z" />
<glyph unicode="m" horiz-adv-x="568" d="M616 216q3 -7 0 -15q-14 -25 -29.5 -49t-45 -63.5t-62.5 -64t-62 -24.5q-50 0 -50 72q0 53 53 226q3 10 5 19t3.5 20t0.5 17.5t-6 6.5q-20 0 -60.5 -61t-57.5 -118q-30 -114 -37 -160q-4 -26 -35 -22q-33 5 -49 38q-6 13 -6 29q0 54 53 231q3 10 5 19t3.5 20t0.5 17.5 t-6 6.5q-19 0 -57 -56.5t-57 -113.5q-28 -103 -40 -169q-4 -26 -35 -22q-33 5 -49 38q-6 13 -6 29q0 40 37 174.5t60 181.5q13 26 40 28t45.5 -14t10.5 -36q-2 -5 -13 -38q64 107 126 107q38 0 52 -35.5t6 -79.5q68 115 131 115q29 0 45 -22t16.5 -51.5t-7.5 -58.5 q-51 -152 -54 -192q-2 -32 15 -32q29 0 94 104q4 7 11.5 6t10.5 -8z" />
<glyph unicode="n" horiz-adv-x="379" d="M427 216q3 -7 0 -15q-14 -25 -29.5 -49t-45 -63.5t-62.5 -64t-62 -24.5q-50 0 -50 72q0 53 53 226q3 10 5 19t3.5 20t0.5 17.5t-6 6.5q-19 0 -55.5 -53.5t-56.5 -109.5q-33 -123 -42 -176q-4 -26 -35 -22q-33 5 -49 38q-6 13 -6 29q0 40 37 174.5t60 181.5q13 26 40 28 t45.5 -14t10.5 -36q-2 -5 -13 -38q64 107 126 107q29 0 45 -22t16.5 -51.5t-7.5 -58.5q-51 -152 -54 -192q-2 -32 15 -32q29 0 94 104q4 7 11.5 6t10.5 -8z" />
<glyph unicode="o" horiz-adv-x="347" d="M455 335q5 -12 -5 -21q-67 -51 -128 -69q-5 -18 -7 -23q-37 -110 -92.5 -166t-111.5 -56q-54 0 -82.5 36t-28.5 105q0 96 42 190.5t90 116.5q27 11 48 -25q35 47 86 47q46 0 65 -51t1 -135q54 18 101 58q5 5 12 2.5t10 -9.5zM223 399q-14 7 -24 -4.5t-10 -31.5 q0 -59 42 -81q9 45 6.5 78t-14.5 39zM215 225q2 4 7 19q-58 23 -67 87q-15 -29 -31 -70q-24 -60 -30 -117.5t13 -69.5q21 -10 51.5 34t56.5 117z" />
<glyph unicode="p" horiz-adv-x="373" d="M436 216q4 -7 0 -16q-12 -22 -29.5 -45.5t-46.5 -53.5t-62 -52.5t-77 -37t-89 -11.5q-30 0 -45.5 20t-15.5 50q-50 -176 -61 -251q-4 -26 -35 -21q-33 5 -48 37q-7 14 -7 29q0 28 58 235.5t106 321.5q10 24 34.5 28t44 -9t19.5 -31q50 61 104 61q35 0 55 -30t19.5 -87.5 t-25.5 -130.5q-34 -99 -87 -161q48 15 94.5 63t72.5 97q5 7 11 5t10 -10zM114 69q16 -8 46 34.5t57 111.5q26 69 34 122t-8 62q-16 8 -46 -34.5t-57 -110.5q-26 -68 -34 -122.5t8 -62.5z" />
<glyph unicode="q" horiz-adv-x="386" d="M410 220q4 7 11.5 5.5t11.5 -9.5t0 -16q-24 -48 -78 -121t-119 -141q-19 -79 -26 -119q-4 -26 -35 -21q-33 5 -48 37q-7 14 -7 29q0 23 44 187q-42 -51 -93 -51q-54 0 -72.5 67t11.5 180q32 110 84.5 166.5t107.5 56.5q40 0 55 -32.5t6 -70.5q14 38 21 54 q11 26 38.5 28.5t46.5 -14t11 -36.5q-63 -160 -124 -384q106 115 154 205zM111 71q16 -8 44 34t51 111t28 122.5t-11 62.5q-16 8 -44 -35t-51 -111t-28 -122t11 -62z" />
<glyph unicode="r" horiz-adv-x="309" d="M358 216q4 -7 -1 -15q-12 -22 -29 -48.5t-45.5 -64.5t-62 -63t-61.5 -25q-50 0 -50 72q0 55 22.5 139t51.5 154q-9 -4 -30 -4q-11 0 -22 3q-40 -91 -94 -182q-6 -8 -13.5 -7t-10 8.5t0.5 15.5q52 87 81 188q-29 33 -29 81q0 53 31 98.5t60 45.5q14 0 23.5 -15.5 t9.5 -38.5q0 -31 -8 -59.5t-31 -85.5q28 3 78 30q27 16 57 -0.5t20 -41.5q0 -1 -9 -23t-17.5 -45t-20 -55t-19 -59t-12.5 -51.5t-1.5 -39t14.5 -14.5q29 0 94 104q4 7 11.5 6t11.5 -8z" />
<glyph unicode="s" horiz-adv-x="261" d="M309 216q6 -8 0 -15q-119 -203 -247 -201h-10q-49 0 -81 60q-6 11 14 32q14 15 18 7q18 -39 42 -39t37 30.5t13 59.5v139q-33 -67 -58 -107q-8 -13 -19 -3t-3 22q55 99 81 188q1 51 27.5 95.5t61.5 63t60 0.5q51 -37 -65 -186q2 -12 10 -51.5t12 -71.5t4 -68 q0 -28 -7 -56q54 44 88 104q4 7 11.5 6t10.5 -9z" />
<glyph unicode="t" horiz-adv-x="218" d="M173 658q12 27 38.5 29.5t45.5 -14.5t13 -37q-3 -9 -13 -37t-26 -73.5t-31 -89.5q9 1 19 2.5t15.5 2.5t8.5 1q16 2 5 -35q-13 -40 -32 -49q-12 -4 -43 -6q-3 -10 -11.5 -38.5t-13.5 -44.5q-7 -24 -11 -39t-8.5 -35t-5.5 -32.5t-0.5 -25t5 -18t13.5 -5.5q38 0 103 104 q4 7 11.5 6t10.5 -8q4 -5 0 -15q-114 -201 -207 -201q-59 0 -59 72q0 53 53 226q1 2 17 54q-7 0 -16.5 0.5t-15.5 1t-9 0.5q-18 1 -6 26q14 27 34 32q8 3 34 6q64 196 82 240z" />
<glyph unicode="u" horiz-adv-x="382" d="M430 216q3 -7 0 -15q-14 -25 -29.5 -49t-45 -63.5t-62.5 -64t-62 -24.5q-50 0 -50 72q0 18 3 41q-78 -113 -149 -113q-50 0 -50 72q0 71 36.5 185.5t64.5 165.5q14 25 41 27t45 -13.5t10 -35.5q0 -1 -9 -23t-17.5 -45t-20 -55t-19 -59t-12.5 -51.5t-1.5 -39t14.5 -14.5 q20 0 49.5 35.5t41.5 75.5q36 131 74 198q14 25 41 27t45.5 -13.5t10.5 -35.5q-9 -21 -13 -31t-20.5 -52.5t-24.5 -70.5t-17 -62.5t-6 -52.5t16 -18q29 0 94 104q4 7 11.5 6t10.5 -8z" />
<glyph unicode="v" horiz-adv-x="350" d="M443 335q6 -11 -4 -21q-62 -62 -134 -81q-40 -98 -96 -165.5t-111 -67.5q-44 0 -71 31.5t-27 94.5q0 105 66 297q9 26 39.5 28.5t54 -14t16.5 -36.5q-43 -124 -61.5 -217.5t2.5 -99.5q21 0 52.5 48.5t63.5 123.5q-7 17 -7 39q0 55 26 115t71 60q15 0 24 -10t9 -27 q0 -63 -33 -153q37 17 99 62q14 10 21 -7z" />
<glyph unicode="w" horiz-adv-x="543" d="M636 335q5 -11 -5 -21q-62 -62 -133 -81q-41 -98 -97 -165.5t-111 -67.5q-88 0 -85 127q-22 -59 -59.5 -93t-80.5 -34q-29 0 -47.5 20.5t-18.5 62.5q0 85 33 183.5t65 156.5q14 25 41 27t45 -13.5t10 -35.5q0 -1 -6.5 -17t-13 -33t-16 -43t-17 -50t-16 -50t-13 -48 t-6 -39.5t2 -27.5t12.5 -10q32 0 63.5 67t60.5 164t34 109q11 26 41 28.5t53 -14t16 -36.5q-88 -253 -88 -299q0 -18 9 -18q21 0 52.5 48.5t64.5 123.5q-8 16 -8 39q0 32 9.5 70.5t33 71.5t54.5 33q15 0 24 -10t9 -27q0 -62 -32 -153q39 17 98 62q5 4 12 2t10 -9z" />
<glyph unicode="x" horiz-adv-x="359" d="M406 216q4 -9 2 -14q0 -1 -16 -27.5t-26 -42.5t-29.5 -44t-35 -45t-34.5 -30t-35 -13q-55 0 -87 89q-70 -86 -127 -86q-20 0 -29.5 10t-8.5 25q1 19 14.5 35t31.5 16q45 0 104 57q-16 81 -25 160q-10 -21 -69 -124q-10 -15 -20 -2q-8 10 -2 21q56 96 83 190q0 5 -0.5 16 t-1.5 16q-1 29 25 42.5t53 5.5t27 -30q3 -98 11 -163q54 122 79 156q27 36 52 36q20 0 33.5 -19t12.5 -40t-16 -27q-20 -7 -47.5 -38t-48 -60.5t-52.5 -80.5q19 -87 50 -98q8 0 13 -1t13 5.5t13.5 10.5t14 14t13.5 16.5t12.5 18t11.5 17.5t10 16.5t8 13.5q4 7 11.5 6 t11.5 -8z" />
<glyph unicode="y" horiz-adv-x="388" d="M437 216q4 -7 -1 -15q-21 -42 -74.5 -104t-107.5 -100q-1 -6 -19 -67q-57 -196 -167 -196q-42 0 -62.5 21.5t-20.5 55.5q0 96 162 181q4 14 8.5 30t10 35.5t8.5 30.5q-70 -88 -131 -88q-50 0 -50 72q0 71 36.5 185.5t64.5 165.5q14 25 41 27t45.5 -13.5t10.5 -35.5 q-9 -21 -13 -31t-20.5 -52.5t-24.5 -70.5t-17 -62.5t-6.5 -52.5t15.5 -18q19 0 46.5 31.5t41.5 68.5q42 133 73 207q11 26 38.5 28.5t47 -14t11.5 -36.5q-41 -101 -110 -340q74 54 141 159q4 7 11.5 6t11.5 -8zM54 -218q38 0 58 82q3 9 8.5 31.5t9.5 34.5 q-102 -62 -102 -117q0 -14 7.5 -22.5t18.5 -8.5z" />
<glyph unicode="z" horiz-adv-x="381" d="M428 216q3 -7 0 -15q-16 -31 -53 -77.5t-79 -85.5q-2 -61 -30 -118.5t-68 -97.5t-87 -64t-88 -24q-42 0 -62.5 21.5t-20.5 55.5q0 32 25 66t66.5 63t76.5 49t73 38q2 18 2 28q0 25 -10 28q-24 -22 -38 -34q-10 -9 -23 -5.5t-19 16.5q-10 19 3 37q50 66 86.5 126.5t55 102 t27 72.5t6.5 45.5t-11 14.5q-19 0 -50.5 -40.5t-56.5 -104.5q-25 -62 -33 -116q-3 -14 -13 -28.5t-19 -17.5q-25 -8 -50.5 11t-20.5 53q4 36 22 90q37 110 92 166t110 56q52 0 87.5 -36t35.5 -89q0 -48 -36.5 -119t-98.5 -142q53 0 65 -59q56 48 112 136q4 7 11.5 6t10.5 -8 zM9 -218q32 0 81.5 57.5t75.5 127.5q-74 -37 -128.5 -79.5t-54.5 -74.5q0 -14 7.5 -22.5t18.5 -8.5z" />
<glyph unicode="{" horiz-adv-x="264" d="M5 348q-6 5 -4.5 15t8.5 13q57 21 90 132q27 95 81.5 163t127.5 65q41 -2 43 -21q3 -16 -20 -22q-6 -2 -14 -2q-40 0 -69.5 -54.5t-44 -119.5t-39 -119.5t-55.5 -54.5q22 0 26.5 -25t-4.5 -62.5t-19 -81.5t-17.5 -81.5t1.5 -62.5t37 -25q27 0 27 -16q1 -17 -30 -25 q-10 -3 -23 -4q-39 -2 -63 17t-30.5 53.5t-4 74.5t13.5 88q27 115 -18 155z" />
<glyph unicode="|" horiz-adv-x="283" d="M144 697q2 43 34 45q25 1 38 -21q5 -9 4 -20q-3 -33 -30 -386t-29 -391q-2 -24 -15 -31t-25 3t-11 27q4 65 34 774z" />
<glyph unicode="}" horiz-adv-x="433" d="M377 349q7 -6 5.5 -16t-8.5 -13q-59 -22 -90 -132q-28 -96 -82.5 -163.5t-127.5 -64.5q-41 3 -43 22q-2 15 21 21q7 2 14 2q33 0 58 36t40 87t29 102t34 87t46 36q-22 0 -26.5 25t5 62.5t19.5 81.5t17 81.5t-1.5 62.5t-36.5 25q-27 0 -28 16q0 17 29 25q11 3 25 4 q39 2 62.5 -17t30.5 -53.5t4 -74.5t-14 -88q-27 -116 18 -154z" />
<glyph unicode="~" horiz-adv-x="509" d="M416 263q0 13 15 11q16 -2 16 -17q0 -29 -28.5 -70t-80.5 -38q-31 2 -84.5 17.5t-100.5 22.5q-26 3 -48 -6.5t-22 -30.5q0 -13 -14 -7t-12 18q3 23 10 40.5t15 30t21.5 20t24 12.5t29.5 5.5t31 0t34 -4.5t34 -7t36.5 -9t35.5 -8q30 -8 49.5 -5.5t29 9.5t9.5 16z" />
<glyph unicode="&#xa2;" horiz-adv-x="359" d="M255 474q39 -7 62 -28.5t14 -52.5q-13 -42 -62 -47q-32 -4 -39 9q-2 4 2 8q9 10 19 30t9 35q-2 12 -15 17q-53 -150 -70 -295h3q31 0 56 27t39 61q5 10 17 10.5t21.5 -10t5.5 -23.5q-11 -35 -51 -65t-95 -36q-1 -16 -3 -50q-4 -23 -19.5 -22t-33 13t-14.5 18l15 42 q-46 8 -79 38t-36 77q-4 88 50.5 158t135.5 85q1 25 0 51q-1 25 29 30q32 5 48 -15q10 -12 4 -29q-2 -6 -6.5 -18t-6.5 -18zM109 232q2 -38 25 -63q41 124 51 252q-34 -32 -56.5 -86.5t-19.5 -102.5z" />
<glyph unicode="&#xa3;" horiz-adv-x="450" d="M325 584q47 0 78.5 -37t15.5 -96q-17 -63 -63 -75q-29 -7 -40 9q-6 8 1 18q11 16 22.5 47.5t12.5 55.5q1 12 -4.5 21t-14.5 9q-30 0 -64 -104q-7 -21 -17 -54t-14 -44q46 0 57 3q7 2 8 -8q3 -22 -14 -46q-9 -11 -17 -12q-28 0 -53 -1q-18 -58 -34 -118q36 -2 52 -2 q92 0 92 34q0 9 8.5 12t16.5 -1.5t8 -13.5q0 -10 -5.5 -27.5t-16.5 -39.5t-33.5 -37t-51.5 -15q-21 0 -60 4t-93 4q-75 0 -75 -39q0 -12 -13 -9q-14 3 -14 18q0 59 29.5 83.5t83.5 28.5q-11 15 -11 31q0 26 21 86h-40q-13 -1 -8 28q7 32 24 35q3 0 18.5 0.5t26.5 0.5 q21 61 38 116q18 56 59 95.5t84 39.5z" />
<glyph unicode="&#xa5;" horiz-adv-x="341" d="M203 224h-41q-2 -11 -6 -35q36 2 47 3q8 2 9 -8q2 -21 -16 -42q-9 -11 -19 -11h-32q-7 -43 -15 -64q-6 -18 -29.5 -20t-43 7.5t-16.5 18.5q5 11 19 57q-13 0 -29.5 -0.5t-18.5 -0.5q-14 -1 -11 23q4 29 24 35q2 1 5 1q5 0 21.5 0.5t27.5 0.5q1 4 4.5 15.5t5.5 18.5 q-14 0 -32 -0.5t-20 -0.5q-14 -1 -10 27q6 32 26 36h2q13 1 52 1q1 3 2.5 8.5t1.5 7.5q-5 10 -48.5 92t-57.5 116q-5 11 18 27.5t45 22t28 -2.5q2 -10 10.5 -33.5t23 -64.5t25.5 -74q83 127 105 167q10 11 30.5 5t38.5 -25t14 -32q-4 -12 -39 -54t-76.5 -88.5t-49.5 -56.5 q0 -1 -1.5 -6t-2.5 -8q42 0 54 3q9 2 10 -10q1 -23 -17 -45q-9 -10 -18 -11z" />
<glyph unicode="&#xa8;" horiz-adv-x="287" d="M131 574q-5 -22 -23.5 -36.5t-38.5 -14.5t-30.5 14.5t-6.5 36.5q5 21 23.5 36t38.5 15t31 -15t6 -36zM255 574q-5 -22 -23 -36.5t-39 -14.5q-20 0 -30.5 14.5t-5.5 36.5q4 21 22.5 36t38.5 15t31 -15t6 -36z" />
<glyph unicode="&#xaa;" horiz-adv-x="161" d="M173 380q1 -3 0 -6q-46 -74 -73 -74q-19 0 -19 27v4q-19 -31 -43 -31q-20 0 -26.5 25t4.5 66t30.5 62t40.5 21q14 0 20 -11.5t3 -25.5q4 12 8 19q5 9 15 10t17 -5t4 -13q0 -1 -3 -9q-39 -97 -21 -97q8 0 35 39q4 6 8 -1zM53 326q6 -3 16.5 13t18.5 41q9 26 11 45.5 t-5 22.5q-5 3 -15.5 -13t-19.5 -41q-20 -61 -6 -68z" />
<glyph unicode="&#xb0;" horiz-adv-x="216" d="M127 652q31 0 47.5 -23t8.5 -55t-35.5 -55t-58.5 -23t-47.5 23t-8.5 55t35.5 55t58.5 23zM133 568q8 25 6.5 44t-12.5 21q-10 2 -23 -13.5t-21 -40.5t-6.5 -44t12.5 -21t24 13.5t20 40.5z" />
<glyph unicode="&#xb1;" horiz-adv-x="425" d="M351 374q23 -3 17 -35q-6 -33 -31 -44q-6 -2 -11 -2q-32 -2 -75 0q-14 -57 -24 -90q-9 -18 -25 -17t-31.5 17t-13.5 33l9 60q-50 4 -78 6q-19 2 -21 20t11 35.5t29 18.5q25 2 75 4q8 40 24 94q7 22 37 10t36 -37l1 -13q-3 -26 -9 -55q34 -1 80 -5zM299 65q25 1 38 33.5 t-5 43.5q-3 3 -8 3q-106 12 -244 3q-23 -1 -35 -31q-14 -31 7 -40q4 -2 9 -3q126 -15 238 -9z" />
<glyph unicode="&#xb2;" horiz-adv-x="173" d="M135 382q18 0 18 -27q0 -23 -14 -39.5t-36 -16.5q-23 0 -43.5 15.5t-22.5 16.5q-23 -17 -36 -17q-12 0 -20.5 8.5t-8.5 18.5q0 13 10 26t34 13q8 0 16 -2q35 34 64 81t29 81q0 27 -16 27q-20 0 -36.5 -30.5t-16.5 -66.5q0 -9 -20 -9q-9 0 -16 6.5t-7 15.5q0 36 27 70 t70 34q24 0 43.5 -13t19.5 -41q0 -35 -33 -86.5t-74 -91.5q10 -8 22 -8q17 0 26 8.5t9 16.5q0 10 12 10z" />
<glyph unicode="&#xb3;" horiz-adv-x="159" d="M104 440q12 -4 23 -17t11 -33q0 -34 -26.5 -61.5t-55.5 -27.5q-19 0 -33 10t-18 17.5t-6 14.5q0 11 5 15q8 4 10 -1q6 -21 27 -21q17 0 34 18t17 43q0 15 -7 24t-15 9q-4 -1 -13 -1q-12 0 -18 6.5t-2 14.5q3 5 18 5q19 0 43.5 27t24.5 59q0 26 -16 26t-29.5 -24 t-13.5 -50q0 -7 -20 -7q-9 0 -16 6t-7 15q0 29 27 54.5t60 25.5q63 0 63 -49q0 -29 -19 -56.5t-48 -41.5z" />
<glyph unicode="&#xb4;" horiz-adv-x="190" d="M99 646q4 19 29 1q29 -23 32 -51q0 -16 -32 -53.5t-54 -44.5q-16 -6 -36 14q-14 13 -5 18q19 12 38 43.5t28 72.5z" />
<glyph unicode="&#xb8;" horiz-adv-x="206" d="M116 -28q25 5 44.5 -11.5t14.5 -46.5q-8 -46 -52.5 -63.5t-79.5 0.5q-16 7 -11 25q4 17 18 8q17 -11 39.5 -5.5t25.5 25.5q2 13 -6 18.5t-20.5 3.5t-23.5 -10q-9 -6 -13 0t-5 20l-1 15q0 3 8 11.5t19.5 24t17.5 32.5h57q-9 -28 -32 -47z" />
<glyph unicode="&#xb9;" horiz-adv-x="134" d="M90 576q4 12 30 6.5t21 -22.5q-31 -105 -61 -246q-4 -21 -30 -12q-18 6 -18 15q1 1 1 2q12 31 57 219q-8 -27 -37 -70q-7 -10 -16 5q-7 13 0 20q33 38 53 83z" />
<glyph unicode="&#xc0;" horiz-adv-x="454" d="M505 216q4 -7 -1 -15q-13 -25 -28.5 -49t-45 -63.5t-65 -64t-68.5 -24.5q-29 0 -46.5 19.5t-17.5 52.5q0 14 4 33q-69 -105 -140 -105q-40 0 -64 38t-26 111.5t28 179.5q41 143 114.5 226t143.5 83q87 0 69 -138q22 48 34 71q17 35 59 27q34 -6 43 -29q3 -11 -1 -20 q-69 -153 -110 -294t-8 -141q38 0 103 104q4 7 11.5 6.5t11.5 -8.5zM144 110q23 -13 63 42.5t75 147.5q34 91 42 164t-15 86t-63.5 -43t-74.5 -147t-42 -164t15 -86zM318 816q9 -41 28 -72.5t38 -43.5q11 -6 -9 -22q-19 -14 -32 -10q-22 7 -54 44.5t-32 53.5q0 28 30 50 q26 17 31 0z" />
<glyph unicode="&#xc1;" horiz-adv-x="454" d="M505 216q4 -7 -1 -15q-13 -25 -28.5 -49t-45 -63.5t-65 -64t-68.5 -24.5q-29 0 -46.5 19.5t-17.5 52.5q0 14 4 33q-69 -105 -140 -105q-40 0 -64 38t-26 111.5t28 179.5q41 143 114.5 226t143.5 83q87 0 69 -138q22 48 34 71q17 35 59 27q34 -6 43 -29q3 -11 -1 -20 q-69 -153 -110 -294t-8 -141q38 0 103 104q4 7 11.5 6.5t11.5 -8.5zM144 110q23 -13 63 42.5t75 147.5q34 91 42 164t-15 86t-63.5 -43t-74.5 -147t-42 -164t15 -86zM356 816q4 19 29 1q29 -23 32 -51q0 -16 -32 -53.5t-54 -44.5q-16 -6 -36 14q-14 13 -5 18q19 12 38 43.5 t28 72.5z" />
<glyph unicode="&#xc2;" horiz-adv-x="454" d="M505 216q4 -7 -1 -15q-13 -25 -28.5 -49t-45 -63.5t-65 -64t-68.5 -24.5q-29 0 -46.5 19.5t-17.5 52.5q0 14 4 33q-69 -105 -140 -105q-40 0 -64 38t-26 111.5t28 179.5q41 143 114.5 226t143.5 83q87 0 69 -138q22 48 34 71q17 35 59 27q34 -6 43 -29q3 -11 -1 -20 q-69 -153 -110 -294t-8 -141q38 0 103 104q4 7 11.5 6.5t11.5 -8.5zM144 110q23 -13 63 42.5t75 147.5q34 91 42 164t-15 86t-63.5 -43t-74.5 -147t-42 -164t15 -86zM447 723q7 -4 -2 -16.5t-23 -23t-20 -10.5q-25 0 -58 55q-49 -49 -64 -49q-10 0 -21 8t-14 16.5t4 14.5 q55 33 109 96q9 8 19 0.5t13 -20.5q4 -17 22.5 -40t34.5 -31z" />
<glyph unicode="&#xc3;" horiz-adv-x="454" d="M505 216q4 -7 -1 -15q-13 -25 -28.5 -49t-45 -63.5t-65 -64t-68.5 -24.5q-29 0 -46.5 19.5t-17.5 52.5q0 14 4 33q-69 -105 -140 -105q-40 0 -64 38t-26 111.5t28 179.5q41 143 114.5 226t143.5 83q87 0 69 -138q22 48 34 71q17 35 59 27q34 -6 43 -29q3 -11 -1 -20 q-69 -153 -110 -294t-8 -141q38 0 103 104q4 7 11.5 6.5t11.5 -8.5zM144 110q23 -13 63 42.5t75 147.5q34 91 42 164t-15 86t-63.5 -43t-74.5 -147t-42 -164t15 -86zM442 781q0 9 10 5q7 -3 8 -9q0 -18 -16.5 -47t-46.5 -27q-17 1 -48.5 10t-58.5 13q-15 2 -28 -3.5 t-13 -17.5q0 -8 -9 -4q-6 5 -6 10q4 26 15.5 42t25 22.5t36.5 6t38.5 -3.5t41.5 -9q17 -5 28.5 -3.5t17 6t5.5 9.5z" />
<glyph unicode="&#xc4;" horiz-adv-x="454" d="M505 216q4 -7 -1 -15q-13 -25 -28.5 -49t-45 -63.5t-65 -64t-68.5 -24.5q-29 0 -46.5 19.5t-17.5 52.5q0 14 4 33q-69 -105 -140 -105q-40 0 -64 38t-26 111.5t28 179.5q41 143 114.5 226t143.5 83q87 0 69 -138q22 48 34 71q17 35 59 27q34 -6 43 -29q3 -11 -1 -20 q-69 -153 -110 -294t-8 -141q38 0 103 104q4 7 11.5 6.5t11.5 -8.5zM144 110q23 -13 63 42.5t75 147.5q34 91 42 164t-15 86t-63.5 -43t-74.5 -147t-42 -164t15 -86zM334 744q-5 -22 -23.5 -36.5t-38.5 -14.5t-30.5 14.5t-6.5 36.5q5 21 23.5 36t38.5 15t31 -15t6 -36z M458 744q-5 -22 -23 -36.5t-39 -14.5q-20 0 -30.5 14.5t-5.5 36.5q4 21 22.5 36t38.5 15t31 -15t6 -36z" />
<glyph unicode="&#xc5;" horiz-adv-x="454" d="M505 216q4 -7 -1 -15q-13 -25 -28.5 -49t-45 -63.5t-65 -64t-68.5 -24.5q-29 0 -46.5 19.5t-17.5 52.5q0 14 4 33q-69 -105 -140 -105q-40 0 -64 38t-26 111.5t28 179.5q41 143 114.5 226t143.5 83q87 0 69 -138q22 48 34 71q17 35 59 27q34 -6 43 -29q3 -11 -1 -20 q-69 -153 -110 -294t-8 -141q38 0 103 104q4 7 11.5 6.5t11.5 -8.5zM144 110q23 -13 63 42.5t75 147.5q34 91 42 164t-15 86t-63.5 -43t-74.5 -147t-42 -164t15 -86zM375 822q31 0 47.5 -23t8.5 -55t-35.5 -55t-58.5 -23t-47.5 23t-8.5 55t35.5 55t58.5 23zM381 738 q8 25 6.5 44t-12.5 21q-10 2 -23 -13.5t-21 -40.5t-6.5 -44t12.5 -21t24 13.5t20 40.5z" />
<glyph unicode="&#xc6;" horiz-adv-x="914" d="M505 216q4 -7 -1 -15q-13 -25 -28.5 -49t-45 -63.5t-65 -64t-68.5 -24.5q-29 0 -46.5 19.5t-17.5 52.5q0 14 4 33q-69 -105 -140 -105q-40 0 -64 38t-26 111.5t28 179.5q41 143 114.5 226t143.5 83q87 0 69 -138q22 48 34 71q17 35 59 27q34 -6 43 -29q3 -11 -1 -20 q-69 -153 -110 -294t-8 -141q38 0 103 104q4 7 11.5 6.5t11.5 -8.5zM144 110q23 -13 63 42.5t75 147.5q34 91 42 164t-15 86t-63.5 -43t-74.5 -147t-42 -164t15 -86zM748 619q46 0 74 -22.5t35.5 -57.5t1.5 -76.5t-25 -81.5q-10 -21 -36 -24.5t-46 11.5t-15 39 q4 20 12.5 47.5t15.5 47.5t12 39t4 29t-9 10q-36 0 -96 -72t-60 -140q0 -55 78 -55q11 0 14 -11q3 -13 -19 -20q-3 -1 -7 -2l-17 -3q-8 -2 -24 -2q-30 0 -68 -44t-38 -94q0 -33 20 -53.5t47 -20.5q45 0 89.5 51t54.5 126q3 21 29 12q28 -11 37 -40q4 -13 0 -27 q-16 -64 -85 -124.5t-157 -60.5q-62 0 -105.5 39.5t-43.5 97.5q0 75 49 122t103 47q-49 33 -49 91q0 83 71.5 152.5t152.5 69.5z" />
<glyph unicode="&#xc7;" horiz-adv-x="417" d="M308 666q65 0 96 -41t28 -98.5t-31 -116.5q-11 -23 -39 -26.5t-49 12.5t-16 42q4 22 13 51t16.5 51t13 42t4 31t-10.5 11q-21 0 -56.5 -36.5t-70.5 -93t-60.5 -137.5t-25.5 -158q0 -131 67 -131q34 0 68 51.5t62 138.5q7 22 31 12q26 -12 31 -45q1 -13 -2 -26 q-16 -68 -68 -130t-123 -68q-10 -17 -24 -29q25 5 44.5 -11.5t14.5 -46.5q-8 -46 -52.5 -63.5t-79.5 0.5q-16 7 -11 25q4 17 18 8q17 -11 39.5 -5.5t25.5 25.5q2 13 -6 18.5t-20.5 3.5t-23.5 -10q-9 -6 -13 0t-5 20l-1 15q0 3 6.5 9.5t16.5 18.5t16 24q-131 24 -131 207 q0 108 47.5 215.5t119.5 174t141 66.5z" />
<glyph unicode="&#xc8;" horiz-adv-x="460" d="M352 666q65 0 95.5 -41t27.5 -98.5t-31 -116.5q-11 -23 -39 -26.5t-49 12.5t-16 42q4 22 13 51t16.5 51t13 42t4.5 31t-10 11q-38 0 -102.5 -77.5t-64.5 -150.5q0 -59 83 -59q12 0 16 -11q4 -15 -23 -24q-2 0 -5 -1q-1 0 -19 -3q-8 -2 -25 -2q-33 0 -73.5 -47.5 t-40.5 -101.5q0 -35 21 -57t51 -22q48 0 96 55t59 135q3 22 29 13q29 -9 40 -39q6 -17 2 -33q-17 -69 -91.5 -134t-169.5 -65q-67 0 -113.5 42.5t-46.5 104.5q0 81 52.5 131.5t110.5 50.5q-52 36 -52 98q0 90 77 164.5t164 74.5zM341 876q9 -41 28 -72.5t38 -43.5 q11 -6 -9 -22q-19 -14 -32 -10q-22 7 -54 44.5t-32 53.5q0 28 30 50q26 17 31 0z" />
<glyph unicode="&#xc9;" horiz-adv-x="460" d="M352 666q65 0 95.5 -41t27.5 -98.5t-31 -116.5q-11 -23 -39 -26.5t-49 12.5t-16 42q4 22 13 51t16.5 51t13 42t4.5 31t-10 11q-38 0 -102.5 -77.5t-64.5 -150.5q0 -59 83 -59q12 0 16 -11q4 -15 -23 -24q-2 0 -5 -1q-1 0 -19 -3q-8 -2 -25 -2q-33 0 -73.5 -47.5 t-40.5 -101.5q0 -35 21 -57t51 -22q48 0 96 55t59 135q3 22 29 13q29 -9 40 -39q6 -17 2 -33q-17 -69 -91.5 -134t-169.5 -65q-67 0 -113.5 42.5t-46.5 104.5q0 81 52.5 131.5t110.5 50.5q-52 36 -52 98q0 90 77 164.5t164 74.5zM419 876q4 19 29 1q29 -23 32 -51 q0 -16 -32 -53.5t-54 -44.5q-16 -6 -36 14q-14 13 -5 18q19 12 38 43.5t28 72.5z" />
<glyph unicode="&#xca;" horiz-adv-x="460" d="M352 666q65 0 95.5 -41t27.5 -98.5t-31 -116.5q-11 -23 -39 -26.5t-49 12.5t-16 42q4 22 13 51t16.5 51t13 42t4.5 31t-10 11q-38 0 -102.5 -77.5t-64.5 -150.5q0 -59 83 -59q12 0 16 -11q4 -15 -23 -24q-2 0 -5 -1q-1 0 -19 -3q-8 -2 -25 -2q-33 0 -73.5 -47.5 t-40.5 -101.5q0 -35 21 -57t51 -22q48 0 96 55t59 135q3 22 29 13q29 -9 40 -39q6 -17 2 -33q-17 -69 -91.5 -134t-169.5 -65q-67 0 -113.5 42.5t-46.5 104.5q0 81 52.5 131.5t110.5 50.5q-52 36 -52 98q0 90 77 164.5t164 74.5zM480 783q7 -4 -2 -16.5t-23 -23t-20 -10.5 q-25 0 -58 55q-49 -49 -64 -49q-10 0 -21 8t-14 16.5t4 14.5q55 33 109 96q9 8 19 0.5t13 -20.5q4 -17 22.5 -40t34.5 -31z" />
<glyph unicode="&#xcb;" horiz-adv-x="460" d="M352 666q65 0 95.5 -41t27.5 -98.5t-31 -116.5q-11 -23 -39 -26.5t-49 12.5t-16 42q4 22 13 51t16.5 51t13 42t4.5 31t-10 11q-38 0 -102.5 -77.5t-64.5 -150.5q0 -59 83 -59q12 0 16 -11q4 -15 -23 -24q-2 0 -5 -1q-1 0 -19 -3q-8 -2 -25 -2q-33 0 -73.5 -47.5 t-40.5 -101.5q0 -35 21 -57t51 -22q48 0 96 55t59 135q3 22 29 13q29 -9 40 -39q6 -17 2 -33q-17 -69 -91.5 -134t-169.5 -65q-67 0 -113.5 42.5t-46.5 104.5q0 81 52.5 131.5t110.5 50.5q-52 36 -52 98q0 90 77 164.5t164 74.5zM367 804q-5 -22 -23.5 -36.5t-38.5 -14.5 t-30.5 14.5t-6.5 36.5q5 21 23.5 36t38.5 15t31 -15t6 -36zM491 804q-5 -22 -23 -36.5t-39 -14.5q-20 0 -30.5 14.5t-5.5 36.5q4 21 22.5 36t38.5 15t31 -15t6 -36z" />
<glyph unicode="&#xcc;" horiz-adv-x="314" d="M298 664q24 17 56 -16t21 -61q-42 -101 -100.5 -301t-68.5 -264q-4 -26 -36 -21q-36 5 -52 37q-7 14 -7 29q0 39 60 239.5t109 326.5q-22 13 -40.5 -6.5t-44 -71.5t-39.5 -72q-17 -20 -39 -17.5t-37.5 25t-6.5 46.5q22 59 56 100t78.5 53.5t90.5 -26.5zM328 876 q9 -41 28 -72.5t38 -43.5q11 -6 -9 -22q-19 -14 -32 -10q-22 7 -54 44.5t-32 53.5q0 28 30 50q26 17 31 0z" />
<glyph unicode="&#xcd;" horiz-adv-x="314" d="M298 664q24 17 56 -16t21 -61q-42 -101 -100.5 -301t-68.5 -264q-4 -26 -36 -21q-36 5 -52 37q-7 14 -7 29q0 39 60 239.5t109 326.5q-22 13 -40.5 -6.5t-44 -71.5t-39.5 -72q-17 -20 -39 -17.5t-37.5 25t-6.5 46.5q22 59 56 100t78.5 53.5t90.5 -26.5zM366 876 q4 19 29 1q29 -23 32 -51q0 -16 -32 -53.5t-54 -44.5q-16 -6 -36 14q-14 13 -5 18q19 12 38 43.5t28 72.5z" />
<glyph unicode="&#xce;" horiz-adv-x="314" d="M298 664q24 17 56 -16t21 -61q-42 -101 -100.5 -301t-68.5 -264q-4 -26 -36 -21q-36 5 -52 37q-7 14 -7 29q0 39 60 239.5t109 326.5q-22 13 -40.5 -6.5t-44 -71.5t-39.5 -72q-17 -20 -39 -17.5t-37.5 25t-6.5 46.5q22 59 56 100t78.5 53.5t90.5 -26.5zM427 783 q7 -4 -2 -16.5t-23 -23t-20 -10.5q-25 0 -58 55q-49 -49 -64 -49q-10 0 -21 8t-14 16.5t4 14.5q55 33 109 96q9 8 19 0.5t13 -20.5q4 -17 22.5 -40t34.5 -31z" />
<glyph unicode="&#xcf;" horiz-adv-x="314" d="M298 664q24 17 56 -16t21 -61q-42 -101 -100.5 -301t-68.5 -264q-4 -26 -36 -21q-36 5 -52 37q-7 14 -7 29q0 39 60 239.5t109 326.5q-22 13 -40.5 -6.5t-44 -71.5t-39.5 -72q-17 -20 -39 -17.5t-37.5 25t-6.5 46.5q22 59 56 100t78.5 53.5t90.5 -26.5zM334 804 q-5 -22 -23.5 -36.5t-38.5 -14.5t-30.5 14.5t-6.5 36.5q5 21 23.5 36t38.5 15t31 -15t6 -36zM458 804q-5 -22 -23 -36.5t-39 -14.5q-20 0 -30.5 14.5t-5.5 36.5q4 21 22.5 36t38.5 15t31 -15t6 -36z" />
<glyph unicode="&#xd0;" horiz-adv-x="594" d="M368 668q96 0 160 -60.5t64 -172.5q0 -70 -17 -139t-46.5 -124.5t-68.5 -102t-82.5 -71.5t-88.5 -32.5t-88 15.5q-17 8 -20 31q-30 19 -30 55q0 35 29 146q-48 4 -68 6q-27 3 -20 33q7 29 30 39q4 2 9 2q38 3 73 3q38 125 87 245q15 36 58 28q33 -6 43 -29q4 -10 0 -20 q-46 -117 -78 -225q27 -1 61 -5q22 -2 17 -33q-6 -33 -30 -44q-6 -3 -12 -3q-17 -1 -61 -1q-29 -109 -40 -168q6 -16 19 -16q42 0 91.5 68.5t83.5 171.5t34 194q0 79 -29.5 118.5t-83.5 39.5q-79 0 -147 -83.5t-68 -151.5q0 -20 -21 -22q-29 -1 -46 29q-12 21 -12 48 q0 29 20.5 67t56 75.5t94.5 63t127 25.5z" />
<glyph unicode="&#xd1;" horiz-adv-x="632" d="M680 216q4 -7 -1 -15q-114 -201 -207 -201q-30 0 -49.5 19.5t-19.5 52.5q0 61 112 411q28 84 30 99q2 27 -20 27q-32 0 -85 -84.5t-87 -171.5q-57 -182 -95 -331q-5 -21 -30 -22t-47.5 18.5t-22.5 48.5q0 16 6 42.5t18.5 68t25.5 81t35 105.5t38 118q29 96 26 119 q-4 19 -20 20q-42 0 -90 -89t-48 -153q0 -20 -21 -22q-29 -1 -46 29q-12 21 -12 48q0 22 9.5 52t28.5 61.5t44.5 58.5t60.5 44.5t72 17.5q53 0 82.5 -30t33.5 -80q63 110 143 110q66 0 90 -60.5t-3 -147.5q-4 -13 -13.5 -44.5t-18.5 -60.5t-19.5 -65.5t-18 -66t-12 -55 t-3.5 -40t8 -14.5q38 0 103 104q4 7 11.5 6.5t11.5 -8.5zM611 841q0 9 10 5q7 -3 8 -9q0 -18 -16.5 -47t-46.5 -27q-17 1 -48.5 10t-58.5 13q-15 2 -28 -3.5t-13 -17.5q0 -8 -9 -4q-6 5 -6 10q4 26 15.5 42t25 22.5t36.5 6t38.5 -3.5t41.5 -9q17 -5 28.5 -3.5t17 6t5.5 9.5z " />
<glyph unicode="&#xd2;" horiz-adv-x="473" d="M272 663q40 0 42 -25q1 -17 -12 -24q-3 -1 -6 -1q-31 0 -75 -66t-77.5 -171.5t-33.5 -201.5q0 -54 18.5 -79.5t46.5 -25.5q41 0 92 74.5t87.5 187.5t36.5 212q0 23 -7.5 39t-19.5 16q-26 0 -38 -61.5t-10 -124.5q1 -27 -25 -32q-26 -4 -40 19q-6 10 -7 23q-3 97 30 156.5 t104 59.5q53 0 83 -42.5t30 -109.5q0 -95 -41 -206t-120 -195.5t-170 -84.5q-67 0 -113.5 52.5t-46.5 150.5q0 89 30 176.5t73 148t89 98t80 37.5zM327 876q9 -41 28 -72.5t38 -43.5q11 -6 -9 -22q-19 -14 -32 -10q-22 7 -54 44.5t-32 53.5q0 28 30 50q26 17 31 0z" />
<glyph unicode="&#xd3;" horiz-adv-x="473" d="M272 663q40 0 42 -25q1 -17 -12 -24q-3 -1 -6 -1q-31 0 -75 -66t-77.5 -171.5t-33.5 -201.5q0 -54 18.5 -79.5t46.5 -25.5q41 0 92 74.5t87.5 187.5t36.5 212q0 23 -7.5 39t-19.5 16q-26 0 -38 -61.5t-10 -124.5q1 -27 -25 -32q-26 -4 -40 19q-6 10 -7 23q-3 97 30 156.5 t104 59.5q53 0 83 -42.5t30 -109.5q0 -95 -41 -206t-120 -195.5t-170 -84.5q-67 0 -113.5 52.5t-46.5 150.5q0 89 30 176.5t73 148t89 98t80 37.5zM345 876q4 19 29 1q29 -23 32 -51q0 -16 -32 -53.5t-54 -44.5q-16 -6 -36 14q-14 13 -5 18q19 12 38 43.5t28 72.5z" />
<glyph unicode="&#xd4;" horiz-adv-x="473" d="M272 663q40 0 42 -25q1 -17 -12 -24q-3 -1 -6 -1q-31 0 -75 -66t-77.5 -171.5t-33.5 -201.5q0 -54 18.5 -79.5t46.5 -25.5q41 0 92 74.5t87.5 187.5t36.5 212q0 23 -7.5 39t-19.5 16q-26 0 -38 -61.5t-10 -124.5q1 -27 -25 -32q-26 -4 -40 19q-6 10 -7 23q-3 97 30 156.5 t104 59.5q53 0 83 -42.5t30 -109.5q0 -95 -41 -206t-120 -195.5t-170 -84.5q-67 0 -113.5 52.5t-46.5 150.5q0 89 30 176.5t73 148t89 98t80 37.5zM436 783q7 -4 -2 -16.5t-23 -23t-20 -10.5q-25 0 -58 55q-49 -49 -64 -49q-10 0 -21 8t-14 16.5t4 14.5q55 33 109 96 q9 8 19 0.5t13 -20.5q4 -17 22.5 -40t34.5 -31z" />
<glyph unicode="&#xd5;" horiz-adv-x="473" d="M272 663q40 0 42 -25q1 -17 -12 -24q-3 -1 -6 -1q-31 0 -75 -66t-77.5 -171.5t-33.5 -201.5q0 -54 18.5 -79.5t46.5 -25.5q41 0 92 74.5t87.5 187.5t36.5 212q0 23 -7.5 39t-19.5 16q-26 0 -38 -61.5t-10 -124.5q1 -27 -25 -32q-26 -4 -40 19q-6 10 -7 23q-3 97 30 156.5 t104 59.5q53 0 83 -42.5t30 -109.5q0 -95 -41 -206t-120 -195.5t-170 -84.5q-67 0 -113.5 52.5t-46.5 150.5q0 89 30 176.5t73 148t89 98t80 37.5zM432 841q0 9 10 5q7 -3 8 -9q0 -18 -16.5 -47t-46.5 -27q-17 1 -48.5 10t-58.5 13q-15 2 -28 -3.5t-13 -17.5q0 -8 -9 -4 q-6 5 -6 10q4 26 15.5 42t25 22.5t36.5 6t38.5 -3.5t41.5 -9q17 -5 28.5 -3.5t17 6t5.5 9.5z" />
<glyph unicode="&#xd6;" horiz-adv-x="473" d="M272 663q40 0 42 -25q1 -17 -12 -24q-3 -1 -6 -1q-31 0 -75 -66t-77.5 -171.5t-33.5 -201.5q0 -54 18.5 -79.5t46.5 -25.5q41 0 92 74.5t87.5 187.5t36.5 212q0 23 -7.5 39t-19.5 16q-26 0 -38 -61.5t-10 -124.5q1 -27 -25 -32q-26 -4 -40 19q-6 10 -7 23q-3 97 30 156.5 t104 59.5q53 0 83 -42.5t30 -109.5q0 -95 -41 -206t-120 -195.5t-170 -84.5q-67 0 -113.5 52.5t-46.5 150.5q0 89 30 176.5t73 148t89 98t80 37.5zM323 804q-5 -22 -23.5 -36.5t-38.5 -14.5t-30.5 14.5t-6.5 36.5q5 21 23.5 36t38.5 15t31 -15t6 -36zM447 804 q-5 -22 -23 -36.5t-39 -14.5q-20 0 -30.5 14.5t-5.5 36.5q4 21 22.5 36t38.5 15t31 -15t6 -36z" />
<glyph unicode="&#xd8;" horiz-adv-x="473" d="M431 623q60 -37 60 -138q0 -95 -41 -206t-120 -195.5t-170 -84.5q-19 0 -39 5l-24 -48q-11 -22 -25.5 -24t-22 11.5t-0.5 29.5q1 1 4 8.5t8.5 20t10.5 25.5q-72 55 -72 175q0 89 30 176.5t73 148t89 98t80 37.5q40 0 42 -25q1 -17 -12 -24q-3 -1 -6 -1q-31 0 -75 -66 t-77.5 -171.5t-33.5 -201.5q0 -20 4 -46q257 606 261 614q8 18 23 23.5t28.5 -1t25.5 -18t16 -26t-1 -25.5q-4 -7 -36 -71zM175 68q41 0 92 74.5t87.5 187.5t36.5 212v2q-36 -72 -121 -241t-116 -231q9 -4 21 -4z" />
<glyph unicode="&#xd9;" horiz-adv-x="631" d="M682 216q4 -7 -1 -15q-13 -25 -28.5 -49t-45 -63.5t-65 -64t-68.5 -24.5q-58 0 -58 72q0 25 4 48q-70 -120 -137 -120q-32 0 -54 12t-31.5 34.5t-13.5 50t1 63.5t12 68.5t19 72.5t21.5 68.5t21.5 62.5t17 50q27 90 29 102q5 37 -18 37q-42 0 -90 -89t-48 -153 q0 -20 -21 -22q-29 -1 -46 29q-12 21 -12 48q0 22 9.5 52t28.5 61.5t44.5 58.5t60.5 44.5t72 17.5q76 0 104 -60.5t-2 -146.5q-4 -12 -26 -77.5t-33 -103.5t-23.5 -89.5t-9.5 -77.5t21 -26q22 0 53 42.5t62 110t52.5 119.5t40.5 103v2l1 2q26 72 42 106q11 27 38.5 29.5 t48 -14t14.5 -36.5q-3 -11 -18 -44t-39 -95t-47 -143q-11 -38 -16 -58t-9.5 -46.5t0.5 -38.5t18 -12q37 0 102 104q4 7 11.5 6.5t11.5 -8.5zM506 876q9 -41 28 -72.5t38 -43.5q11 -6 -9 -22q-19 -15 -32 -10q-22 7 -54 44.5t-32 53.5q0 28 30 50q26 17 31 0z" />
<glyph unicode="&#xda;" horiz-adv-x="631" d="M682 216q4 -7 -1 -15q-13 -25 -28.5 -49t-45 -63.5t-65 -64t-68.5 -24.5q-58 0 -58 72q0 25 4 48q-70 -120 -137 -120q-32 0 -54 12t-31.5 34.5t-13.5 50t1 63.5t12 68.5t19 72.5t21.5 68.5t21.5 62.5t17 50q27 90 29 102q5 37 -18 37q-42 0 -90 -89t-48 -153 q0 -20 -21 -22q-29 -1 -46 29q-12 21 -12 48q0 22 9.5 52t28.5 61.5t44.5 58.5t60.5 44.5t72 17.5q76 0 104 -60.5t-2 -146.5q-4 -12 -26 -77.5t-33 -103.5t-23.5 -89.5t-9.5 -77.5t21 -26q22 0 53 42.5t62 110t52.5 119.5t40.5 103v2l1 2q26 72 42 106q11 27 38.5 29.5 t48 -14t14.5 -36.5q-3 -11 -18 -44t-39 -95t-47 -143q-11 -38 -16 -58t-9.5 -46.5t0.5 -38.5t18 -12q37 0 102 104q4 7 11.5 6.5t11.5 -8.5zM524 876q4 19 29 1q29 -23 32 -51q0 -16 -32 -53.5t-54 -44.5q-16 -6 -36 14q-14 13 -5 18q19 12 38 43.5t28 72.5z" />
<glyph unicode="&#xdb;" horiz-adv-x="631" d="M682 216q4 -7 -1 -15q-13 -25 -28.5 -49t-45 -63.5t-65 -64t-68.5 -24.5q-58 0 -58 72q0 25 4 48q-70 -120 -137 -120q-32 0 -54 12t-31.5 34.5t-13.5 50t1 63.5t12 68.5t19 72.5t21.5 68.5t21.5 62.5t17 50q27 90 29 102q5 37 -18 37q-42 0 -90 -89t-48 -153 q0 -20 -21 -22q-29 -1 -46 29q-12 21 -12 48q0 22 9.5 52t28.5 61.5t44.5 58.5t60.5 44.5t72 17.5q76 0 104 -60.5t-2 -146.5q-4 -12 -26 -77.5t-33 -103.5t-23.5 -89.5t-9.5 -77.5t21 -26q22 0 53 42.5t62 110t52.5 119.5t40.5 103v2l1 2q26 72 42 106q11 27 38.5 29.5 t48 -14t14.5 -36.5q-3 -11 -18 -44t-39 -95t-47 -143q-11 -38 -16 -58t-9.5 -46.5t0.5 -38.5t18 -12q37 0 102 104q4 7 11.5 6.5t11.5 -8.5zM615 783q7 -4 -2 -16.5t-23 -23t-20 -10.5q-25 0 -58 55q-49 -49 -64 -49q-10 0 -21 8t-14 16.5t4 14.5q55 33 109 96q9 8 19 0.5 t13 -20.5q4 -17 22.5 -40t34.5 -31z" />
<glyph unicode="&#xdc;" horiz-adv-x="631" d="M682 216q4 -7 -1 -15q-13 -25 -28.5 -49t-45 -63.5t-65 -64t-68.5 -24.5q-58 0 -58 72q0 25 4 48q-70 -120 -137 -120q-32 0 -54 12t-31.5 34.5t-13.5 50t1 63.5t12 68.5t19 72.5t21.5 68.5t21.5 62.5t17 50q27 90 29 102q5 37 -18 37q-42 0 -90 -89t-48 -153 q0 -20 -21 -22q-29 -1 -46 29q-12 21 -12 48q0 22 9.5 52t28.5 61.5t44.5 58.5t60.5 44.5t72 17.5q76 0 104 -60.5t-2 -146.5q-4 -12 -26 -77.5t-33 -103.5t-23.5 -89.5t-9.5 -77.5t21 -26q22 0 53 42.5t62 110t52.5 119.5t40.5 103v2l1 2q26 72 42 106q11 27 38.5 29.5 t48 -14t14.5 -36.5q-3 -11 -18 -44t-39 -95t-47 -143q-11 -38 -16 -58t-9.5 -46.5t0.5 -38.5t18 -12q37 0 102 104q4 7 11.5 6.5t11.5 -8.5zM502 804q-5 -22 -23.5 -36.5t-38.5 -14.5t-30.5 14.5t-6.5 36.5q5 21 23.5 36t38.5 15t31 -15t6 -36zM626 804q-5 -22 -23 -36.5 t-39 -14.5q-20 0 -30.5 14.5t-5.5 36.5q4 21 22.5 36t38.5 15t31 -15t6 -36z" />
<glyph unicode="&#xdd;" horiz-adv-x="624" d="M534 557q8 27 24 37t31.5 4.5t29.5 -17.5t21.5 -27.5t4.5 -25.5q-4 -13 -54.5 -219t-69.5 -266q-74 -241 -189 -241q-54 0 -102 33.5t-70 78t-10 77.5q11 29 35 32.5t43 -10t19 -27.5q0 -69 27 -103.5t57 -34.5q26 0 54.5 93.5t66.5 269.5q-72 -151 -152 -151 q-31 0 -53 10t-32.5 29.5t-16 42t-2 54.5t7.5 59t15 63.5t18 60t18.5 57t15.5 46.5q4 14 13 40t13 39.5t7 29.5t-1.5 23t-15.5 7q-42 0 -90 -89t-48 -153q0 -20 -21 -22q-29 -1 -46 29q-12 21 -12 48q0 22 9.5 52t28.5 61.5t44.5 58.5t60.5 44.5t72 17.5q76 0 104 -60.5 t-2 -146.5q-6 -18 -17 -50.5t-19.5 -58.5t-18.5 -57.5t-15 -55t-6.5 -44.5t4 -32t18.5 -11q41 0 92.5 103.5t84.5 214.5q0 1 1 3t1 3q8 32 22 81zM521 876q4 19 29 1q29 -23 32 -51q0 -16 -32 -53.5t-54 -44.5q-16 -6 -36 14q-14 13 -5 18q19 12 38 43.5t28 72.5z" />
<glyph unicode="&#xe0;" horiz-adv-x="387" d="M436 216q4 -7 -1 -15q-14 -25 -29.5 -49t-45 -63.5t-62.5 -64t-61 -24.5q-50 0 -50 72v11q-50 -83 -116 -83q-54 0 -72.5 67t11.5 180q32 110 84.5 166.5t107.5 56.5q38 0 54 -30.5t8 -68.5q15 36 24 52q14 25 40.5 27t45 -13.5t10.5 -35.5q0 -1 -9 -23t-17.5 -45 t-20 -55t-19 -59t-12.5 -51.5t-1.5 -39t14.5 -14.5q29 0 94 104q4 7 11.5 6t11.5 -8zM111 71q16 -8 44 34t51 111t28 122.5t-11 62.5q-16 8 -44 -35t-51 -111t-28 -122t11 -62zM257 646q9 -41 28 -72.5t38 -43.5q11 -6 -9 -22q-19 -14 -32 -10q-22 7 -54 44.5t-32 53.5 q0 28 30 50q26 17 31 0z" />
<glyph unicode="&#xe1;" horiz-adv-x="387" d="M436 216q4 -7 -1 -15q-14 -25 -29.5 -49t-45 -63.5t-62.5 -64t-61 -24.5q-50 0 -50 72v11q-50 -83 -116 -83q-54 0 -72.5 67t11.5 180q32 110 84.5 166.5t107.5 56.5q38 0 54 -30.5t8 -68.5q15 36 24 52q14 25 40.5 27t45 -13.5t10.5 -35.5q0 -1 -9 -23t-17.5 -45 t-20 -55t-19 -59t-12.5 -51.5t-1.5 -39t14.5 -14.5q29 0 94 104q4 7 11.5 6t11.5 -8zM111 71q16 -8 44 34t51 111t28 122.5t-11 62.5q-16 8 -44 -35t-51 -111t-28 -122t11 -62zM275 646q4 19 29 1q29 -23 32 -51q0 -16 -32 -53.5t-54 -44.5q-16 -6 -36 14q-14 13 -5 18 q19 12 38 43.5t28 72.5z" />
<glyph unicode="&#xe2;" horiz-adv-x="387" d="M436 216q4 -7 -1 -15q-14 -25 -29.5 -49t-45 -63.5t-62.5 -64t-61 -24.5q-50 0 -50 72v11q-50 -83 -116 -83q-54 0 -72.5 67t11.5 180q32 110 84.5 166.5t107.5 56.5q38 0 54 -30.5t8 -68.5q15 36 24 52q14 25 40.5 27t45 -13.5t10.5 -35.5q0 -1 -9 -23t-17.5 -45 t-20 -55t-19 -59t-12.5 -51.5t-1.5 -39t14.5 -14.5q29 0 94 104q4 7 11.5 6t11.5 -8zM111 71q16 -8 44 34t51 111t28 122.5t-11 62.5q-16 8 -44 -35t-51 -111t-28 -122t11 -62zM365 553q7 -4 -2 -16.5t-23 -23t-20 -10.5q-25 0 -58 55q-49 -49 -64 -49q-10 0 -21 8t-14 16.5 t4 14.5q55 33 109 96q9 8 19 0.5t13 -20.5q4 -17 22.5 -40t34.5 -31z" />
<glyph unicode="&#xe3;" horiz-adv-x="387" d="M436 216q4 -7 -1 -15q-14 -25 -29.5 -49t-45 -63.5t-62.5 -64t-61 -24.5q-50 0 -50 72v11q-50 -83 -116 -83q-54 0 -72.5 67t11.5 180q32 110 84.5 166.5t107.5 56.5q38 0 54 -30.5t8 -68.5q15 36 24 52q14 25 40.5 27t45 -13.5t10.5 -35.5q0 -1 -9 -23t-17.5 -45 t-20 -55t-19 -59t-12.5 -51.5t-1.5 -39t14.5 -14.5q29 0 94 104q4 7 11.5 6t11.5 -8zM111 71q16 -8 44 34t51 111t28 122.5t-11 62.5q-16 8 -44 -35t-51 -111t-28 -122t11 -62zM361 611q0 9 10 5q7 -3 8 -9q0 -18 -16.5 -47t-46.5 -27q-17 1 -48.5 10t-58.5 13 q-15 2 -28 -3.5t-13 -17.5q0 -8 -9 -4q-6 5 -6 10q4 26 15.5 42t25 22.5t36.5 6t38.5 -3.5t41.5 -9q17 -5 28.5 -3.5t17 6t5.5 9.5z" />
<glyph unicode="&#xe4;" horiz-adv-x="387" d="M436 216q4 -7 -1 -15q-14 -25 -29.5 -49t-45 -63.5t-62.5 -64t-61 -24.5q-50 0 -50 72v11q-50 -83 -116 -83q-54 0 -72.5 67t11.5 180q32 110 84.5 166.5t107.5 56.5q38 0 54 -30.5t8 -68.5q15 36 24 52q14 25 40.5 27t45 -13.5t10.5 -35.5q0 -1 -9 -23t-17.5 -45 t-20 -55t-19 -59t-12.5 -51.5t-1.5 -39t14.5 -14.5q29 0 94 104q4 7 11.5 6t11.5 -8zM111 71q16 -8 44 34t51 111t28 122.5t-11 62.5q-16 8 -44 -35t-51 -111t-28 -122t11 -62zM253 574q-5 -22 -23.5 -36.5t-38.5 -14.5t-30.5 14.5t-6.5 36.5q5 21 23.5 36t38.5 15t31 -15 t6 -36zM377 574q-5 -22 -23 -36.5t-39 -14.5q-20 0 -30.5 14.5t-5.5 36.5q4 21 22.5 36t38.5 15t31 -15t6 -36z" />
<glyph unicode="&#xe5;" horiz-adv-x="387" d="M436 216q4 -7 -1 -15q-14 -25 -29.5 -49t-45 -63.5t-62.5 -64t-61 -24.5q-50 0 -50 72v11q-50 -83 -116 -83q-54 0 -72.5 67t11.5 180q32 110 84.5 166.5t107.5 56.5q38 0 54 -30.5t8 -68.5q15 36 24 52q14 25 40.5 27t45 -13.5t10.5 -35.5q0 -1 -9 -23t-17.5 -45 t-20 -55t-19 -59t-12.5 -51.5t-1.5 -39t14.5 -14.5q29 0 94 104q4 7 11.5 6t11.5 -8zM111 71q16 -8 44 34t51 111t28 122.5t-11 62.5q-16 8 -44 -35t-51 -111t-28 -122t11 -62zM286 652q31 0 47.5 -23t8.5 -55t-35.5 -55t-58.5 -23t-47.5 23t-8.5 55t35.5 55t58.5 23z M292 568q8 25 6.5 44t-12.5 21q-10 2 -23 -13.5t-21 -40.5t-6.5 -44t12.5 -21t24 13.5t20 40.5z" />
<glyph unicode="&#xe6;" horiz-adv-x="723" d="M436 216q4 -7 -1 -15q-14 -25 -29.5 -49t-45 -63.5t-62.5 -64t-61 -24.5q-50 0 -50 72v11q-50 -83 -116 -83q-54 0 -72.5 67t11.5 180q32 110 84.5 166.5t107.5 56.5q38 0 54 -30.5t8 -68.5q15 36 24 52q14 25 40.5 27t45 -13.5t10.5 -35.5q0 -1 -9 -23t-17.5 -45 t-20 -55t-19 -59t-12.5 -51.5t-1.5 -39t14.5 -14.5q29 0 94 104q4 7 11.5 6t11.5 -8zM111 71q16 -8 44 34t51 111t28 122.5t-11 62.5q-16 8 -44 -35t-51 -111t-28 -122t11 -62zM771 216q3 -7 -1 -16q-15 -26 -25.5 -42t-37 -49.5t-50 -54t-58.5 -37.5t-70 -17 q-60 0 -101 39.5t-41 112.5q0 126 70.5 222t155.5 96q41 0 74 -32.5t33 -82.5q0 -87 -71.5 -142.5t-149.5 -28.5q-2 -20 -2 -30q0 -38 16 -61t45 -23q55 0 110.5 52t79.5 97q4 7 11.5 6t11.5 -9zM615 401q-23 0 -57 -52t-51 -118q40 -6 83.5 44.5t43.5 101.5q0 10 -5.5 17 t-13.5 7z" />
<glyph unicode="&#xe7;" d="M361 219q4 7 11.5 6t11.5 -9q4 -7 -1 -16q-15 -26 -25.5 -42t-37 -49.5t-50 -54t-58.5 -37.5t-70 -17q-60 0 -101 39.5t-41 112.5q0 126 70.5 222t155.5 96q41 0 74 -32.5t33 -82.5q0 -78 -60 -133q-10 -12 -28.5 -11.5t-32.5 17.5q-12 15 -12.5 35t10.5 34q37 51 37 80 q0 10 -5.5 17t-13.5 7q-19 0 -46.5 -36t-49.5 -96t-22 -115q0 -38 16 -61t45 -23q55 0 110.5 52t79.5 97zM132 -28q25 5 44.5 -11.5t14.5 -46.5q-8 -46 -52.5 -63.5t-79.5 0.5q-16 7 -11 25q4 17 18 8q17 -11 39.5 -5.5t25.5 25.5q2 13 -6 18.5t-20.5 3.5t-23.5 -10 q-9 -6 -13 0t-5 20l-1 15q0 3 8 11.5t19.5 24t17.5 32.5h57q-9 -28 -32 -47z" />
<glyph unicode="&#xe8;" d="M384 216q4 -7 -1 -16q-15 -26 -25.5 -42t-37 -49.5t-50 -54t-58.5 -37.5t-70 -17q-60 0 -101 39.5t-41 112.5q0 126 70.5 222t155.5 96q41 0 74 -32.5t33 -82.5q0 -87 -71.5 -142.5t-149.5 -28.5q-2 -20 -2 -30q0 -38 16 -61t45 -23q55 0 110.5 52t79.5 97q4 7 11.5 6 t11.5 -9zM228 401q-23 0 -57 -52t-51 -118q40 -6 83.5 44.5t43.5 101.5q0 10 -5.5 17t-13.5 7zM209 646q9 -41 28 -72.5t38 -43.5q11 -6 -9 -22q-19 -15 -32 -10q-22 7 -54 44.5t-32 53.5q0 28 30 50q26 17 31 0z" />
<glyph unicode="&#xe9;" d="M384 216q4 -7 -1 -16q-15 -26 -25.5 -42t-37 -49.5t-50 -54t-58.5 -37.5t-70 -17q-60 0 -101 39.5t-41 112.5q0 126 70.5 222t155.5 96q41 0 74 -32.5t33 -82.5q0 -87 -71.5 -142.5t-149.5 -28.5q-2 -20 -2 -30q0 -38 16 -61t45 -23q55 0 110.5 52t79.5 97q4 7 11.5 6 t11.5 -9zM228 401q-23 0 -57 -52t-51 -118q40 -6 83.5 44.5t43.5 101.5q0 10 -5.5 17t-13.5 7zM227 646q4 19 29 1q29 -23 32 -51q0 -16 -32 -53.5t-54 -44.5q-16 -6 -36 14q-14 13 -5 18q19 12 38 43.5t28 72.5z" />
<glyph unicode="&#xea;" d="M384 216q4 -7 -1 -16q-15 -26 -25.5 -42t-37 -49.5t-50 -54t-58.5 -37.5t-70 -17q-60 0 -101 39.5t-41 112.5q0 126 70.5 222t155.5 96q41 0 74 -32.5t33 -82.5q0 -87 -71.5 -142.5t-149.5 -28.5q-2 -20 -2 -30q0 -38 16 -61t45 -23q55 0 110.5 52t79.5 97q4 7 11.5 6 t11.5 -9zM228 401q-23 0 -57 -52t-51 -118q40 -6 83.5 44.5t43.5 101.5q0 10 -5.5 17t-13.5 7zM318 553q7 -4 -2 -16.5t-23 -23t-20 -10.5q-25 0 -58 55q-49 -49 -64 -49q-10 0 -21 8t-14 16.5t4 14.5q55 33 109 96q9 8 19 0.5t13 -20.5q4 -17 22.5 -40t34.5 -31z" />
<glyph unicode="&#xeb;" d="M384 216q4 -7 -1 -16q-15 -26 -25.5 -42t-37 -49.5t-50 -54t-58.5 -37.5t-70 -17q-60 0 -101 39.5t-41 112.5q0 126 70.5 222t155.5 96q41 0 74 -32.5t33 -82.5q0 -87 -71.5 -142.5t-149.5 -28.5q-2 -20 -2 -30q0 -38 16 -61t45 -23q55 0 110.5 52t79.5 97q4 7 11.5 6 t11.5 -9zM228 401q-23 0 -57 -52t-51 -118q40 -6 83.5 44.5t43.5 101.5q0 10 -5.5 17t-13.5 7zM205 574q-5 -22 -23.5 -36.5t-38.5 -14.5t-30.5 14.5t-6.5 36.5q5 21 23.5 36t38.5 15t31 -15t6 -36zM329 574q-5 -22 -23 -36.5t-39 -14.5q-20 0 -30.5 14.5t-5.5 36.5 q4 21 22.5 36t38.5 15t31 -15t6 -36z" />
<glyph unicode="&#xec;" horiz-adv-x="190" d="M91 423q14 25 41 27t45 -13.5t10 -35.5q0 -1 -9 -23t-17.5 -45t-20 -55t-19 -59t-12.5 -51.5t-1.5 -39t14.5 -14.5q29 0 94 104q4 7 11.5 6t11.5 -8t-1 -15q-12 -22 -29 -48.5t-45.5 -64.5t-61.5 -63t-62 -25q-50 0 -50 72q0 71 36.5 185.5t64.5 165.5zM156 646 q9 -41 28 -72.5t38 -43.5q11 -6 -9 -22q-19 -15 -32 -10q-22 7 -54 44.5t-32 53.5q0 28 30 50q26 17 31 0z" />
<glyph unicode="&#xed;" horiz-adv-x="190" d="M91 423q14 25 41 27t45 -13.5t10 -35.5q0 -1 -9 -23t-17.5 -45t-20 -55t-19 -59t-12.5 -51.5t-1.5 -39t14.5 -14.5q29 0 94 104q4 7 11.5 6t11.5 -8t-1 -15q-12 -22 -29 -48.5t-45.5 -64.5t-61.5 -63t-62 -25q-50 0 -50 72q0 71 36.5 185.5t64.5 165.5zM174 646 q4 19 29 1q29 -23 32 -51q0 -16 -32 -53.5t-54 -44.5q-16 -6 -36 14q-14 13 -5 18q19 12 38 43.5t28 72.5z" />
<glyph unicode="&#xee;" horiz-adv-x="190" d="M91 423q14 25 41 27t45 -13.5t10 -35.5q0 -1 -9 -23t-17.5 -45t-20 -55t-19 -59t-12.5 -51.5t-1.5 -39t14.5 -14.5q29 0 94 104q4 7 11.5 6t11.5 -8t-1 -15q-12 -22 -29 -48.5t-45.5 -64.5t-61.5 -63t-62 -25q-50 0 -50 72q0 71 36.5 185.5t64.5 165.5zM265 553 q7 -4 -2 -16.5t-23 -23t-20 -10.5q-25 0 -58 55q-49 -49 -64 -49q-10 0 -21 8t-14 16.5t4 14.5q55 33 109 96q9 8 19 0.5t13 -20.5q4 -17 22.5 -40t34.5 -31z" />
<glyph unicode="&#xef;" horiz-adv-x="190" d="M91 423q14 25 41 27t45 -13.5t10 -35.5q0 -1 -9 -23t-17.5 -45t-20 -55t-19 -59t-12.5 -51.5t-1.5 -39t14.5 -14.5q29 0 94 104q4 7 11.5 6t11.5 -8t-1 -15q-12 -22 -29 -48.5t-45.5 -64.5t-61.5 -63t-62 -25q-50 0 -50 72q0 71 36.5 185.5t64.5 165.5zM152 574 q-5 -22 -23.5 -36.5t-38.5 -14.5t-30.5 14.5t-6.5 36.5q5 21 23.5 36t38.5 15t31 -15t6 -36zM276 574q-5 -22 -23 -36.5t-39 -14.5q-20 0 -30.5 14.5t-5.5 36.5q4 21 22.5 36t38.5 15t31 -15t6 -36z" />
<glyph unicode="&#xf1;" horiz-adv-x="379" d="M427 216q3 -7 0 -15q-14 -25 -29.5 -49t-45 -63.5t-62.5 -64t-62 -24.5q-50 0 -50 72q0 53 53 226q3 10 5 19t3.5 20t0.5 17.5t-6 6.5q-19 0 -55.5 -53.5t-56.5 -109.5q-33 -123 -42 -176q-4 -26 -35 -22q-33 5 -49 38q-6 13 -6 29q0 40 37 174.5t60 181.5q13 26 40 28 t45.5 -14t10.5 -36q-2 -5 -13 -38q64 107 126 107q29 0 45 -22t16.5 -51.5t-7.5 -58.5q-51 -152 -54 -192q-2 -32 15 -32q29 0 94 104q4 7 11.5 6t10.5 -8zM335 611q0 9 10 5q7 -3 8 -9q0 -18 -16.5 -47t-46.5 -27q-17 1 -48.5 10t-58.5 13q-15 2 -28 -3.5t-13 -17.5 q0 -8 -9 -4q-6 5 -6 10q4 26 15.5 42t25 22.5t36.5 6t38.5 -3.5t41.5 -9q17 -5 28.5 -3.5t17 6t5.5 9.5z" />
<glyph unicode="&#xf2;" horiz-adv-x="347" d="M455 335q5 -12 -5 -21q-67 -51 -128 -69q-5 -18 -7 -23q-37 -110 -92.5 -166t-111.5 -56q-54 0 -82.5 36t-28.5 105q0 96 42 190.5t90 116.5q27 11 48 -25q35 47 86 47q46 0 65 -51t1 -135q54 18 101 58q5 5 12 2.5t10 -9.5zM223 399q-14 7 -24 -4.5t-10 -31.5 q0 -59 42 -81q9 45 6.5 78t-14.5 39zM215 225q2 4 7 19q-58 23 -67 87q-15 -29 -31 -70q-24 -60 -30 -117.5t13 -69.5q21 -10 51.5 34t56.5 117zM214 646q9 -41 28 -72.5t38 -43.5q11 -6 -9 -22q-19 -15 -32 -10q-22 7 -54 44.5t-32 53.5q0 28 30 50q26 17 31 0z" />
<glyph unicode="&#xf3;" horiz-adv-x="347" d="M455 335q5 -12 -5 -21q-67 -51 -128 -69q-5 -18 -7 -23q-37 -110 -92.5 -166t-111.5 -56q-54 0 -82.5 36t-28.5 105q0 96 42 190.5t90 116.5q27 11 48 -25q35 47 86 47q46 0 65 -51t1 -135q54 18 101 58q5 5 12 2.5t10 -9.5zM223 399q-14 7 -24 -4.5t-10 -31.5 q0 -59 42 -81q9 45 6.5 78t-14.5 39zM215 225q2 4 7 19q-58 23 -67 87q-15 -29 -31 -70q-24 -60 -30 -117.5t13 -69.5q21 -10 51.5 34t56.5 117zM232 646q4 19 29 1q29 -23 32 -51q0 -16 -32 -53.5t-54 -44.5q-16 -6 -36 14q-14 13 -5 18q19 12 38 43.5t28 72.5z" />
<glyph unicode="&#xf4;" horiz-adv-x="347" d="M455 335q5 -12 -5 -21q-67 -51 -128 -69q-5 -18 -7 -23q-37 -110 -92.5 -166t-111.5 -56q-54 0 -82.5 36t-28.5 105q0 96 42 190.5t90 116.5q27 11 48 -25q35 47 86 47q46 0 65 -51t1 -135q54 18 101 58q5 5 12 2.5t10 -9.5zM223 399q-14 7 -24 -4.5t-10 -31.5 q0 -59 42 -81q9 45 6.5 78t-14.5 39zM215 225q2 4 7 19q-58 23 -67 87q-15 -29 -31 -70q-24 -60 -30 -117.5t13 -69.5q21 -10 51.5 34t56.5 117zM323 553q7 -4 -2 -16.5t-23 -23t-20 -10.5q-25 0 -58 55q-49 -49 -64 -49q-10 0 -21 8t-14 16.5t4 14.5q55 33 109 96 q9 8 19 0.5t13 -20.5q4 -17 22.5 -40t34.5 -31z" />
<glyph unicode="&#xf5;" horiz-adv-x="347" d="M455 335q5 -12 -5 -21q-67 -51 -128 -69q-5 -18 -7 -23q-37 -110 -92.5 -166t-111.5 -56q-54 0 -82.5 36t-28.5 105q0 96 42 190.5t90 116.5q27 11 48 -25q35 47 86 47q46 0 65 -51t1 -135q54 18 101 58q5 5 12 2.5t10 -9.5zM223 399q-14 7 -24 -4.5t-10 -31.5 q0 -59 42 -81q9 45 6.5 78t-14.5 39zM215 225q2 4 7 19q-58 23 -67 87q-15 -29 -31 -70q-24 -60 -30 -117.5t13 -69.5q21 -10 51.5 34t56.5 117zM319 611q0 9 10 5q7 -3 8 -9q0 -18 -16.5 -47t-46.5 -27q-17 1 -48.5 10t-58.5 13q-15 2 -28 -3.5t-13 -17.5q0 -8 -9 -4 q-6 5 -6 10q4 26 15.5 42t25 22.5t36.5 6t38.5 -3.5t41.5 -9q17 -5 28.5 -3.5t17 6t5.5 9.5z" />
<glyph unicode="&#xf6;" horiz-adv-x="347" d="M455 335q5 -12 -5 -21q-67 -51 -128 -69q-5 -18 -7 -23q-37 -110 -92.5 -166t-111.5 -56q-54 0 -82.5 36t-28.5 105q0 96 42 190.5t90 116.5q27 11 48 -25q35 47 86 47q46 0 65 -51t1 -135q54 18 101 58q5 5 12 2.5t10 -9.5zM223 399q-14 7 -24 -4.5t-10 -31.5 q0 -59 42 -81q9 45 6.5 78t-14.5 39zM215 225q2 4 7 19q-58 23 -67 87q-15 -29 -31 -70q-24 -60 -30 -117.5t13 -69.5q21 -10 51.5 34t56.5 117zM210 574q-5 -22 -23.5 -36.5t-38.5 -14.5t-30.5 14.5t-6.5 36.5q5 21 23.5 36t38.5 15t31 -15t6 -36zM334 574 q-5 -22 -23 -36.5t-39 -14.5q-20 0 -30.5 14.5t-5.5 36.5q4 21 22.5 36t38.5 15t31 -15t6 -36z" />
<glyph unicode="&#xf7;" horiz-adv-x="332" d="M300 190q-41 -2 -140.5 0.5t-138.5 7.5q-23 2 -15 21q7 19 28 23h3q56 3 151 2t133 -5q19 -1 13 -21q-6 -21 -27 -27q-3 -1 -7 -1zM190 108q-4 -22 -23 -37.5t-40 -15.5t-32 15.5t-6 37.5t24 38t39 16q22 0 33 -16t5 -38zM247 325q-4 -22 -23 -37.5t-40 -15.5t-32.5 15.5 t-5.5 37.5q5 22 24 38t39 16q22 0 33 -16t5 -38z" />
<glyph unicode="&#xf8;" horiz-adv-x="347" d="M293 465q33 -15 44 -61t-5 -119q-3 -17 -10 -39q-5 -18 -7 -23q-37 -110 -92.5 -166t-111.5 -56q-13 0 -27 3q-9 -23 -15 -34q-16 -34 -25 -21.5t3 38.5q1 1 4.5 10t6.5 16q-58 29 -58 129q0 96 42 190.5t90 116.5q27 11 48 -25q26 34 60 44q3 6 6.5 14t4.5 10 q19 42 40 31q17 -9 12 -34q-1 -7 -5 -14zM124 262q-37 -96 -30 -159q112 280 119 297q-18 -6 -42.5 -42.5t-46.5 -95.5zM231 283q8 37 8 63q-62 -133 -123 -273q21 1 48.5 44.5t50.5 108.5q2 4 7 19q4 10 9 38z" />
<glyph unicode="&#xf9;" horiz-adv-x="382" d="M430 216q3 -7 0 -15q-14 -25 -29.5 -49t-45 -63.5t-62.5 -64t-62 -24.5q-50 0 -50 72q0 18 3 41q-78 -113 -149 -113q-50 0 -50 72q0 71 36.5 185.5t64.5 165.5q14 25 41 27t45 -13.5t10 -35.5q0 -1 -9 -23t-17.5 -45t-20 -55t-19 -59t-12.5 -51.5t-1.5 -39t14.5 -14.5 q20 0 49.5 35.5t41.5 75.5q36 131 74 198q14 25 41 27t45.5 -13.5t10.5 -35.5q-9 -21 -13 -31t-20.5 -52.5t-24.5 -70.5t-17 -62.5t-6 -52.5t16 -18q29 0 94 104q4 7 11.5 6t10.5 -8zM232 646q9 -41 28 -72.5t38 -43.5q11 -6 -9 -22q-19 -14 -32 -10q-22 7 -54 44.5 t-32 53.5q0 28 30 50q26 17 31 0z" />
<glyph unicode="&#xfa;" horiz-adv-x="382" d="M430 216q3 -7 0 -15q-14 -25 -29.5 -49t-45 -63.5t-62.5 -64t-62 -24.5q-50 0 -50 72q0 18 3 41q-78 -113 -149 -113q-50 0 -50 72q0 71 36.5 185.5t64.5 165.5q14 25 41 27t45 -13.5t10 -35.5q0 -1 -9 -23t-17.5 -45t-20 -55t-19 -59t-12.5 -51.5t-1.5 -39t14.5 -14.5 q20 0 49.5 35.5t41.5 75.5q36 131 74 198q14 25 41 27t45.5 -13.5t10.5 -35.5q-9 -21 -13 -31t-20.5 -52.5t-24.5 -70.5t-17 -62.5t-6 -52.5t16 -18q29 0 94 104q4 7 11.5 6t10.5 -8zM250 646q4 19 29 1q29 -23 32 -51q0 -16 -32 -53.5t-54 -44.5q-16 -6 -36 14 q-14 13 -5 18q19 12 38 43.5t28 72.5z" />
<glyph unicode="&#xfb;" horiz-adv-x="382" d="M430 216q3 -7 0 -15q-14 -25 -29.5 -49t-45 -63.5t-62.5 -64t-62 -24.5q-50 0 -50 72q0 18 3 41q-78 -113 -149 -113q-50 0 -50 72q0 71 36.5 185.5t64.5 165.5q14 25 41 27t45 -13.5t10 -35.5q0 -1 -9 -23t-17.5 -45t-20 -55t-19 -59t-12.5 -51.5t-1.5 -39t14.5 -14.5 q20 0 49.5 35.5t41.5 75.5q36 131 74 198q14 25 41 27t45.5 -13.5t10.5 -35.5q-9 -21 -13 -31t-20.5 -52.5t-24.5 -70.5t-17 -62.5t-6 -52.5t16 -18q29 0 94 104q4 7 11.5 6t10.5 -8zM351 553q7 -4 -2 -16.5t-23 -23t-20 -10.5q-25 0 -58 55q-49 -49 -64 -49q-10 0 -21 8 t-14 16.5t4 14.5q55 33 109 96q9 8 19 0.5t13 -20.5q4 -17 22.5 -40t34.5 -31z" />
<glyph unicode="&#xfc;" horiz-adv-x="382" d="M430 216q3 -7 0 -15q-14 -25 -29.5 -49t-45 -63.5t-62.5 -64t-62 -24.5q-50 0 -50 72q0 18 3 41q-78 -113 -149 -113q-50 0 -50 72q0 71 36.5 185.5t64.5 165.5q14 25 41 27t45 -13.5t10 -35.5q0 -1 -9 -23t-17.5 -45t-20 -55t-19 -59t-12.5 -51.5t-1.5 -39t14.5 -14.5 q20 0 49.5 35.5t41.5 75.5q36 131 74 198q14 25 41 27t45.5 -13.5t10.5 -35.5q-9 -21 -13 -31t-20.5 -52.5t-24.5 -70.5t-17 -62.5t-6 -52.5t16 -18q29 0 94 104q4 7 11.5 6t10.5 -8zM258 574q-5 -22 -23.5 -36.5t-38.5 -14.5t-30.5 14.5t-6.5 36.5q5 21 23.5 36t38.5 15 t31 -15t6 -36zM382 574q-5 -22 -23 -36.5t-39 -14.5q-20 0 -30.5 14.5t-5.5 36.5q4 21 22.5 36t38.5 15t31 -15t6 -36z" />
<glyph unicode="&#xfd;" horiz-adv-x="388" d="M437 216q4 -7 -1 -15q-21 -42 -74.5 -104t-107.5 -100q-1 -6 -19 -67q-57 -196 -167 -196q-42 0 -62.5 21.5t-20.5 55.5q0 96 162 181q4 14 8.5 30t10 35.5t8.5 30.5q-70 -88 -131 -88q-50 0 -50 72q0 71 36.5 185.5t64.5 165.5q14 25 41 27t45.5 -13.5t10.5 -35.5 q-9 -21 -13 -31t-20.5 -52.5t-24.5 -70.5t-17 -62.5t-6.5 -52.5t15.5 -18q19 0 46.5 31.5t41.5 68.5q42 133 73 207q11 26 38.5 28.5t47 -14t11.5 -36.5q-41 -101 -110 -340q74 54 141 159q4 7 11.5 6t11.5 -8zM54 -218q38 0 58 82q3 9 8.5 31.5t9.5 34.5 q-102 -62 -102 -117q0 -14 7.5 -22.5t18.5 -8.5zM283 646q4 19 29 1q29 -23 32 -51q0 -16 -32 -53.5t-54 -44.5q-16 -6 -36 14q-14 13 -5 18q19 12 38 43.5t28 72.5z" />
<glyph unicode="&#xff;" horiz-adv-x="388" d="M437 216q4 -7 -1 -15q-21 -42 -74.5 -104t-107.5 -100q-1 -6 -19 -67q-57 -196 -167 -196q-42 0 -62.5 21.5t-20.5 55.5q0 96 162 181q4 14 8.5 30t10 35.5t8.5 30.5q-70 -88 -131 -88q-50 0 -50 72q0 71 36.5 185.5t64.5 165.5q14 25 41 27t45.5 -13.5t10.5 -35.5 q-9 -21 -13 -31t-20.5 -52.5t-24.5 -70.5t-17 -62.5t-6.5 -52.5t15.5 -18q19 0 46.5 31.5t41.5 68.5q42 133 73 207q11 26 38.5 28.5t47 -14t11.5 -36.5q-41 -101 -110 -340q74 54 141 159q4 7 11.5 6t11.5 -8zM54 -218q38 0 58 82q3 9 8.5 31.5t9.5 34.5 q-102 -62 -102 -117q0 -14 7.5 -22.5t18.5 -8.5zM250 574q-5 -22 -23.5 -36.5t-38.5 -14.5t-30.5 14.5t-6.5 36.5q5 21 23.5 36t38.5 15t31 -15t6 -36zM374 574q-5 -22 -23 -36.5t-39 -14.5q-20 0 -30.5 14.5t-5.5 36.5q4 21 22.5 36t38.5 15t31 -15t6 -36z" />
<glyph unicode="&#x10d;" d="M361 219q4 7 11.5 6t11.5 -9q4 -7 -1 -16q-15 -26 -25.5 -42t-37 -49.5t-50 -54t-58.5 -37.5t-70 -17q-60 0 -101 39.5t-41 112.5q0 126 70.5 222t155.5 96q41 0 74 -32.5t33 -82.5q0 -78 -60 -133q-10 -12 -28.5 -11.5t-32.5 17.5q-12 15 -12.5 35t10.5 34q37 51 37 80 q0 10 -5.5 17t-13.5 7q-19 0 -46.5 -36t-49.5 -96t-22 -115q0 -38 16 -61t45 -23q55 0 110.5 52t79.5 97zM322 644q10 0 21 -8t13.5 -16.5t-4.5 -14.5q-51 -31 -109 -97q-9 -8 -18.5 -0.5t-13.5 20.5q-4 17 -22 40t-34 32q-7 4 2 16t22.5 22.5t19.5 10.5q26 0 59 -55 q50 50 64 50z" />
<glyph unicode="&#x11b;" d="M384 216q4 -7 -1 -16q-15 -26 -25.5 -42t-37 -49.5t-50 -54t-58.5 -37.5t-70 -17q-60 0 -101 39.5t-41 112.5q0 126 70.5 222t155.5 96q41 0 74 -32.5t33 -82.5q0 -87 -71.5 -142.5t-149.5 -28.5q-2 -20 -2 -30q0 -38 16 -61t45 -23q55 0 110.5 52t79.5 97q4 7 11.5 6 t11.5 -9zM228 401q-23 0 -57 -52t-51 -118q40 -6 83.5 44.5t43.5 101.5q0 10 -5.5 17t-13.5 7zM322 644q10 0 21 -8t13.5 -16.5t-4.5 -14.5q-51 -31 -109 -97q-9 -8 -18.5 -0.5t-13.5 20.5q-4 17 -22 40t-34 32q-7 4 2 16t22.5 22.5t19.5 10.5q26 0 59 -55q50 50 64 50z" />
<glyph unicode="&#x152;" horiz-adv-x="759" d="M651 666q65 0 95.5 -41t27.5 -98.5t-31 -116.5q-11 -23 -39 -26.5t-49 12.5t-16 42q4 22 13 51t16.5 51t13 42t4.5 31t-10 11q-38 0 -102.5 -77.5t-64.5 -150.5q0 -59 83 -59q12 0 16 -11q4 -15 -23 -24q-2 0 -5 -1q-1 0 -19 -3q-8 -2 -25 -2q-33 0 -73.5 -47.5 t-40.5 -101.5q0 -35 21 -57t51 -22q48 0 96 55t59 135q3 22 29 13q29 -9 40 -39q6 -17 2 -33q-17 -69 -91.5 -134t-169.5 -65q-45 0 -82 19.5t-57 53.5q-76 -73 -160 -73q-67 0 -113.5 52.5t-46.5 150.5q0 89 30 176.5t73 148t89 98t80 37.5q40 0 42 -25q1 -17 -12 -24 q-3 -1 -6 -1q-31 0 -75 -66t-77.5 -171.5t-33.5 -201.5q0 -54 18.5 -79.5t46.5 -25.5q41 0 92 74.5t87.5 187.5t36.5 212q0 23 -7.5 39t-19.5 16q-26 0 -38 -61.5t-10 -124.5q1 -27 -25 -32q-26 -4 -40 19q-6 10 -7 23q-3 97 30 156.5t104 59.5q65 0 94 -62q82 90 179 90z " />
<glyph unicode="&#x153;" horiz-adv-x="548" d="M596 216q4 -7 -1 -16q-15 -26 -25.5 -42t-37 -49.5t-50 -54t-58.5 -37.5t-70 -17q-84 0 -121 67q-58 -67 -122 -67q-54 0 -82.5 36t-28.5 105q0 96 42 190.5t90 116.5q27 11 48 -25q35 47 86 47q44 0 63 -45q55 45 109 45q41 0 74 -32.5t33 -82.5q0 -87 -71.5 -142.5 t-149.5 -28.5q-2 -20 -2 -30q0 -38 16 -61t45 -23q55 0 110.5 52t79.5 97q4 7 11.5 6t11.5 -9zM440 401q-23 0 -57 -52t-51 -118q40 -6 83.5 44.5t43.5 101.5q0 10 -5.5 17t-13.5 7zM223 399q-14 7 -24 -4.5t-10 -31.5q0 -59 42 -81q9 45 6.5 78t-14.5 39zM107 74 q21 -10 51.5 34t56.5 117q2 4 7 19q-58 23 -67 87q-15 -29 -31 -70q-24 -60 -30 -117.5t13 -69.5z" />
<glyph unicode="&#x159;" horiz-adv-x="309" d="M358 216q4 -7 -1 -15q-12 -22 -29 -48.5t-45.5 -64.5t-62 -63t-61.5 -25q-50 0 -50 72q0 55 22.5 139t51.5 154q-9 -4 -30 -4q-11 0 -22 3q-40 -91 -94 -182q-6 -8 -13.5 -7t-10 8.5t0.5 15.5q52 87 81 188q-29 33 -29 81q1 77 57 77q18 0 31.5 -24t13 -56t-16.5 -52 q28 3 78 30q27 16 57 -0.5t20 -41.5q0 -1 -9 -23t-17.5 -45t-20 -55t-19 -59t-12.5 -51.5t-1.5 -39t14.5 -14.5q29 0 94 104q4 7 11.5 6t11.5 -8zM322 660q10 0 21 -8t13.5 -16.5t-4.5 -14.5q-51 -31 -109 -97q-9 -8 -18.5 -0.5t-13.5 20.5q-4 17 -22 40t-34 32q-7 4 2 16 t22.5 22.5t19.5 10.5q26 0 59 -55q50 50 64 50z" />
<glyph unicode="&#x160;" horiz-adv-x="381" d="M291 429q-7 -15 4.5 -25.5t35.5 -10.5q40 0 60 43.5t20 93.5q0 51 -36.5 92t-107.5 41q-64 0 -114.5 -51t-50.5 -141q0 -52 27.5 -118t55 -126.5t27.5 -97.5q0 -77 -49 -77q-16 0 -27.5 13.5t-16 34.5t-6 36.5t-1.5 29.5q0 31 -16 51.5t-43 20.5q-22 0 -37.5 -21.5 t-15.5 -63.5q0 -66 44.5 -110t107.5 -44t118.5 40.5t55.5 114.5q0 46 -26.5 108t-53 129t-26.5 125q0 46 19 68t42 22q17 0 28 -13.5t11 -36.5q0 -58 -29 -127zM397 863q10 0 21 -8t13.5 -16.5t-4.5 -14.5q-51 -31 -109 -97q-9 -8 -18.5 -0.5t-13.5 20.5q-4 17 -22 40 t-34 32q-7 4 2 16t22.5 22.5t19.5 10.5q26 0 59 -55q50 50 64 50z" />
<glyph unicode="&#x161;" horiz-adv-x="260" d="M308 216q6 -8 0 -15q-119 -203 -247 -201h-10q-49 0 -81 60q-6 11 14 32q14 15 18 7q18 -39 42 -39t37 30.5t13 59.5v139q-33 -67 -58 -107q-8 -13 -19 -3t-3 22q55 99 81 188q1 51 27.5 95.5t61.5 63t60 0.5q51 -37 -65 -186q2 -12 10 -51.5t12 -71.5t4 -68 q0 -28 -7 -56q54 44 88 104q4 7 11.5 6t10.5 -9zM298 731q10 0 21 -8t13.5 -16.5t-4.5 -14.5q-51 -31 -109 -97q-9 -8 -18.5 -0.5t-13.5 20.5q-4 17 -22 40t-34 32q-7 4 2 16t22.5 22.5t19.5 10.5q26 0 59 -55q50 50 64 50z" />
<glyph unicode="&#x178;" horiz-adv-x="584" d="M494 557q8 27 24 37t31.5 4.5t29.5 -17.5t21.5 -27.5t4.5 -25.5q-4 -13 -54.5 -219t-69.5 -266q-74 -241 -189 -241q-54 0 -102 33.5t-70 78t-10 77.5q11 29 35 32.5t43 -10t19 -27.5q0 -69 27 -103.5t57 -34.5q26 0 54.5 93.5t66.5 269.5q-72 -151 -152 -151 q-31 0 -53 10t-32.5 29.5t-16 42t-2 54.5t7.5 59t15 63.5t18 60t18.5 57t15.5 46.5q4 14 13 40t13 39.5t7 29.5t-1.5 23t-15.5 7q-42 0 -90 -89t-48 -153q0 -20 -21 -22q-29 -1 -46 29q-12 21 -12 48q0 22 9.5 52t28.5 61.5t44.5 58.5t60.5 44.5t72 17.5q76 0 104 -60.5 t-2 -146.5q-6 -18 -17 -50.5t-19.5 -58.5t-18.5 -57.5t-15 -55t-6.5 -44.5t4 -32t18.5 -11q41 0 92.5 103.5t84.5 214.5q0 1 1 3t1 3q8 32 22 81zM448 758q-5 -22 -23.5 -36.5t-38.5 -14.5t-30.5 14.5t-6.5 36.5q5 21 23.5 36t38.5 15t31 -15t6 -36zM572 758 q-5 -22 -23 -36.5t-39 -14.5q-20 0 -30.5 14.5t-5.5 36.5q4 21 22.5 36t38.5 15t31 -15t6 -36z" />
<glyph unicode="&#x17d;" horiz-adv-x="437" d="M311 297q24 0 51 -36.5t27 -82.5q0 -65 -37 -134t-101 -116t-134 -47q-63 0 -99.5 35.5t-36.5 98.5t41 115t77 52q38 0 62 -27q11 -14 3 -18q-21 -6 -56 -54t-35 -105q0 -27 13 -42.5t32 -15.5q29 0 64.5 38t61 98.5t25.5 116.5q0 21 -15.5 42.5t-38.5 28.5 q-19 -6 -32 -6q-46 0 -60 28q-9 18 6 22h3q52 3 136.5 99.5t84.5 182.5q0 50 -40 50q-37 0 -71.5 -46.5t-53 -103t-18.5 -94.5q0 -19 -28 -22q-36 -4 -56 25q-12 16 -12 39q0 26 17.5 67t46.5 82.5t76 71t98 29.5q61 0 95 -39.5t34 -98.5q0 -68 -36 -129t-94 -104zM416 854 q10 0 21 -8t13.5 -16.5t-4.5 -14.5q-51 -31 -109 -97q-9 -8 -18.5 -0.5t-13.5 20.5q-4 17 -22 40t-34 32q-7 4 2 16t22.5 22.5t19.5 10.5q26 0 59 -55q50 50 64 50z" />
<glyph unicode="&#x17e;" horiz-adv-x="381" d="M428 216q3 -7 0 -15q-16 -31 -53 -77.5t-79 -85.5q-2 -61 -30 -118.5t-68 -97.5t-87 -64t-88 -24q-42 0 -62.5 21.5t-20.5 55.5q0 32 25 66t66.5 63t76.5 49t73 38q2 18 2 28q0 25 -10 28q-24 -22 -38 -34q-10 -9 -23 -5.5t-19 16.5q-10 19 3 37q50 66 86.5 126.5t55 102 t27 72.5t6.5 45.5t-11 14.5q-19 0 -50.5 -40.5t-56.5 -104.5q-25 -62 -33 -116q-3 -14 -13 -28.5t-19 -17.5q-25 -8 -50.5 11t-20.5 53q4 36 22 90q37 110 92 166t110 56q52 0 87.5 -36t35.5 -89q0 -48 -36.5 -119t-98.5 -142q53 0 65 -59q56 48 112 136q4 7 11.5 6t10.5 -8 zM9 -218q32 0 81.5 57.5t75.5 127.5q-74 -37 -128.5 -79.5t-54.5 -74.5q0 -14 7.5 -22.5t18.5 -8.5zM338 694q10 0 21 -8t13.5 -16.5t-4.5 -14.5q-51 -31 -109 -97q-9 -8 -18.5 -0.5t-13.5 20.5q-4 17 -22 40t-34 32q-7 4 2 16t22.5 22.5t19.5 10.5q26 0 59 -55q50 50 64 50 z" />
<glyph unicode="&#x2c6;" horiz-adv-x="267" d="M234 553q7 -4 -2 -16.5t-23 -23t-20 -10.5q-25 0 -58 55q-49 -49 -64 -49q-10 0 -21 8t-14 16.5t4 14.5q55 33 109 96q9 8 19 0.5t13 -20.5q4 -17 22.5 -40t34.5 -31z" />
<glyph unicode="&#x2c7;" horiz-adv-x="266" d="M200 644q10 0 21 -8t13.5 -16.5t-4.5 -14.5q-51 -31 -109 -97q-9 -8 -18.5 -0.5t-13.5 20.5q-4 17 -22 40t-34 32q-7 4 2 16t22.5 22.5t19.5 10.5q26 0 59 -55q50 50 64 50z" />
<glyph unicode="&#x2d8;" horiz-adv-x="231" d="M172 594q16 1 24.5 -14.5t-1.5 -29.5q-39 -54 -93 -54q-32 0 -52 22t-20 56q0 11 6.5 18.5t16.5 8.5l6 1q12 2 20.5 -7.5t7.5 -22.5q-5 -47 14 -52q11 -2 25 14t25 43q5 15 21 17z" />
<glyph unicode="&#x2da;" horiz-adv-x="216" d="M127 652q31 0 47.5 -23t8.5 -55t-35.5 -55t-58.5 -23t-47.5 23t-8.5 55t35.5 55t58.5 23zM133 568q8 25 6.5 44t-12.5 21q-10 2 -23 -13.5t-21 -40.5t-6.5 -44t12.5 -21t24 13.5t20 40.5z" />
<glyph unicode="&#x2dc;" horiz-adv-x="287" d="M239 611q0 9 10 5q7 -3 8 -9q0 -18 -16.5 -47t-46.5 -27q-17 1 -48.5 10t-58.5 13q-15 2 -28 -3.5t-13 -17.5q0 -8 -9 -4q-6 5 -6 10q4 26 15.5 42t25 22.5t36.5 6t38.5 -3.5t41.5 -9q17 -5 28.5 -3.5t17 6t5.5 9.5z" />
<glyph unicode="&#x2018;" horiz-adv-x="172" d="M127 461q-48 0 -34 66q19 88 114 139q12 7 18 -6q5 -10 -4 -17q-50 -32 -50 -51q29 0 26 -41q-3 -45 -34 -74q-18 -16 -36 -16z" />
<glyph unicode="&#x2019;" horiz-adv-x="172" d="M190 668q48 0 34 -66q-12 -54 -46.5 -88.5t-68.5 -50.5q-12 -7 -18 6q-4 12 5 16q49 37 49 52q-29 0 -26 41q4 46 35 74q17 16 36 16z" />
<glyph unicode="&#x201a;" horiz-adv-x="217" d="M135 160q48 0 34 -66q-12 -54 -46.5 -88.5t-68.5 -50.5q-12 -7 -18 6q-4 12 5 16q49 37 49 52q-29 0 -26 41q4 46 35 74q17 16 36 16z" />
<glyph unicode="&#x201c;" horiz-adv-x="292" d="M247 461q-48 0 -34 66q19 88 114 139q12 7 18 -6q5 -10 -4 -17q-50 -32 -50 -51q29 0 26 -41q-3 -45 -34 -74q-18 -16 -36 -16zM127 461q-48 0 -34 66q19 88 114 139q12 7 18 -6q5 -10 -4 -17q-50 -32 -50 -51q29 0 26 -41q-3 -45 -34 -74q-18 -16 -36 -16z" />
<glyph unicode="&#x201d;" horiz-adv-x="292" d="M190 668q48 0 34 -66q-12 -54 -46.5 -88.5t-68.5 -50.5q-12 -7 -18 6q-4 12 5 16q49 37 49 52q-29 0 -26 41q4 46 35 74q17 16 36 16zM310 668q48 0 34 -66q-12 -54 -46.5 -88.5t-68.5 -50.5q-12 -7 -18 6q-4 12 5 16q49 37 49 52q-29 0 -26 41q4 46 35 74q17 16 36 16z " />
<glyph unicode="&#x201e;" horiz-adv-x="363" d="M135 160q48 0 34 -66q-12 -54 -46.5 -88.5t-68.5 -50.5q-12 -7 -18 6q-4 12 5 16q49 37 49 52q-29 0 -26 41q4 46 35 74q17 16 36 16zM255 160q48 0 34 -66q-12 -54 -46.5 -88.5t-68.5 -50.5q-12 -7 -18 6q-4 12 5 16q49 37 49 52q-29 0 -26 41q4 46 35 74q17 16 36 16z " />
<glyph unicode="&#x2020;" horiz-adv-x="213" d="M244 498q22 -2 17 -33q-6 -33 -30 -44q-6 -3 -12 -3q-34 -2 -81 0q-33 -436 -37 -494q-2 -24 -15 -31t-25 3t-11 27l22 497q-64 4 -91 7t-20 33q7 29 30 39q4 2 9 2q25 2 75 4l9 192q2 43 34 45q25 1 38 -21q5 -9 4 -20q0 -3 -2.5 -31t-6 -74t-7.5 -91q61 -2 100 -7z" />
<glyph unicode="&#x2021;" horiz-adv-x="213" d="M235 338q22 -3 17 -34q-5 -32 -29 -44l-13 -3q-34 -2 -84 0q-23 -313 -25 -333q-2 -24 -15 -31t-25 3t-11 27l15 337q-20 1 -93 6q-19 2 -21 20t11 35.5t29 18.5q26 2 78 4l3 83q-61 4 -92 6q-27 3 -21 33q6 28 29 39q6 3 11 3q39 3 77 3l8 186q2 43 34 45q25 1 38 -21 q5 -9 4 -20q-2 -22 -15 -190q56 0 97 -6q23 -3 17 -35q-6 -33 -31 -44q-6 -2 -11 -2h-78q-4 -55 -7 -80q60 -2 103 -6z" />
<glyph unicode="&#x2030;" horiz-adv-x="898" d="M150 271q-53 0 -80.5 39t-14.5 94t59.5 93.5t99.5 38.5t80.5 -38.5t14.5 -93.5q-14 -55 -60.5 -94t-98.5 -39zM139 413q-13 -42 -10 -74t20 -36q18 -4 40.5 23t35.5 69q13 41 10 73t-21 36q-17 4 -39.5 -23t-35.5 -68zM482 304q53 0 80.5 -38.5t14.5 -93.5t-59.5 -94 t-99.5 -39q-52 0 -80 39t-15 94q14 55 60.5 93.5t98.5 38.5zM493 163q13 41 10 73t-20 36q-18 4 -40 -23t-36 -68q-13 -42 -10 -74t21 -36q17 -4 39.5 23t35.5 69zM468 533q15 25 36 21.5t36.5 -25.5t7.5 -38q-8 -14 -106 -117.5t-209 -217t-120 -123.5q-21 -23 -40 -5 q-17 16 -5 33l4 4q62 54 219 240t177 228zM768 304q53 0 80.5 -38.5t14.5 -93.5t-59.5 -94t-99.5 -39q-52 0 -80 39t-15 94q14 55 60.5 93.5t98.5 38.5zM779 163q13 41 10 73t-20 36q-18 4 -40 -23t-36 -68q-13 -42 -10 -74t21 -36q17 -4 39.5 23t35.5 69z" />
<glyph unicode="&#x20ac;" horiz-adv-x="446" d="M321 584q48 0 79 -37t16 -96q-17 -64 -64 -75q-29 -7 -40 9q-5 8 1 18q10 15 22.5 47t13.5 56q1 12 -5 21t-15 9q-27 0 -64.5 -55.5t-65.5 -133.5q69 0 83 3q9 2 10 -10q1 -23 -17 -45q-9 -11 -18 -11h-77q-1 -6 -3.5 -17.5t-3.5 -17.5q69 0 84 3q8 2 9 -8q2 -21 -16 -42 q-9 -11 -19 -11h-63q0 -48 17.5 -87.5t46.5 -39.5q31 0 59.5 43t46.5 98q7 22 26 13q21 -10 17 -40l-2 -10q-18 -62 -69.5 -112.5t-113.5 -50.5q-55 0 -95 48.5t-36 136.5q-15 0 -33.5 -0.5t-19.5 -0.5q-14 -1 -11 23q4 29 24 35q2 1 5 1q23 0 41 1q2 18 6 34 q-12 0 -25.5 -0.5t-14.5 -0.5q-14 -1 -10 27q6 32 26 36h2q9 1 38 1q34 105 97 171.5t131 66.5z" />
<glyph unicode="&#x25fc;" horiz-adv-x="475" d="M0 475h475v-475h-475v475z" />
<glyph horiz-adv-x="0" />
<glyph horiz-adv-x="213" />
<glyph horiz-adv-x="305" d="M414 664q2 -11 -1 -33t-13 -49t-35 -46.5t-61 -19.5q-12 0 -84 5q23 -28 14 -50q-18 -46 -48 -133q33 2 65 7q26 4 27 -25q1 -34 -24 -56q-15 -12 -30 -12q-38 0 -64 1q-45 -151 -58 -231q-4 -26 -38 -21q-37 5 -55 37q-7 14 -7 29q0 41 46 196q-18 2 -25 4q-29 5 -16 33 q12 26 40 34q6 2 12 2q4 -1 11 -1q37 113 69 192h-45q-37 0 -65 -11.5t-28 -37.5q0 -15 -16 -11q-17 5 -17 22q0 64 37 95t103 40q30 4 57.5 4.5t62.5 -1t53 -1.5q92 0 92 36q0 12 19 15t22 -13z" />
<glyph horiz-adv-x="387" d="M288 423q19 34 60 25q31 -7 38 -29q2 -9 -2 -18q-69 -144 -82 -253q-10 -87 32 -87q15 0 -10 -27q-38 -38 -69 -41q-70 0 -61 103q-51 -96 -123 -96q-54 0 -72.5 67t11.5 180q32 110 84.5 166.5t107.5 56.5q40 0 55 -33.5t5 -71.5q14 36 26 58zM111 71q16 -8 44 34 t51 111t28 122.5t-11 62.5q-16 8 -44 -35t-51 -111t-28 -122t11 -62z" />
<glyph horiz-adv-x="387" d="M647 341q7 -31 -18 -101t-68 -143.5t-108.5 -129t-129.5 -55.5q-56 0 -96 41t-40 119v11q-50 -83 -116 -83q-54 0 -72.5 67t11.5 180q32 110 84.5 166.5t107.5 56.5q38 0 54 -30.5t8 -68.5q15 36 24 52q14 25 40.5 27t45 -13.5t10.5 -35.5q-65 -158 -85 -227 q-27 -93 -16.5 -153.5t56.5 -60.5q44 0 90 54.5t77.5 127.5t52 141t21.5 101q2 4 15 3.5t30 -13.5t22 -33zM111 71q16 -8 44 34t51 111t28 122.5t-11 62.5q-16 8 -44 -35t-51 -111t-28 -122t11 -62z" />
<glyph horiz-adv-x="387" d="M436 216q4 -7 -1 -15q-14 -25 -29.5 -49t-45 -63.5t-62.5 -64t-61 -24.5q-50 0 -50 72v11q-50 -83 -116 -83q-54 0 -72.5 67t11.5 180q32 110 84.5 166.5t107.5 56.5q19 0 32.5 -14t13.5 -35q0 -35 -19.5 -68t-41.5 -33q-9 0 -22 17q-22 -40 -37 -82q-23 -68 -28 -122 t11 -62q15 -8 49.5 48.5t58.5 125.5q37 121 69 178q14 25 40.5 27t45 -13.5t10.5 -35.5q0 -1 -9 -23t-17.5 -45t-20 -55t-19 -59t-12.5 -51.5t-1.5 -39t14.5 -14.5q29 0 94 104q4 7 11.5 6t11.5 -8z" />
<glyph horiz-adv-x="362" d="M660 738q40 0 73 -12t52.5 -30.5t35.5 -40.5t20.5 -42.5t7.5 -36.5t-2 -21q-7 -11 -18.5 -12.5t-15.5 12.5q-15 63 -136 63q-50 0 -116 -20.5t-120 -45t-118 -45t-111 -20.5h-9q-32 -77 -54.5 -141.5t-41 -132t-14 -106t33.5 -38.5q16 0 41.5 39.5t52.5 106.5q7 18 11 32 q-30 13 -46 40.5t-16 59.5q0 45 31.5 84t80.5 39q45 0 64.5 -51t1.5 -135q52 18 100 58q15 11 22 -7q5 -12 -5 -21q-62 -50 -127 -69q-1 -2 -3.5 -10t-3.5 -13q-38 -110 -93 -166t-110 -56q-41 0 -68 24t-36.5 63t-8.5 83t12 88q32 127 80 250q-81 38 -81 130q0 55 43 95.5 t91 40.5q50 0 77.5 -27t28 -63.5t-12.5 -74.5q-5 -14 -19 -46q46 8 106 37.5t108.5 59.5t107 54t104.5 24zM205 363q0 -55 37 -79q23 101 -4 115q-13 7 -23 -4.5t-10 -31.5zM68 644q0 -47 64 -72q3 7 8.5 20t10 23.5t8.5 19.5q13 31 4 51.5t-35 20.5q-23 0 -41.5 -18.5 t-18.5 -44.5z" />
<glyph horiz-adv-x="362" d="M448 342q5 5 12 2.5t10 -9.5q5 -12 -5 -21q-67 -51 -127 -69q-2 -4 -4.5 -12t-3.5 -11q-37 -110 -92 -166t-110 -56q-41 0 -68 24t-37 63t-9 83t12 88q36 136 77 241q-30 8 -170.5 63.5t-211.5 55.5q-120 0 -135 -63q-4 -14 -16 -12.5t-19 12.5q-5 6 -2 21.5t7.5 36 t20.5 42.5t35.5 40.5t52.5 30.5t73 12q54 0 123 -32.5t144.5 -76t125.5 -58.5q18 42 27 64q47 110 120 110q43 0 69 -30.5t26 -66.5q0 -58 -46 -106.5t-124 -54.5q-32 -77 -54.5 -141t-41.5 -131.5t-14.5 -106.5t34.5 -39q16 0 41.5 39.5t51.5 106.5q1 3 12 32 q-30 13 -46.5 40.5t-16.5 59.5q0 45 32 84t80 39q46 0 65 -51t1 -135q54 18 101 58zM310 678q-30 0 -57 -69q0 -1 -7.5 -19t-12.5 -28q41 8 70 30t29 52q0 34 -22 34zM204 363q0 -56 38 -79q10 46 9 77.5t-13 37.5q-13 7 -23.5 -5t-10.5 -31z" />
<glyph horiz-adv-x="362" d="M449 342q5 5 11.5 2.5t9.5 -9.5q6 -11 -4 -21q-66 -51 -128 -69q-5 -18 -7 -23q-37 -110 -92 -166t-111 -56q-41 0 -68 24t-36.5 62.5t-8.5 83t12 88.5q32 120 74 234q-47 8 -163.5 42t-242.5 59t-247 25q-147 0 -162 -63q-4 -14 -15.5 -12.5t-18.5 12.5q-1 8 -1.5 27.5 t13.5 46.5t33 51t56.5 41t85.5 17q111 0 239.5 -35t255.5 -80t196 -57q9 23 29 69q19 46 49 78t70 32q44 0 70 -30.5t26 -66.5q0 -50 -48.5 -97t-120.5 -60q-32 -79 -55 -142.5t-42 -132.5t-15 -108t34 -39q17 0 42.5 39.5t51.5 106.5q7 18 11 32q-30 13 -46 40.5t-16 59.5 q0 45 32 84t80 39q46 0 65 -50.5t1 -135.5q50 17 101 58zM311 678q-28 0 -58 -69q-2 -6 -19 -47q41 8 70 30t29 52q0 34 -22 34zM205 363q0 -56 38 -79q10 46 8.5 77.5t-12.5 37.5q-14 7 -24 -4.5t-10 -31.5z" />
<glyph horiz-adv-x="362" d="M962 738q40 0 73 -12t52.5 -30.5t35.5 -40.5t20.5 -42.5t7.5 -36.5t-2 -21q-7 -11 -19 -12.5t-16 12.5q-15 63 -162 63q-135 0 -282 -33t-260.5 -65.5t-167.5 -32.5q-14 0 -38 2q-32 -78 -54.5 -142t-41.5 -132t-14.5 -107t33.5 -39q16 0 41.5 39.5t52.5 106.5 q7 18 11 32q-30 13 -46 40.5t-16 59.5q0 45 31.5 84t80.5 39q45 0 64.5 -51t1.5 -135q52 18 100 58q15 11 22 -7q5 -12 -5 -21q-62 -50 -127 -69q-1 -2 -3.5 -10t-3.5 -13q-38 -110 -93 -166t-110 -56q-41 0 -68 24t-36.5 63t-8.5 83t12 88q33 130 83 258q-84 44 -84 122 q0 55 43 95.5t91 40.5q38 0 63 -16t34 -40.5t8 -53t-12 -55.5q-2 -5 -8.5 -21.5t-11.5 -26.5q61 6 156 35t178.5 60t193 56.5t201.5 25.5zM205 363q0 -55 37 -79q23 101 -4 115q-13 7 -23 -4.5t-10 -31.5zM68 644q0 -47 64 -72q3 7 8.5 20t10 23.5t8.5 19.5q12 27 3.5 49.5 t-34.5 22.5q-23 0 -41.5 -18.5t-18.5 -44.5z" />
<glyph horiz-adv-x="362" d="M448 342q15 11 22 -7q5 -12 -5 -21q-62 -50 -127 -69q-5 -18 -7 -23q-38 -110 -93 -166t-110 -56q-41 0 -68 24t-36.5 62.5t-8.5 83t12 88.5q35 134 85 262q-41 3 -73 14q-23 10 -28.5 29t3.5 32q8 16 24.5 19.5t32.5 -5.5q29 -15 69 -19q12 30 19 45q58 133 114.5 200 t134.5 67q43 0 75.5 -35.5t32.5 -86.5q0 -69 -46 -124t-111 -85.5t-140 -43.5q-34 -83 -58.5 -148.5t-48 -143.5t-20.5 -122t35 -44q16 0 42 39.5t52 106.5q7 18 11 32q-30 13 -46 40.5t-16 59.5q0 45 32 84t80 39q46 0 65 -50.5t1 -135.5q52 18 100 58zM423 835 q-25 0 -50.5 -21t-46 -55.5t-36 -66.5t-30.5 -66q-5 -12 -7 -17q-3 -9 -7 -17q94 13 161 59t67 119q0 25 -11 45t-40 20zM205 363q0 -56 38 -79q10 46 8.5 77.5t-13.5 37.5q-13 7 -23 -4.5t-10 -31.5z" />
<glyph horiz-adv-x="362" d="M514 595q9 -13 3 -32t-29 -29q-42 -18 -115 -14.5t-146 27.5q-17 -40 -29 -71t-30 -76.5t-29.5 -80.5t-23.5 -75.5t-16.5 -69.5t-5.5 -54t8 -38t26 -13q16 0 41.5 39.5t51.5 106.5q1 3 12 32q-30 13 -46.5 40.5t-16.5 59.5q0 45 32 84t80 39q46 0 65 -51t1 -135 q54 18 101 58q5 5 12 2.5t10 -9.5q5 -12 -5 -21q-67 -51 -127 -69q-2 -4 -4.5 -12t-3.5 -11q-37 -110 -92 -166t-110 -56q-41 0 -68 24t-37 63t-9 83t12 88q41 156 112 330q-126 74 -126 192q0 52 34.5 87t84.5 35q56 0 96.5 -33t53 -98t-27.5 -162q-1 -1 -2.5 -5t-2.5 -6 q60 -13 117 -10t92 21q16 9 32.5 5.5t24.5 -19.5zM204 363q0 -56 38 -79q10 46 9 77.5t-13 37.5q-13 7 -23.5 -5t-10.5 -31zM54 770q0 -88 102 -140q0 1 2 5q37 90 26 145t-63 55q-37 0 -52 -20.5t-15 -44.5z" />
<glyph horiz-adv-x="362" d="M470 335q5 -12 -5 -21q-62 -50 -127 -69q-1 -2 -3.5 -10t-3.5 -13q-38 -110 -93 -166t-110 -56q-41 0 -68 24t-36.5 63t-8.5 83t12 88q33 128 81 253q-80 14 -130.5 69t-50.5 121q0 19 31 35q35 18 45 -1q3 -4 3 -11q4 -136 100 -168q3 -1 9 -2.5t9 -2.5q19 48 35 84 q47 110 119 110q43 0 64.5 -30.5t16.5 -66.5q-8 -48 -48 -83.5t-97 -49.5q-34 -84 -57 -147.5t-45.5 -139t-19 -117.5t34.5 -42q16 0 41.5 39.5t52.5 106.5q7 18 11 32q-30 13 -46 40.5t-16 59.5q0 45 31.5 84t80.5 39q45 0 64.5 -51t1.5 -135q52 18 100 58q15 11 22 -7z M305 679q-21 0 -52 -70q-9 -23 -21 -51q34 12 57 36.5t28 57.5q2 9 -1.5 18t-10.5 9zM205 363q0 -55 37 -79q23 101 -4 115q-13 7 -23 -4.5t-10 -31.5z" />
<glyph horiz-adv-x="362" d="M282 470q66 0 73 -89q8 -95 -46 -213q-56 -122 -133 -157q-24 -11 -48 -11q-41 0 -68 24t-36.5 63t-8.5 83t12 88q20 77 44.5 150.5t42.5 118.5t54 131q15 35 55 28q33 -6 42 -29q4 -11 -1 -21q-61 -123 -129 -345t-8 -222q16 0 41.5 39.5t52.5 106.5q7 18 11 32 q-30 13 -46 40.5t-16 59.5q0 45 31.5 84t80.5 39zM205 363q0 -55 37 -79q23 101 -4 115q-13 7 -23 -4.5t-10 -31.5z" />
<glyph d="M212 228q-12 15 -12.5 35t10.5 34q37 51 37 80q0 10 -5.5 17t-13.5 7q-19 0 -46.5 -36t-49.5 -96t-22 -115q0 -38 16 -61t45 -23q41 0 79 36.5t57 83.5q5 12 13 5q7 -7 7 -31q0 -43 -57 -103.5t-128 -60.5q-60 0 -101 39.5t-41 112.5q0 126 70.5 222t155.5 96 q41 0 74 -32.5t33 -82.5q0 -78 -60 -133q-10 -12 -28.5 -11.5t-32.5 17.5z" />
<glyph d="M171 70q56 0 126.5 68t118 155t47.5 143q0 6 18.5 -2t38.5 -26.5t25 -37.5q7 -31 -22 -92t-77.5 -123t-122 -108.5t-145.5 -46.5q-64 0 -121 40.5t-57 111.5q0 126 70.5 222t155.5 96q41 0 74 -32.5t33 -82.5q0 -78 -60 -133q-10 -12 -28.5 -11.5t-32.5 17.5 q-12 15 -12.5 35t10.5 34q37 51 37 80q0 10 -5.5 17t-13.5 7q-19 0 -46.5 -36t-49.5 -96t-22 -115q0 -38 16 -61t45 -23z" />
<glyph d="M202 291q6 7 22 27q23 34 23 59q0 10 -5.5 17t-13.5 7q-19 0 -46.5 -36t-49.5 -96t-22 -115q0 -38 16 -61t45 -23q55 0 110.5 52t79.5 97q4 7 11.5 6t11.5 -9q4 -7 -1 -16q-15 -26 -25.5 -42t-37 -49.5t-50 -54t-58.5 -37.5t-70 -17q-60 0 -101 39.5t-41 112.5 q0 126 70.5 222t155.5 96q30 0 50.5 -17t29.5 -44q39 39 52 39q17 0 25 -26t4.5 -53t-16.5 -30q-31 -7 -85.5 -43t-72.5 -53q-4 -4 -10 7q-15 22 -1 41z" />
<glyph horiz-adv-x="386" d="M850 738q40 0 73.5 -12t53 -30.5t35 -40.5t20.5 -42.5t8 -36.5t-2 -21q-7 -11 -19 -12.5t-16 12.5q-15 63 -135 63q-63 0 -150 -33t-172 -65.5t-143 -32.5h-4q-47 -136 -83 -281q-22 -92 2 -92q29 0 94 104q4 7 11.5 6t10.5 -8q4 -5 0 -15q-14 -25 -29.5 -49t-45 -63.5 t-62.5 -64t-61 -24.5q-51 0 -51 71q0 6 1 10q-50 -81 -115 -81q-54 0 -72.5 67t11.5 180q32 110 84.5 166.5t107.5 56.5q29 0 45.5 -18.5t18.5 -46.5q22 68 34 101q-84 38 -84 132q0 55 43 95.5t91 40.5q50 0 77.5 -26t27 -66.5t-16.5 -88.5l-12 -30q56 10 135.5 54.5 t155 82.5t133.5 38zM111 71q16 -8 44 34t51 111t28 122.5t-11 62.5q-16 8 -44 -35t-51 -111t-28 -122t11 -62zM258 644q0 -48 66 -73q9 26 20 52q14 35 7 59.5t-33 24.5q-23 0 -41.5 -18.5t-18.5 -44.5z" />
<glyph horiz-adv-x="386" d="M399 488q-48 -139 -83 -282q-22 -92 2 -92q29 0 94 104q4 7 11.5 6t11.5 -8t-1 -15q-12 -22 -29 -48.5t-45.5 -64.5t-62 -63t-61.5 -25q-50 0 -50 71v10q-50 -81 -114 -81q-54 0 -73 67t11 180q32 110 84.5 166.5t107.5 56.5q29 0 45.5 -18.5t18.5 -46.5q20 62 31 93 q-32 8 -173 64t-212 56q-120 0 -135 -63q-4 -14 -16 -12.5t-19 12.5q-5 6 -2 21.5t7.5 36t20.5 42.5t35.5 40.5t52.5 30.5t73 12q55 0 124 -33t145 -76.5t126 -58.5q8 23 20 53q49 122 125 122q43 0 69.5 -30.5t26.5 -66.5q0 -57 -45 -105.5t-121 -54.5zM112 71 q16 -8 44 34.5t51 110.5t28 122.5t-11 62.5q-17 8 -45 -35t-51 -111t-28 -122t12 -62zM501 678q-13 0 -31 -25t-32 -60l-12 -30q40 7 68.5 29t28.5 52q0 34 -22 34z" />
<glyph horiz-adv-x="386" d="M401 492q-47 -132 -85 -286q-22 -92 2 -92q29 0 94 104q4 7 11.5 6t11.5 -8t-1 -15q-12 -22 -29 -48.5t-45.5 -64.5t-62 -63t-61.5 -25q-50 0 -50 71v10q-50 -81 -114 -81q-54 0 -73 67t11 180q32 110 84.5 166.5t107.5 56.5q29 0 45.5 -18.5t18.5 -46.5q9 29 29 87 q-48 7 -164 41t-244 59.5t-250 25.5q-146 0 -161 -63q-4 -14 -16 -12.5t-19 12.5q-5 6 -2 21.5t7.5 36t20.5 42.5t35.5 40.5t52.5 30.5t73 12q111 0 241 -35.5t257 -80t196 -56.5q3 8 22 57q50 122 123 122q44 0 70 -30.5t26 -66.5q0 -49 -46 -95t-116 -61zM112 71 q16 -8 44 34.5t51 110.5t28 122.5t-11 62.5q-17 8 -45 -35t-51 -111t-28 -122t12 -62zM500 678q-13 0 -30.5 -23.5t-31.5 -61.5l-12 -30q40 8 68 29.5t28 51.5q0 34 -22 34z" />
<glyph horiz-adv-x="386" d="M1150 738q40 0 73 -12t52.5 -30.5t35.5 -40.5t20.5 -42.5t7.5 -36.5t-2 -21q-7 -11 -19 -12.5t-16 12.5q-15 63 -162 63q-135 0 -282 -33t-260.5 -65.5t-167.5 -32.5q-21 0 -31 1q-47 -134 -83 -282q-22 -92 2 -92q29 0 94 104q4 7 11.5 6t10.5 -8q4 -5 0 -15 q-14 -25 -29.5 -49t-45 -63.5t-62.5 -64t-61 -24.5q-51 0 -51 71q0 6 1 10q-50 -81 -115 -81q-54 0 -72.5 67t11.5 180q32 110 84.5 166.5t107.5 56.5q29 0 45.5 -18.5t18.5 -46.5q13 43 37 109q-89 43 -89 124q0 55 43 95.5t91 40.5q50 0 77.5 -27t28 -67.5t-15.5 -86.5 q-2 -6 -6 -16t-6 -16q73 8 201.5 53t267.5 84.5t255 39.5zM111 71q16 -8 44 34t51 111t28 122.5t-11 62.5q-16 8 -44 -35t-51 -111t-28 -122t11 -62zM256 644q0 -48 67 -73q7 18 21 52q14 37 6 60.5t-34 23.5q-23 0 -41.5 -18.5t-18.5 -44.5z" />
<glyph horiz-adv-x="386" d="M413 528q-56 -156 -97 -322q-22 -92 2 -92q29 0 94 104q4 7 11.5 6t10.5 -8q4 -5 0 -15q-14 -25 -29.5 -49t-45 -63.5t-62.5 -64t-61 -24.5q-51 0 -51 71q0 6 1 10q-50 -81 -115 -81q-54 0 -72.5 67t11.5 180q32 110 84.5 166.5t107.5 56.5q29 0 45.5 -18.5t18.5 -46.5 q20 64 39 115q-45 1 -76 14q-23 10 -28.5 29t3.5 32q7 16 23.5 19.5t32.5 -5.5q31 -15 71 -19q2 5 6.5 16t6.5 17q53 134 113.5 206.5t139.5 72.5q43 0 75.5 -35.5t32.5 -86.5q0 -68 -45 -123t-108.5 -85.5t-138.5 -43.5zM111 71q16 -8 44 34t51 111t28 122.5t-11 62.5 q-16 8 -44 -35t-51 -111t-28 -122t11 -62zM613 835q-28 0 -55 -22.5t-49.5 -63.5t-38 -75.5t-32.5 -80.5l-1 -1q59 8 108.5 29.5t84 60.5t34.5 88q0 25 -11 45t-40 20z" />
<glyph horiz-adv-x="386" d="M705 595q9 -13 3 -32t-29 -29q-42 -18 -114.5 -14.5t-144.5 27.5q-61 -165 -104 -341q-22 -92 2 -92q29 0 94 104q4 7 11.5 6t10.5 -8q4 -5 0 -15q-14 -25 -29.5 -49t-45 -63.5t-62.5 -64t-61 -24.5q-51 0 -51 71q0 6 1 10q-50 -81 -115 -81q-54 0 -72.5 67t11.5 180 q32 110 84.5 166.5t107.5 56.5q29 0 45.5 -18.5t18.5 -46.5q30 96 64 182q-127 75 -127 193q0 52 34.5 87t84.5 35q55 0 94 -34.5t50 -102.5t-27 -168q60 -13 117 -9.5t92 21.5q16 9 32.5 5.5t24.5 -19.5zM111 71q16 -8 44 34t51 111t28 122.5t-11 62.5q-16 8 -44 -35 t-51 -111t-28 -122t11 -62zM244 770q0 -88 102 -140q35 91 26 148t-60 57q-37 0 -52.5 -20.5t-15.5 -44.5z" />
<glyph horiz-adv-x="386" d="M468 745q43 0 64.5 -30.5t16.5 -66.5q-7 -47 -46 -82t-94 -50q-54 -150 -93 -310q-22 -92 2 -92q29 0 94 104q4 7 11.5 6t10.5 -8q4 -5 0 -15q-14 -25 -29.5 -49t-45 -63.5t-62.5 -64t-61 -24.5q-51 0 -51 71q0 6 1 10q-50 -81 -115 -81q-54 0 -72.5 67t11.5 180 q32 110 84.5 166.5t107.5 56.5q29 0 45.5 -18.5t18.5 -46.5q19 59 36 106q-82 12 -133.5 67.5t-51.5 122.5q0 19 31 35q35 18 45 -1q3 -4 3 -11q4 -136 100 -168q15 -4 20 -5q2 6 28 72q24 59 53.5 90.5t70.5 31.5zM111 71q16 -8 44 34t51 111t28 122.5t-11 62.5 q-16 8 -44 -35t-51 -111t-28 -122t11 -62zM507 652q2 9 -1.5 18t-10.5 9q-26 0 -57 -86q-3 -7 -13 -34q72 28 82 93z" />
<glyph horiz-adv-x="386" d="M455 636q-85 -209 -139 -430q-35 -145 10 -145q15 0 -10 -27q-38 -38 -69 -41q-61 0 -62 78v2v8q-50 -81 -114 -81q-54 0 -72.5 67t11.5 180q32 110 84.5 166.5t107.5 56.5q29 0 45.5 -18.5t18.5 -46.5q47 146 92 253q11 26 38.5 28.5t47 -14t11.5 -36.5zM111 71 q16 -8 44 34t51 111t28 122.5t-11 62.5q-16 8 -44 -35t-51 -111t-28 -122t11 -62z" />
<glyph horiz-adv-x="386" d="M647 341q7 -31 -18 -101t-68 -143.5t-108.5 -129t-129.5 -55.5q-56 0 -97 40.5t-41 118.5q0 6 1 10q-50 -81 -115 -81q-54 0 -72.5 67t11.5 180q32 110 84.5 166.5t107.5 56.5q29 0 45.5 -18.5t18.5 -46.5q47 146 92 253q11 26 38 28.5t46.5 -14t12.5 -36.5 q-25 -65 -47.5 -130.5t-48 -146t-41 -148t-23 -126t3.5 -92t40 -33.5q44 0 90 54.5t77.5 127.5t52 141t21.5 101q2 4 15 3.5t30 -13.5t22 -33zM111 71q16 -8 44 34t51 111t28 122.5t-11 62.5q-16 8 -44 -35t-51 -111t-28 -122t11 -62z" />
<glyph horiz-adv-x="386" d="M455 636q-85 -209 -139 -430q-22 -92 2 -92q29 0 94 104q4 7 11.5 6t10.5 -8q4 -5 0 -15q-14 -25 -29.5 -49t-45 -63.5t-62.5 -64t-61 -24.5q-51 0 -51 71q0 6 1 10q-50 -81 -115 -81q-54 0 -72.5 67t11.5 180q32 110 84.5 166.5t107.5 56.5q19 0 32.5 -14t13.5 -35 q0 -35 -19.5 -68t-41.5 -33q-9 0 -22 17q-22 -40 -37 -82q-23 -68 -28 -122t11 -62q15 -7 47.5 45.5t57.5 120.5q56 214 142 421q11 26 38.5 28.5t47 -14t11.5 -36.5z" />
<glyph d="M228 401q-23 0 -57 -52t-51 -118q40 -6 83.5 44.5t43.5 101.5q0 10 -5.5 17t-13.5 7zM142 0q-60 0 -101 39.5t-41 112.5q0 126 70.5 222t155.5 96q41 0 74 -32.5t33 -82.5q0 -87 -71.5 -142.5t-149.5 -28.5q-2 -20 -2 -30q0 -38 16 -61t45 -23q41 0 79 36.5t57 83.5 q5 12 13 5q7 -7 7 -31q0 -43 -57 -103.5t-128 -60.5z" />
<glyph d="M0 152q0 126 70.5 222t155.5 96q41 0 74 -32.5t33 -82.5q0 -87 -71.5 -142.5t-149.5 -28.5q-2 -20 -2 -30q0 -38 16 -61t45 -23q56 0 126.5 68t118 155t47.5 143q0 6 18.5 -2t38.5 -26.5t25 -37.5q7 -31 -22 -92t-77.5 -123t-122 -108.5t-145.5 -46.5q-64 0 -121 40.5 t-57 111.5zM228 401q-23 0 -57 -52t-51 -118q40 -6 83.5 44.5t43.5 101.5q0 10 -5.5 17t-13.5 7z" />
<glyph d="M384 216q4 -7 -1 -16q-15 -26 -25.5 -42t-37 -49.5t-50 -54t-58.5 -37.5t-70 -17q-60 0 -101 39.5t-41 112.5q0 126 70.5 222t155.5 96q43 0 78 -33t29 -82q-7 -49 -41.5 -87.5t-81.5 -62.5q47 -5 55 -13q13 -13 -8.5 -32.5t-34.5 -11.5q-35 21 -110 33q-2 -18 -2 -27 q0 -38 16 -61t45 -23q55 0 110.5 52t79.5 97q4 7 11.5 6t11.5 -9zM228 401q-23 0 -57 -52t-51 -118q40 -6 83.5 44.5t43.5 101.5q0 10 -5.5 17t-13.5 7z" />
<glyph horiz-adv-x="394" d="M812 -116q5 -6 2 -21.5t-7.5 -35.5t-20.5 -42t-35.5 -40.5t-52.5 -30.5t-73 -12q-54 0 -123 32.5t-147.5 76t-134.5 58.5q-53 -135 -146 -135q-42 0 -62.5 21.5t-20.5 55.5q0 52 39.5 91t110.5 48q9 32 27 98q-41 -48 -90 -48q-54 0 -73 67t11 180q32 110 84.5 166.5 t107.5 56.5q43 0 58.5 -40t-0.5 -74l-2 -7q25 65 28 72q11 26 38.5 28.5t47 -14t11.5 -36.5q-43 -106 -144 -455q41 -9 183 -65.5t214 -56.5q120 0 135 62q4 14 16 12.5t19 -12.5zM118 71q16 -8 44 34.5t51 110.5t28 122.5t-11 62.5q-17 8 -45 -35t-50 -111 q-23 -69 -28 -122t11 -62zM60 -218q38 0 58 82q2 5 4 15q-39 -4 -63.5 -21t-24.5 -45q0 -14 7.5 -22.5t18.5 -8.5z" />
<glyph horiz-adv-x="394" d="M1094 -116q5 -6 2 -21.5t-7.5 -35.5t-20.5 -42t-35.5 -40.5t-52.5 -30.5t-73 -12q-86 0 -187.5 22t-179 49.5t-169.5 57.5t-150 41q-54 -138 -147 -138q-42 0 -62.5 21.5t-20.5 55.5q0 52 39.5 91t110.5 48q9 32 27 98q-41 -48 -90 -48q-54 0 -73 67t11 180 q32 110 84.5 166.5t107.5 56.5q43 0 58.5 -40t-0.5 -74l-2 -7q25 65 28 72q11 26 38.5 28.5t47 -14t11.5 -36.5q-40 -99 -143 -452q45 -8 162.5 -42t243 -58.5t246.5 -24.5q146 0 161 62q4 14 16 12.5t19 -12.5zM118 71q16 -8 44 34.5t51 110.5t28 122.5t-11 62.5 q-17 8 -45 -35t-50 -111q-23 -69 -28 -122t11 -62zM60 -218q38 0 58 82q2 5 4 15q-39 -4 -63.5 -21t-24.5 -45q0 -14 7.5 -22.5t18.5 -8.5z" />
<glyph horiz-adv-x="394" d="M361 -47q42 -25 25 -61q-13 -26 -40 -48q-18 -15 -18 -1q0 30 -26 49t-65 26q-42 -146 -103.5 -229t-154.5 -83q-53 0 -93 31t-40 84q0 96 89.5 161.5t211.5 87.5l21 78q-42 -48 -90 -48q-54 0 -73 67t11 180q32 110 84.5 166.5t107.5 56.5q29 0 46 -19.5t18 -44.5 t-6 -50l-2 -7q25 65 28 72q11 26 38.5 28.5t47 -14t11.5 -36.5q-47 -116 -134 -420q69 -3 106 -26zM118 71q16 -8 44 34.5t51 110.5t28 122.5t-11 62.5q-17 8 -45 -35t-51 -111t-28 -122t12 -62zM-17 -347q38 0 77 73.5t70 183.5q-76 -25 -136 -85t-60 -119q0 -21 12.5 -37 t36.5 -16z" />
<glyph horiz-adv-x="394" d="M240 -71q83 -12 136.5 -67.5t53.5 -123.5q0 -18 -31 -34q-36 -19 -46 0q-3 4 -3 11q-2 136 -99 168q-4 1 -11.5 3t-11.5 3q-61 -195 -149 -195q-43 0 -65 30.5t-16 66.5q7 47 44 81t91 49q1 4 3.5 12.5t3.5 13.5q4 13 13 47.5t15 53.5q-42 -48 -91 -48q-54 0 -72.5 67 t11.5 180q32 110 84.5 166.5t107.5 56.5q42 0 57.5 -40t-0.5 -74l-1 -7q12 35 28 72q11 26 38.5 28.5t46.5 -14t11 -36.5q-51 -129 -147 -469zM117 71q16 -8 44 34t51 111t28 122.5t-11 62.5q-16 8 -44 -35t-51 -111t-28 -122t11 -62zM52 -240q30 0 68 119q-71 -27 -81 -91 q-2 -10 2 -19t11 -9z" />
<glyph horiz-adv-x="375" d="M647 738q48 0 85.5 -17t56.5 -41t33 -51t13.5 -46.5t-1.5 -27.5q-6 -11 -18 -12.5t-16 12.5q-15 63 -135 63q-50 0 -116.5 -20.5t-120.5 -45t-118 -45t-111 -20.5h-1q-28 -86 -43 -141q70 124 136 124q29 0 45 -22t16.5 -51.5t-7.5 -58.5q-51 -152 -54 -192 q-2 -32 15 -32q29 0 94 104q4 7 11.5 6t10.5 -8q4 -5 0 -15q-14 -25 -29.5 -49t-45 -63.5t-62.5 -64t-61 -24.5q-51 0 -51 72q0 53 53 226q3 9 5.5 19t3.5 20t0 17t-6 7q-21 0 -63 -66t-57 -123v1q-27 -104 -34 -151q-4 -26 -35 -22q-33 5 -49 38q-6 13 -6 29q0 34 34.5 170 t78.5 269q-85 38 -85 132q0 55 43 95.5t91 40.5q50 0 77.5 -25.5t28 -62t-12.5 -77.5q-2 -6 -7.5 -21.5t-8.5 -24.5q45 8 105 37.5t108 59.5t106 54t104 24zM55 644q0 -48 66 -73q16 44 25 64q13 34 4.5 53t-35.5 19q-23 0 -41.5 -18.5t-18.5 -44.5z" />
<glyph horiz-adv-x="375" d="M422 216q4 -5 0 -15q-14 -25 -29.5 -49t-45 -63.5t-62.5 -64t-61 -24.5q-51 0 -51 72q0 53 53 226q3 9 5.5 19t3.5 20t0 17t-6 7q-21 0 -63 -66t-57 -123v1q-27 -104 -34 -151q-4 -26 -35 -22q-33 5 -49 38q-6 13 -6 29q0 33 33.5 166t77.5 265q-36 9 -176.5 64.5 t-211.5 55.5q-120 0 -135 -63q-4 -14 -16 -12.5t-19 12.5q-5 6 -2 21.5t7.5 36t20.5 42.5t35.5 40.5t52.5 30.5t73 12q55 0 124 -33t145.5 -76.5t126.5 -58.5q14 42 25 65q18 46 48 78t71 32q43 0 69.5 -30.5t26.5 -66.5q0 -57 -44 -104.5t-119 -55.5q-28 -88 -43 -142 q70 124 136 124q29 0 45 -22t16.5 -51.5t-7.5 -58.5q-51 -152 -54 -192q-2 -32 15 -32q29 0 94 104q4 7 11.5 6t10.5 -8zM297 678q-14 0 -29.5 -18.5t-27.5 -50.5q-7 -21 -17 -46q40 8 68 29.5t28 51.5q0 34 -22 34z" />
<glyph horiz-adv-x="375" d="M423 216q4 -7 -1 -15q-14 -25 -29.5 -49t-45 -63.5t-62.5 -64t-61 -24.5q-51 0 -51 72q0 53 53 226q3 9 5.5 19t4 20.5t0 17t-6.5 6.5q-21 0 -63 -66t-56 -123l-1 1q-27 -104 -34 -151q-4 -26 -35 -22q-33 5 -49 38q-6 13 -6 29q0 33 33 163t76 261q-44 7 -126 29.5 t-155.5 43t-178 37.5t-199.5 17q-147 0 -162 -63q-4 -14 -15.5 -12.5t-18.5 12.5q-1 8 -1.5 27.5t13.5 46.5t33 51t56.5 41t85.5 17q111 0 240.5 -35.5t256.5 -80t196 -56.5q13 36 27 69q19 46 49 78t70 32q44 0 70 -30.5t26 -66.5q0 -49 -46 -94.5t-115 -60.5 q-20 -61 -45 -147q70 124 136 124q29 0 45 -22t16.5 -51.5t-7.5 -58.5q-46 -140 -51 -174q-9 -50 12 -50q29 0 94 104q4 7 11.5 6t11.5 -8zM298 678q-14 0 -29.5 -18.5t-28.5 -50.5q-3 -8 -8.5 -23.5t-7.5 -22.5q40 8 68 29.5t28 51.5q0 34 -22 34z" />
<glyph horiz-adv-x="375" d="M949 738q40 0 73 -12t52.5 -30.5t35.5 -40.5t20.5 -42.5t7.5 -36.5t-2 -21q-7 -11 -19 -12.5t-16 12.5q-15 63 -161 63q-135 0 -282.5 -33t-261 -65.5t-167.5 -32.5q-21 0 -31 1q-28 -88 -43 -142q70 124 136 124q29 0 45 -22t16.5 -51.5t-7.5 -58.5q-51 -152 -54 -192 q-2 -32 15 -32q29 0 94 104q4 7 11.5 6t10.5 -8q4 -5 0 -15q-14 -25 -29.5 -49t-45 -63.5t-62.5 -64t-61 -24.5q-51 0 -51 72q0 53 53 226q3 9 5.5 19t3.5 20t0 17t-6 7q-21 0 -63 -66t-57 -123v1q-27 -104 -34 -151q-4 -26 -35 -22q-33 5 -49 38q-6 13 -6 29q0 34 35.5 173 t80.5 274q-88 43 -88 124q0 55 43 95.5t92 40.5q38 0 62.5 -15.5t33.5 -40.5t8 -53t-12 -56q-5 -16 -17 -48q61 6 155.5 35.5t177.5 60.5t192 56t201 25zM55 644q0 -48 66 -73q4 11 25 64q12 27 3.5 49.5t-34.5 22.5q-23 0 -41.5 -18.5t-18.5 -44.5z" />
<glyph horiz-adv-x="375" d="M503 780q0 -68 -45 -123t-108.5 -85.5t-138.5 -43.5q-27 -80 -56 -182q70 124 136 124q29 0 45 -22t16.5 -51.5t-7.5 -58.5q-51 -152 -54 -192q-2 -32 15 -32q29 0 94 104q5 7 12 7t10 -8q4 -6 0 -16q-14 -25 -29.5 -49t-45 -63.5t-62.5 -64t-61 -24.5q-51 0 -51 72 q0 13 1.5 27t5.5 32.5t6.5 30t9.5 36t9 32t11 36.5t10 32q3 9 5.5 19t3.5 20t0 17t-6 7q-21 0 -63 -66t-57 -123v2q-27 -107 -34 -152q-4 -26 -35 -21q-33 5 -48 37q-7 14 -7 29q0 35 36 176.5t82 276.5q-44 1 -77 14q-23 10 -28.5 29t3.5 32q8 16 24.5 19.5t32.5 -5.5 q29 -15 70 -19q6 16 18 46q51 130 110 198t139 68q43 0 75.5 -35.5t32.5 -86.5zM410 835q-86 0 -170 -226q-4 -12 -6 -17q59 8 108.5 29.5t84 60.5t34.5 88q0 25 -11 45t-40 20z" />
<glyph horiz-adv-x="375" d="M501 595q9 -13 3.5 -32t-28.5 -29q-42 -17 -114.5 -14t-143.5 26q-30 -83 -63 -200q70 124 136 124q29 0 45 -22t16.5 -51.5t-7.5 -58.5q-51 -152 -54 -192q-2 -32 15 -32q29 0 94 104q5 7 12 7t10 -8q4 -6 0 -16q-14 -25 -29.5 -49t-45 -63.5t-62.5 -64t-61 -24.5 q-51 0 -51 72q0 13 1.5 27t5.5 32.5t6.5 30t9.5 36t9 32t11 36.5t10 32q3 9 5.5 19t3.5 20t0 17t-6 7q-21 0 -63 -66t-57 -123v2q-27 -107 -34 -152q-4 -26 -35 -21q-33 5 -48 37q-7 14 -7 29q0 40 45 209.5t97 310.5q-128 75 -128 193q0 51 35 86.5t85 35.5q56 0 95 -32 t51 -97.5t-25 -163.5q-2 -8 -4 -11q59 -13 116.5 -10t92.5 21q16 9 32.5 5.5t23.5 -19.5zM41 770q0 -88 102 -140l3 6q35 90 25 144.5t-62 54.5q-37 0 -52.5 -20.5t-15.5 -44.5z" />
<glyph horiz-adv-x="375" d="M422 217q4 -6 0 -16q-14 -25 -29.5 -49t-45 -63.5t-62.5 -64t-61 -24.5q-51 0 -51 72q0 13 1.5 27t5.5 32.5t6.5 30t9.5 36t9 32t11 36.5t10 32q3 9 5.5 19t3.5 20t0 17t-6 7q-21 0 -63 -66t-57 -123v2q-27 -107 -34 -152q-4 -26 -35 -21q-33 5 -48 37q-7 14 -7 29 q0 35 35 173t80 271q-82 12 -134 67.5t-52 122.5q0 19 31 35q35 18 45 -1q3 -4 3 -11q4 -136 100 -168q14 -4 21 -5q14 42 32 85q42 109 119 109q43 0 64.5 -30.5t16.5 -66.5q-7 -47 -45.5 -81.5t-93.5 -49.5q-32 -98 -52 -171q70 124 136 124q29 0 45 -22t16.5 -51.5 t-7.5 -58.5q-51 -152 -54 -192q-2 -32 15 -32q29 0 94 104q4 7 11.5 7t10.5 -8zM292 679q-26 0 -52 -70q-6 -16 -18 -50q72 28 82 93q2 9 -1.5 18t-10.5 9z" />
<glyph horiz-adv-x="194" d="M261 577q-14 -38 -41.5 -65.5t-53.5 -27.5q-25 0 -33.5 27.5t5.5 65.5q13 39 40.5 66t53.5 27t34 -27t-5 -66zM611 -116q5 -6 2 -21.5t-7.5 -35.5t-20.5 -42t-35.5 -40.5t-52.5 -30.5t-73 -12q-54 0 -123 32.5t-147.5 76t-134.5 58.5q-53 -135 -146 -135 q-42 0 -62.5 21.5t-20.5 55.5q0 52 39.5 91t110.5 48q88 323 151 471q11 26 38.5 28.5t47 -14t11.5 -36.5q-43 -106 -144 -455q41 -9 183 -65.5t214 -56.5q120 0 135 62q4 14 16 12.5t19 -12.5zM-141 -218q37 0 58 82q2 5 4 15q-39 -4 -63.5 -21t-24.5 -45q0 -14 7.5 -22.5 t18.5 -8.5z" />
<glyph horiz-adv-x="194" d="M261 577q-14 -38 -41.5 -65.5t-53.5 -27.5q-25 0 -33.5 27.5t5.5 65.5q13 39 40.5 66t53.5 27t34 -27t-5 -66zM888 -116q5 -6 2 -21.5t-7.5 -35.5t-20 -42t-35 -40.5t-53 -30.5t-73.5 -12q-109 0 -235 33.5t-252.5 78t-193.5 57.5q-54 -137 -147 -137q-42 0 -62.5 21.5 t-20.5 55.5q0 52 39.5 91t110.5 48q88 323 151 471q11 26 38.5 28.5t47 -14t11.5 -36.5q-41 -102 -143 -453q43 -8 161.5 -42t242 -58t243.5 -24q147 0 162 62q4 14 16 12.5t18 -12.5zM-141 -218q37 0 58 82q2 5 4 15q-39 -4 -63.5 -21t-24.5 -45q0 -14 7.5 -22.5t18.5 -8.5 z" />
<glyph horiz-adv-x="194" d="M261 577q-14 -38 -41.5 -65.5t-53.5 -27.5q-25 0 -33.5 27.5t5.5 65.5q13 39 40.5 66t53.5 27t34 -27t-5 -66zM91 421q11 26 38.5 28.5t46.5 -14t11 -36.5q-47 -116 -134 -420q69 -3 106 -26q44 -25 25 -61q-12 -24 -38 -47q-19 -16 -19 -2q0 30 -26 49t-65 26 q-42 -146 -103.5 -229t-154.5 -83q-53 0 -93 31t-40 84q0 96 89 161.5t211 87.5q81 298 146 451zM-219 -347q73 0 148 257q-77 -25 -137 -85t-60 -119q0 -21 12.5 -37t36.5 -16z" />
<glyph horiz-adv-x="194" d="M261 577q-14 -38 -41.5 -65.5t-53.5 -27.5q-25 0 -33.5 27.5t5.5 65.5q13 39 40.5 66t53.5 27t34 -27t-5 -66zM39 -71q83 -12 136 -67.5t53 -123.5q0 -19 -31 -35q-35 -18 -45 1q-3 4 -3 11q-2 136 -100 168q-14 4 -22 6q-61 -195 -150 -195q-43 0 -64.5 30.5t-15.5 66.5 q7 47 44 81t91 49q3 15 7 26q85 316 152 474q11 26 38 28.5t46.5 -14t11.5 -36.5q-47 -117 -148 -469v-1zM-149 -240q30 0 68 119q-71 -27 -81 -91q-2 -10 2 -19t11 -9z" />
<glyph horiz-adv-x="342" d="M643 738q40 0 73 -12t52.5 -30.5t35.5 -40.5t20.5 -42.5t7.5 -36.5t-2 -21q-7 -11 -19 -12.5t-16 12.5q-15 63 -135 63q-62 0 -149 -32.5t-172 -65.5t-143 -33q-4 -13 -14.5 -50t-16.5 -57q54 90 125 90q26 0 45 -18.5t19 -44.5q0 -77 -152 -184q20 -104 55 -116 q8 0 13 -1t13 5.5t13.5 10.5t14 14t13.5 16.5t12.5 18t11.5 17.5t10 16.5t8 13.5q4 7 11.5 6t11.5 -8q5 -9 1 -14q-1 -1 -16 -27.5t-25.5 -43t-30 -44t-35 -44.5t-34.5 -30t-34 -13q-35 0 -63.5 47t-44.5 117q-27 -113 -32 -142q-4 -26 -35 -22q-33 5 -49 38q-6 13 -6 29 q0 34 33.5 170t76.5 268q-86 38 -86 133q0 55 42.5 95.5t91.5 40.5q50 0 77 -25t27.5 -62t-11.5 -80q-5 -14 -15 -44q55 11 134.5 55.5t154.5 82t133 37.5zM50 644q0 -48 67 -73q16 42 23 62q14 37 6 55.5t-36 18.5q-23 0 -41.5 -18.5t-18.5 -44.5zM126 234h-1 q-1 -1 -1 -2.5t-1 -2.5q53 48 90 95t37 71q0 16 -11 16q-20 0 -59 -58t-54 -119z" />
<glyph horiz-adv-x="342" d="M388 216q5 -10 2 -14q-1 -1 -16 -27.5t-25.5 -43t-30 -44t-35 -44.5t-34.5 -30t-34 -13q-36 0 -64.5 47t-43.5 117q-24 -95 -32 -142q-4 -26 -35 -22q-33 5 -49 38q-6 13 -6 29q0 34 32.5 167.5t74.5 262.5q-46 12 -122.5 44t-144.5 54.5t-122 22.5q-120 0 -135 -63 q-4 -14 -16 -12.5t-19 12.5q-5 6 -2 21.5t7.5 36t20.5 42.5t35.5 40.5t52.5 30.5t73 12q55 0 124 -33t145.5 -76.5t126.5 -58.5q12 33 24 63q18 46 48.5 79t71.5 33q43 0 69.5 -30.5t26.5 -66.5q0 -56 -43 -103.5t-116 -56.5q-5 -16 -10.5 -34t-12 -40t-10.5 -34 q56 90 126 90q26 0 45 -18.5t19 -44.5q0 -77 -152 -184q20 -104 55 -116q8 0 13 -1t13 5.5t13.5 10.5t14 14t13.5 16.5t12.5 18t11.5 17.5t10 16.5t8 13.5q4 7 11.5 6t10.5 -8zM125 234h-1q0 -1 -0.5 -2.5t-0.5 -2.5q53 48 90 95t37 71q0 16 -11 16q-20 0 -59.5 -58 t-54.5 -119zM292 678q-14 0 -29.5 -19.5t-27.5 -51.5q-5 -14 -15 -44q39 8 66.5 30t27.5 51q0 34 -22 34z" />
<glyph horiz-adv-x="342" d="M389 216q5 -9 1 -14q-1 -1 -16 -27.5t-25.5 -43t-30 -44t-35 -44.5t-34.5 -30t-34 -13q-35 0 -64 47t-44 117q-24 -95 -32 -142q-4 -26 -35 -22q-33 5 -49 38q-6 13 -6 29q0 33 31.5 163.5t73.5 260.5q-48 7 -164 41t-244.5 60t-251.5 26q-146 0 -161 -63 q-4 -14 -16 -12.5t-19 12.5q-5 6 -2 21.5t7.5 36t20.5 42.5t35.5 40.5t52.5 30.5t73 12q111 0 241 -35.5t257 -80t196 -56.5q5 16 25 67q19 47 49.5 79.5t71.5 32.5q43 0 69.5 -30.5t26.5 -66.5q0 -48 -45.5 -93.5t-113.5 -61.5q-28 -96 -33 -113q54 90 125 90 q26 0 45 -18.5t19 -44.5q0 -77 -152 -184q20 -104 55 -116q8 0 13 -1t13 5.5t13.5 10.5t14 14t13.5 16.5t12.5 18t11.5 17.5t10 16.5t8 13.5q4 7 11.5 6t11.5 -8zM126 234h-1q-1 -1 -1 -2.5t-1 -2.5q53 48 90 95t37 71q0 16 -11 16q-20 0 -59.5 -58.5t-53.5 -118.5zM293 678 q-14 0 -29.5 -19t-28.5 -52q-4 -14 -14 -44q39 8 66.5 30t27.5 51q0 34 -22 34z" />
<glyph horiz-adv-x="342" d="M944 738q40 0 73 -12t52.5 -30.5t35.5 -40.5t20.5 -42.5t7.5 -36.5t-2 -21q-7 -11 -19 -12.5t-16 12.5q-15 63 -161 63q-135 0 -282.5 -33t-261 -65.5t-167.5 -32.5q-19 0 -28 1q-22 -72 -32 -108q56 90 126 90q26 0 45 -18.5t19 -44.5q0 -75 -152 -184q20 -104 55 -116 q8 0 13 -1t13 5.5t13.5 10.5t14 14t13.5 16.5t12.5 18t11.5 17.5t10 16.5t8 13.5q4 7 11.5 6t10.5 -8q4 -9 2 -14q0 -1 -16 -27.5t-26 -42.5t-29.5 -44t-35 -45t-34.5 -30t-35 -13q-35 0 -63.5 47t-44.5 117q-24 -100 -31 -142q-4 -26 -34 -22q-34 5 -50 36q-7 14 -7 31 q0 35 34.5 174t78.5 273q-88 42 -88 124q0 55 42.5 95.5t91.5 40.5t76 -27.5t27 -64.5t-11 -75q-10 -30 -15 -46q73 8 201.5 53t267.5 84.5t255 39.5zM125 234h-1q0 -1 -0.5 -2.5t-0.5 -2.5q53 48 90 95t37 71q0 16 -11 16q-20 0 -59.5 -58t-54.5 -119zM50 644 q0 -24 18.5 -43t48.5 -30q7 22 23 62q12 27 4 50.5t-34 23.5q-23 0 -41.5 -18.5t-18.5 -44.5z" />
<glyph horiz-adv-x="342" d="M498 780q0 -99 -85 -164.5t-203 -87.5q-22 -67 -45 -148q54 90 125 90q26 0 45.5 -18.5t19.5 -44.5q0 -75 -152 -184q20 -104 54 -116q8 0 13 -1t13 5.5t13.5 10.5t14 14t13.5 16.5t12.5 18t11.5 17.5t10 16.5t8 13.5q4 7 11.5 6t11.5 -8q5 -9 1 -14q-1 -1 -16 -27.5 t-25.5 -43t-30 -44t-35 -44.5t-34.5 -30t-34 -13q-35 0 -63.5 47t-44.5 117q-27 -113 -32 -142q-4 -26 -35 -22q-33 5 -49 38q-6 13 -6 29q0 35 35 176.5t80 276.5q-45 1 -78 14q-23 10 -28.5 29t3.5 32q7 16 23.5 19.5t32.5 -5.5q31 -15 71 -19q2 4 8 19.5t9 23.5 q51 131 110 200t139 69q43 0 75.5 -35.5t32.5 -86.5zM405 835q-84 0 -169 -228q-4 -10 -5 -15q59 8 108.5 29.5t83.5 60.5t34 88q0 25 -11.5 45t-40.5 20zM126 234h-1q-1 -2 -1 -5q52 48 89 95t37 71q0 16 -10 16q-20 0 -59.5 -58t-54.5 -119z" />
<glyph horiz-adv-x="342" d="M497 595q9 -13 3 -32t-29 -29q-41 -17 -113 -14t-143 26q-28 -88 -50 -166q54 90 125 90q26 0 45 -18.5t19 -44.5q0 -77 -152 -184q20 -104 55 -116q8 0 13 -1t13 5.5t13.5 10.5t14 14t13.5 16.5t12.5 18t11.5 17.5t10 16.5t8 13.5q4 7 11.5 6t11.5 -8q5 -9 1 -14 q-1 -1 -16 -27.5t-25.5 -43t-30 -44t-35 -44.5t-34.5 -30t-34 -13q-35 0 -63.5 47t-44.5 117q-27 -113 -32 -142q-4 -26 -35 -22q-33 5 -49 38q-6 13 -6 29q0 41 43.5 210.5t94.5 309.5q-128 74 -128 193q0 52 34.5 87t84.5 35q56 0 95.5 -32.5t51.5 -98.5t-25 -164 q0 -1 -1.5 -4.5t-2.5 -5.5q59 -12 117 -9t91 21q16 9 32.5 5.5t24.5 -19.5zM126 234h-1q-1 -1 -1 -2.5t-1 -2.5q53 48 90 95t37 71q0 16 -11 16q-20 0 -59 -58t-54 -119zM37 770q0 -87 102 -141q0 1 1 3v1q36 91 26 146.5t-62 55.5q-37 0 -52 -20.5t-15 -44.5z" />
<glyph horiz-adv-x="342" d="M126 234h-1q-1 -1 -1 -2.5t-1 -2.5q53 48 90 95t37 71q0 16 -11 16q-20 0 -59 -58t-54 -119zM389 216q4 -8 1 -14q-1 -2 -16 -27.5t-25.5 -42.5t-29.5 -44.5t-34.5 -44.5t-34.5 -30t-35 -13q-35 0 -63.5 47t-44.5 117q-27 -113 -32 -142q-4 -26 -35 -22q-33 5 -49 38 q-6 13 -6 29q0 35 34 173t78 271q-82 12 -134.5 67.5t-52.5 122.5q0 19 31 35q35 18 45 -1q3 -4 3 -11q4 -136 100 -168q14 -4 21 -5q20 56 31 82q43 112 120 112q43 0 64.5 -30.5t16.5 -66.5q-7 -47 -44.5 -81t-91.5 -49q-22 -70 -41 -138q56 90 125 90q26 0 45.5 -18.5 t19.5 -44.5q0 -75 -152 -184q20 -104 54 -116q8 0 13 -1t13 5.5t13.5 10.5t14 14t13.5 16.5t12.5 18t11.5 17.5t10 16.5t8 13.5q4 7 11.5 6t11.5 -8zM288 679q-25 0 -52 -72q-2 -5 -7.5 -21.5l-8.5 -25.5q71 29 80 92q2 9 -1.5 18t-10.5 9z" />
<glyph horiz-adv-x="202" d="M658 738q40 0 73 -12t52.5 -30.5t35.5 -40.5t20.5 -42.5t7.5 -36.5t-2 -21q-7 -11 -18.5 -12.5t-15.5 12.5q-15 63 -136 63q-50 0 -116 -20.5t-120 -45t-118 -45t-111 -20.5h-1q-41 -120 -70 -218q-7 -24 -11 -39t-8.5 -35t-5.5 -32.5t-0.5 -25t5 -18t13.5 -5.5 q36 0 102 105q5 7 12.5 6t10.5 -9q4 -6 1 -14q-115 -202 -208 -202q-59 0 -59 72q0 53 53 226q29 97 67 207q-87 38 -87 133q0 55 43 95.5t91 40.5q50 0 77.5 -25t28 -62t-12.5 -79q-9 -27 -16 -45q56 10 135.5 55t154.5 82.5t133 37.5zM66 644q0 -50 67 -73q12 35 23 64 q26 72 -30 72q-23 0 -41.5 -18.5t-18.5 -44.5z" />
<glyph horiz-adv-x="202" d="M209 488q-41 -119 -69 -219q-11 -38 -16 -58t-9.5 -46.5t0 -38.5t17.5 -12q17 0 40 22t33 37.5t29 45.5q5 7 12.5 6t11.5 -9t0 -14q-13 -24 -28.5 -48.5t-45.5 -64.5t-65.5 -64.5t-68.5 -24.5q-29 0 -44 19t-15 53q0 53 53 226q27 87 65 199q-35 9 -176.5 65t-212.5 56 q-120 0 -135 -63q-4 -14 -16 -12.5t-19 12.5q-5 6 -2 21.5t7.5 36t20.5 42.5t35.5 40.5t52.5 30.5t73 12q55 0 124 -33t145.5 -76.5t126.5 -58.5q16 48 23 65q16 45 48 77.5t73 32.5q43 0 69 -30.5t26 -66.5q0 -57 -44 -104.5t-119 -55.5zM309 678q-14 0 -29.5 -18.5 t-27.5 -51.5q-5 -12 -16 -45q40 8 67.5 29.5t27.5 51.5q0 34 -22 34z" />
<glyph horiz-adv-x="202" d="M211 493q-36 -103 -72 -224q-7 -24 -11 -39t-8.5 -35t-5.5 -32.5t-0.5 -25t5 -18t13.5 -5.5q36 0 102 105q5 7 12.5 6t11.5 -9t0 -14q-115 -202 -208 -202q-59 0 -59 72q0 53 53 226q25 83 62 193q-48 7 -164 41t-244.5 60t-251.5 26q-146 0 -161 -63q-4 -14 -16 -12.5 t-19 12.5q-5 6 -2 21.5t7.5 36t20.5 42.5t35.5 40.5t52.5 30.5t73 12q111 0 241 -35.5t257 -80.5t196 -56q22 62 25 69q19 46 49.5 78t70.5 32q44 0 70 -30.5t26 -66.5q0 -49 -46 -94.5t-115 -60.5zM309 678q-14 0 -29.5 -19t-28.5 -51q-9 -27 -16 -45q40 8 68 29.5t28 51.5 q0 34 -22 34z" />
<glyph horiz-adv-x="202" d="M959 738q40 0 73 -12t52.5 -30.5t35.5 -40.5t20.5 -42.5t7.5 -36.5t-2 -21q-7 -11 -19 -12.5t-16 12.5q-15 63 -161 63q-135 0 -282.5 -33t-261 -65.5t-167.5 -32.5q-20 0 -30 1q-39 -114 -70 -219q-7 -24 -11 -39t-8.5 -35t-5.5 -32.5t-0.5 -25t5 -18t13.5 -5.5 q36 0 102 105q4 7 12 6t11 -9q4 -6 1 -14q-115 -202 -208 -202q-59 0 -59 72q0 53 53 226q27 88 69 215q-90 43 -90 125q0 55 43 95.5t92 40.5q38 0 62.5 -16t33.5 -41t8.5 -53t-11.5 -56q-2 -6 -7.5 -21.5t-8.5 -25.5q73 8 201.5 53t267.5 84.5t255 39.5zM65 644 q0 -24 19 -43.5t49 -29.5q12 35 23 64q12 27 3.5 49.5t-34.5 22.5q-23 0 -41.5 -18.5t-18.5 -44.5z" />
<glyph horiz-adv-x="202" d="M223 528q-49 -136 -84 -259q-7 -24 -11 -39t-8.5 -35t-5.5 -32.5t-0.5 -25t5 -18t13.5 -5.5q36 0 102 105q5 7 12.5 6t10.5 -9q4 -6 1 -14q-115 -202 -208 -202q-59 0 -59 72q0 53 53 226q37 121 72 222q-46 1 -79 14q-23 10 -28.5 29t3.5 32q8 16 24.5 19.5t32.5 -5.5 q29 -15 71 -19q11 33 16 45q51 130 110.5 198.5t139.5 68.5q43 0 75.5 -35.5t32.5 -86.5q0 -68 -45 -123t-108 -85t-138 -44zM421 835q-85 0 -170 -227q-1 -3 -5 -16q59 8 108.5 29.5t83.5 60.5t34 88q0 25 -11 45t-40 20z" />
<glyph horiz-adv-x="202" d="M511 595q9 -13 3.5 -32t-28.5 -29q-42 -17 -114 -14t-143 26q-55 -157 -90 -277q-11 -38 -16 -58t-9.5 -46.5t0.5 -38.5t18 -12q36 0 102 105q4 7 12 6t11 -9q4 -7 1 -14q-115 -202 -208 -202q-59 0 -59 72q0 60 53 226q50 163 94 288q-129 75 -129 194q0 51 35 86.5 t85 35.5q56 0 95 -32.5t51.5 -98t-24.5 -163.5q-3 -9 -4 -11q59 -12 116.5 -9t90.5 21q16 9 33 5.5t24 -19.5zM51 770q0 -87 102 -141q2 4 2 6q36 90 26 145t-63 55q-36 0 -51.5 -20.5t-15.5 -44.5z" />
<glyph horiz-adv-x="202" d="M276 745q43 0 64.5 -30.5t16.5 -66.5q-7 -47 -45 -81.5t-93 -49.5q-47 -135 -80 -248q-11 -38 -16 -58t-9.5 -46.5t0.5 -38.5t18 -12q36 0 102 105q5 7 12 6t11 -9q4 -7 1 -14q-115 -202 -208 -202q-59 0 -59 72q0 56 52 226q24 78 69 213q-82 12 -134.5 67.5 t-52.5 122.5q0 19 31 35q35 18 45 -1q3 -4 3 -11q4 -136 100 -168q14 -4 22 -5q5 15 29 84q44 110 121 110zM315 652q2 9 -1.5 18t-10.5 9q-25 0 -52 -71q-3 -7 -8.5 -23t-8.5 -25q71 27 81 92z" />
<glyph horiz-adv-x="568" d="M491 182q-14 -48 -7 -84.5t32 -36.5q15 0 -10 -27q-38 -38 -69 -41q-48 0 -61.5 51.5t11.5 142.5q12 43 33 111q3 10 5 19t3.5 20t0.5 17.5t-6 6.5q-20 0 -60.5 -61t-57.5 -118q-30 -114 -37 -160q-4 -26 -35 -22q-33 5 -49 38q-6 13 -6 29q0 54 53 231q3 10 5 19t3.5 20 t0.5 17.5t-6 6.5q-19 0 -57 -56.5t-57 -113.5q-28 -103 -40 -169q-4 -26 -35 -22q-33 5 -49 38q-6 13 -6 29q0 40 37 174.5t60 181.5q13 26 40 28t45.5 -14t10.5 -36q-2 -5 -13 -38q64 107 126 107q38 0 52 -35.5t6 -79.5q68 115 131 115q29 0 45 -22t16.5 -51.5t-7.5 -58.5 q-31 -92 -48 -156z" />
<glyph horiz-adv-x="568" d="M496 203q-29 -93 -24.5 -168t47.5 -75q44 0 90 54.5t78 127t52.5 141t20.5 101.5q2 4 15 3.5t30 -13.5t22 -33q7 -31 -18 -101t-68 -143.5t-108.5 -129t-129.5 -55.5q-56 0 -96 41t-40 119q0 53 53 226q3 10 5 19t3.5 20t0.5 17.5t-6 6.5q-20 0 -60.5 -61t-57.5 -118 q-30 -114 -37 -160q-4 -26 -35 -22q-33 5 -49 38q-6 13 -6 29q0 54 53 231q3 10 5 19t3.5 20t0.5 17.5t-6 6.5q-19 0 -57 -56.5t-57 -113.5q-28 -103 -40 -169q-4 -26 -35 -22q-33 5 -49 38q-6 13 -6 29q0 40 37 174.5t60 181.5q13 26 40 28t45.5 -14t10.5 -36 q-2 -5 -13 -38q64 107 126 107q38 0 52 -35.5t6 -79.5q68 115 131 115q29 0 45 -22t16.5 -51.5t-7.5 -58.5q-26 -75 -43 -135z" />
<glyph horiz-adv-x="379" d="M296 470q29 0 45 -22t16.5 -51.5t-7.5 -58.5q-31 -92 -48 -156q-13 -48 -6.5 -84.5t31.5 -36.5q15 0 -10 -27q-38 -38 -69 -41q-48 0 -61.5 51.5t11.5 142.5q12 43 33 111q3 10 5 19t3.5 20t0.5 17.5t-6 6.5q-19 0 -55.5 -53.5t-56.5 -109.5q-33 -123 -42 -176 q-4 -26 -35 -22q-33 5 -49 38q-6 13 -6 29q0 40 37 174.5t60 181.5q13 26 40 28t45.5 -14t10.5 -36q-2 -5 -13 -38q64 107 126 107z" />
<glyph horiz-adv-x="379" d="M234 361q-19 0 -55.5 -53.5t-56.5 -109.5q-33 -123 -42 -176q-4 -26 -35 -22q-33 5 -49 38q-6 13 -6 29q0 40 37 174.5t60 181.5q13 26 40 28t45.5 -14t10.5 -36q-2 -5 -13 -38q64 107 126 107q29 0 45 -22.5t16.5 -52t-7.5 -58.5q-25 -71 -43 -136q-29 -94 -24.5 -169.5 t47.5 -75.5q44 0 90 55t78 128.5t52.5 142t20.5 101.5q2 4 15 3.5t30 -13.5t22 -33q7 -32 -18 -102.5t-68 -144.5t-108.5 -130t-129.5 -56q-56 0 -96 41.5t-40 120.5q0 53 53 228q3 9 5 19t3.5 20.5t0.5 17.5t-6 7z" />
<glyph horiz-adv-x="347" d="M722 460q40 0 73 -12t52.5 -30.5t35.5 -40.5t20.5 -42.5t7.5 -36.5t-2 -21q-7 -11 -19 -12.5t-16 12.5q-15 63 -135 63q-74 0 -220 -48.5t-200 -55.5q-2 -8 -4 -14q-37 -110 -92.5 -166t-111.5 -56q-54 0 -82.5 36t-28.5 105q0 96 42 190.5t90 116.5q27 11 48 -25 q35 47 86 47q45 0 64.5 -49.5t2.5 -132.5q49 16 124.5 61t143 78t121.5 33zM215 225q2 4 7 19q-58 23 -67 87q-15 -29 -31 -70q-24 -60 -30 -117.5t13 -69.5q21 -10 51.5 34t56.5 117zM231 282q9 45 6.5 78t-14.5 39q-14 7 -24 -4.5t-10 -31.5q0 -59 42 -81z" />
<glyph horiz-adv-x="347" d="M266 470q35 0 53 -30t18 -72.5t-6.5 -81.5t-15.5 -64q-37 -110 -92.5 -166t-111.5 -56q-54 0 -82.5 36t-28.5 105q0 96 42 190.5t90 116.5q27 11 48 -25q35 47 86 47zM215 225q13 38 20.5 76.5t5 67t-17.5 30.5q-17 2 -46.5 -36.5t-52.5 -101.5q-23 -64 -29 -118.5 t12 -68.5q21 -10 51.5 34t56.5 117z" />
<glyph horiz-adv-x="373" d="M604 -116q5 -6 2 -21.5t-7.5 -35.5t-20.5 -42t-35.5 -40.5t-52.5 -30.5t-73 -12q-54 0 -123 32.5t-147.5 76t-134.5 58.5q-53 -135 -146 -135q-42 0 -62.5 21.5t-20.5 55.5q0 52 39.5 91t110.5 48q86 314 151 471q11 25 35.5 28.5t44 -9.5t19.5 -31q48 61 104 61 q54 0 69.5 -67.5t-20.5 -180.5q-34 -100 -88 -161q49 15 94 62t72 97q4 7 11.5 5.5t11.5 -9.5q4 -7 0 -16q-12 -22 -29.5 -45.5t-46.5 -53.5t-62 -52.5t-77 -37t-89 -11.5q-29 0 -44 18t-17 46q-17 -58 -35 -120q41 -9 183 -65.5t214 -56.5q120 0 135 62q4 14 16 12.5 t19 -12.5zM243 399q-16 8 -46 -34.5t-56 -110.5q-27 -68 -34.5 -122.5t8.5 -62.5t46 35t56 111q27 68 34.5 122t-8.5 62zM-147 -218q36 0 58 82l3 15q-39 -4 -63.5 -21t-24.5 -45q0 -14 7.5 -22.5t19.5 -8.5z" />
<glyph horiz-adv-x="373" d="M436 216q4 -7 0 -16q-12 -22 -29.5 -45.5t-46.5 -53.5t-62 -52.5t-77 -37t-89 -11.5q-29 0 -44 18t-17 46q-4 -14 -39 -134q0 -1 -0.5 -3t-0.5 -3q36 -21 55.5 -55t19.5 -70q0 -47 -29 -76t-76 -29q-59 0 -80.5 50.5t-5.5 134.5q-48 -5 -110 -33.5t-112.5 -60t-112 -57.5 t-109.5 -26q-40 0 -73 12t-52.5 30.5t-35.5 40.5t-20.5 42t-7.5 35.5t2 21.5q7 11 19 12.5t16 -12.5q15 -62 135 -62q62 0 149 32.5t172.5 65t143.5 32.5h14q84 311 151 469q10 24 34.5 28t44 -9t19.5 -31q50 61 104 61q35 0 55 -30t19.5 -87.5t-25.5 -130.5 q-34 -100 -88 -161q49 15 94 62t72 97q4 7 11.5 5.5t11.5 -9.5zM65 -205q0 42 -53 67q-9 -29 -13.5 -48t-5.5 -38.5t6.5 -29t23.5 -9.5q19 0 30.5 17t11.5 41zM114 69q16 -8 46 35t56 111q27 69 34.5 122t-8.5 62q-16 8 -45.5 -34t-56.5 -111q-26 -68 -34 -122.5t8 -62.5z " />
<glyph horiz-adv-x="373" d="M436 216q5 -7 0 -16q-15 -28 -40 -59t-63 -66.5t-91 -56.5t-109 -18q-29 0 -44 18t-17 46q-8 -27 -22 -74.5t-17 -59.5q-1 -1 -1 -3t-1 -3q36 -21 56 -55t20 -70q0 -46 -29.5 -75.5t-75.5 -29.5q-60 0 -81.5 50t-5.5 135q-62 -4 -157.5 -32.5t-181 -60.5t-198 -58 t-206.5 -26q-35 0 -64.5 9t-49 23.5t-35.5 32.5t-23 36t-13 35t-4.5 29t2.5 17q6 11 18 12.5t16 -12.5q15 -62 162 -62q106 0 225 20.5t203.5 44.5t172 44.5t137.5 20.5h15q83 309 150 469q10 24 34.5 28t44.5 -9t20 -31q48 61 104 61q54 0 69.5 -67.5t-20.5 -180.5 q-36 -103 -88 -161q49 15 94 62t72 97q4 7 11.5 5.5t10.5 -9.5zM65 -205q0 43 -53 67q-8 -29 -12.5 -47.5t-5.5 -38.5t6.5 -29.5t23.5 -9.5q18 0 29.5 17.5t11.5 40.5zM115 69q16 -8 45.5 34.5t56.5 111.5q26 69 34 122t-8 62q-16 8 -46 -34.5t-56 -110.5 q-27 -68 -34.5 -122.5t8.5 -62.5z" />
<glyph horiz-adv-x="373" d="M885 -116q5 -6 2 -21.5t-7.5 -35.5t-20.5 -42t-35.5 -40.5t-52.5 -30.5t-73 -12q-86 0 -187.5 22t-179 49.5t-169 57.5t-149.5 41q-55 -138 -148 -138q-42 0 -62.5 21.5t-20.5 55.5q0 52 40 91t111 48q83 310 151 471q10 24 34.5 28t44 -9t19.5 -31q50 61 104 61 q35 0 55 -30t19.5 -87.5t-25.5 -130.5q-34 -100 -88 -161q49 15 94 62t72 97q4 7 11.5 5.5t11.5 -9.5q4 -7 0 -16q-12 -22 -29.5 -45.5t-46.5 -53.5t-62 -52.5t-77 -37t-89 -11.5q-29 0 -44 18t-17 45q-6 -18 -17 -57.5t-17 -58.5q45 -8 163 -42t243.5 -58.5t245.5 -24.5 q147 0 162 62q4 14 15.5 12.5t18.5 -12.5zM242 399q-16 8 -45.5 -34t-56.5 -111q-26 -68 -34 -122.5t8 -62.5t46 35t56 111q27 69 34.5 122t-8.5 62zM-148 -218q38 0 58 82q2 10 4 15q-40 -4 -64 -21t-24 -45q0 -14 7.5 -22.5t18.5 -8.5z" />
<glyph horiz-adv-x="373" d="M436 216q4 -7 0 -16q-12 -22 -29.5 -45.5t-46.5 -53.5t-62 -52.5t-77 -37t-89 -11.5q-29 0 -44 17.5t-17 45.5q-12 -43 -24 -84q69 -3 106 -26q42 -25 25 -61q-14 -27 -40 -48q-17 -15 -17 -1q0 30 -26 49t-65 26q-43 -146 -104.5 -229t-154.5 -83q-53 0 -92.5 31 t-39.5 84q0 96 89 161.5t211 87.5q81 296 145 451q10 24 34.5 28t44.5 -8.5t20 -30.5q47 60 103 60q54 0 69.5 -67.5t-20.5 -180.5q-34 -100 -88 -161q49 15 94 62t72 97q4 7 11.5 5.5t11.5 -9.5zM-225 -347q38 0 77 73.5t70 183.5q-76 -25 -136 -85t-60 -119 q0 -21 12.5 -37t36.5 -16zM114 69q16 -8 46 35t56 111q27 68 34.5 122t-8.5 62t-46 -34.5t-56 -110.5q-27 -68 -34.5 -122.5t8.5 -62.5z" />
<glyph horiz-adv-x="373" d="M436 216q4 -7 0 -16q-12 -22 -29.5 -45.5t-46.5 -53.5t-62 -52.5t-77 -37t-89 -11.5q-30 0 -45 18.5t-16 46.5q-11 -35 -39 -135v-1q83 -12 136 -67.5t53 -123.5q0 -19 -31 -35q-35 -18 -45 1q-3 4 -3 11q-2 136 -100 168q-14 4 -22 6q-61 -195 -150 -195 q-43 0 -64.5 30.5t-15.5 66.5q7 47 44 81t91 49q3 15 7 26q85 316 152 474q10 24 34.5 28t44 -9t19.5 -31q50 61 104 61t69.5 -67.5t-20.5 -180.5q-34 -100 -88 -161q49 15 94 62t72 97q4 7 11.5 5.5t11.5 -9.5zM-156 -240q28 0 68 119q-71 -27 -81 -91q-2 -10 2 -19t11 -9z M114 69q16 -8 46 35t56 111q27 68 34.5 122t-8.5 62t-46 -34.5t-56 -110.5q-27 -68 -34.5 -122.5t8.5 -62.5z" />
<glyph horiz-adv-x="386" d="M382 399q-37 -94 -148 -469q0 -2 -2 -6q36 -21 56 -55t20 -70q0 -46 -29.5 -75.5t-75.5 -29.5q-60 0 -81 50t-6 135q-47 -5 -109.5 -33.5t-113 -60t-112 -57.5t-108.5 -26q-40 0 -73.5 12t-53 30.5t-35 40.5t-20 42t-7.5 35.5t2 21.5q7 11 18.5 12.5t15.5 -12.5 q15 -62 136 -62q62 0 149 32.5t172.5 65t143.5 32.5h14q12 46 27 96q-42 -48 -91 -48q-54 0 -73 67t11 180q32 110 84.5 166.5t107.5 56.5q43 0 58.5 -40t-0.5 -74l-2 -7q25 65 28 72q12 26 39 28.5t46.5 -14t11.5 -36.5zM111 71q16 -8 44 34.5t51 110.5t28 122.5t-11 62.5 q-16 7 -44 -35.5t-51 -110.5q-23 -69 -28 -122t11 -62zM267 -205q0 42 -53 67q-9 -29 -13.5 -48t-5.5 -38.5t6.5 -29t23.5 -9.5q18 0 30 17.5t12 40.5z" />
<glyph horiz-adv-x="386" d="M382 399q-43 -108 -147 -469q-2 -4 -2 -6q36 -21 56 -55t20 -70q0 -46 -29.5 -75.5t-76.5 -29.5q-59 0 -80.5 50.5t-5.5 134.5q-62 -4 -158 -32.5t-181.5 -60.5t-198 -58t-206.5 -26q-40 0 -73 12t-52.5 30.5t-35.5 40.5t-20.5 42t-7.5 35.5t2 21.5q7 11 19 12.5 t16 -12.5q15 -62 161 -62q106 0 225 20.5t204 44.5t172 44.5t137 20.5h15q12 46 27 96q-42 -48 -91 -48q-54 0 -72.5 67t11.5 180q31 110 83.5 166.5t107.5 56.5q43 0 58.5 -40t-0.5 -74l-1 -7q12 35 28 72q11 26 38.5 28.5t46.5 -14t11 -36.5zM267 -205q0 42 -53 67 q-9 -29 -13.5 -48t-5.5 -38.5t6.5 -29t23.5 -9.5q19 0 30.5 17t11.5 41zM206 216q23 69 28 122.5t-11 62.5q-16 8 -44 -35t-51 -111t-28 -122t11 -62t44 34t51 111z" />
<glyph horiz-adv-x="309" d="M358 216q4 -7 -1 -15q-12 -22 -29 -48.5t-45.5 -64.5t-62 -63t-61.5 -25q-50 0 -50 72q0 55 22.5 139t51.5 154q-9 -4 -30 -4q-12 0 -19 2q-14 -46 -31 -92.5t-39.5 -99.5t-46.5 -86t-43 -33q-14 0 -23 13.5t-8 25.5t4 14q16 0 73.5 111t74.5 171q-29 33 -29 81 q0 53 31 98.5t60 45.5q33 0 33 -46q0 -8 -1 -16.5t-1.5 -15t-3.5 -17t-4 -16t-5.5 -19.5t-6.5 -19.5t-8.5 -24t-8.5 -25.5q28 3 78 30q27 16 57 -0.5t20 -41.5q0 -1 -9 -23t-17.5 -45t-20 -55t-19 -59t-12.5 -51.5t-1.5 -39t14.5 -14.5q29 0 94 104q4 7 11.5 6t11.5 -8z" />
<glyph horiz-adv-x="309" d="M358 216q4 -7 -1 -15q-12 -22 -29 -48.5t-45.5 -64.5t-62 -63t-61.5 -25q-50 0 -50 72q0 55 22.5 139t51.5 154q-9 -4 -30 -4q-12 0 -19 2q-52 -119 -122 -195t-145 -76q-41 0 -73 20t-43 39q-6 15 -1 30t14.5 26.5t12.5 7.5q1 -1 11 -12t18 -17.5t26.5 -13t41.5 -6.5 q128 0 221 221q-29 33 -29 81q0 53 31 98.5t60 45.5q33 0 33 -46q0 -8 -1 -16.5t-1.5 -15t-3.5 -17t-4 -16t-5.5 -19.5t-6.5 -19.5t-8.5 -24t-8.5 -25.5q28 3 78 30q27 16 57 -0.5t20 -41.5q0 -1 -9 -23t-17.5 -45t-20 -55t-19 -59t-12.5 -51.5t-1.5 -39t14.5 -14.5 q29 0 94 104q4 7 11.5 6t11.5 -8z" />
<glyph horiz-adv-x="309" d="M229 443q27 16 57 -0.5t20 -41.5q-68 -141 -79 -249q-9 -87 34 -87q14 0 -12 -27q-42 -42 -74 -45q-38 0 -55.5 30.5t-8.5 91.5q15 100 72 250q-9 -4 -30 -4q-11 0 -22 3q-40 -91 -94 -182q-6 -8 -13.5 -6.5t-10 9.5t0.5 16q53 89 81 186q-29 33 -29 81q0 53 31 98.5 t60 45.5q14 0 23.5 -15.5t9.5 -38.5q0 -31 -8 -59.5t-31 -85.5q28 3 78 30z" />
<glyph horiz-adv-x="309" d="M130 202q21 84 53 163q-9 -4 -30 -4q-11 0 -22 3q-40 -91 -94 -182q-6 -8 -13.5 -6.5t-10 9.5t0.5 16q53 89 81 186q-29 33 -29 81q0 53 31 98.5t60 45.5q14 0 23.5 -15.5t9.5 -38.5q0 -31 -8 -59.5t-31 -85.5q28 3 78 30q27 16 57 -0.5t20 -41.5q-49 -127 -61 -165 q-15 -49 -25 -95.5t-13.5 -88t5.5 -67t31 -25.5q44 0 90 54.5t78 127t52.5 141t20.5 101.5q2 4 15 3.5t30.5 -13.5t21.5 -33q7 -31 -18 -101t-67.5 -143.5t-108 -129t-129.5 -55.5q-59 0 -95.5 80t-2.5 210z" />
<glyph horiz-adv-x="241" d="M289 216q6 -8 0 -15q-119 -203 -247 -201h-10q-49 0 -81 60q-6 11 14 32q14 15 18 7q18 -39 42 -39t37 30.5t13 59.5q0 39 -3 96t-4 82.5t3 69.5q11 79 63 128t91 22q51 -37 -65 -186q2 -12 10 -51.5t12 -71.5t4 -68q0 -28 -7 -56q54 44 88 104q4 7 11.5 6t10.5 -9z" />
<glyph horiz-adv-x="260" d="M781 118q5 -6 2 -21.5t-7.5 -35.5t-20.5 -42t-35.5 -40.5t-52.5 -30.5t-73 -12q-43 0 -97.5 22.5t-99 51t-101 60t-98.5 44.5q-14 -36 -53.5 -75t-93.5 -39q-49 0 -81 60q-4 6 4 19.5t18 19.5q0 7 4 11q35 43 98 67v112q-33 -67 -58 -107q-8 -13 -19 -3t-3 22 q55 99 81 188q1 51 27.5 95.5t61.5 63t60 0.5q51 -37 -65 -186q2 -11 10 -49.5t12 -69t4 -63.5q49 -10 127.5 -42.5t150.5 -57t128 -24.5q120 0 135 62q4 14 16 12.5t19 -12.5zM44 60q33 0 46 59q-51 -12 -78 -39q15 -20 32 -20z" />
<glyph horiz-adv-x="260" d="M61 0h-10q-49 0 -81 60q-6 11 14 32q14 15 18 7q18 -39 42 -39t37 30.5t13 59.5v139q-33 -67 -58 -107q-8 -13 -19 -3t-3 22q55 99 81 188q1 51 27.5 95.5t61.5 63t60 0.5q51 -37 -65 -186q2 -12 10 -51.5t12 -71.5t4 -68q0 -11 -1.5 -26t-10 -42.5t-22.5 -48.5 t-42.5 -37.5t-67.5 -16.5z" />
<glyph horiz-adv-x="218" d="M667 738q35 0 64.5 -9t49 -23.5t35.5 -32.5t23 -36.5t13 -35.5t4.5 -29t-2.5 -17q-6 -11 -18 -12.5t-16 12.5q-15 63 -135 63q-63 0 -150 -33t-172 -65.5t-143 -32.5h-2q-9 -24 -18 -51q9 1 19 2.5t15.5 2.5t8.5 1q16 2 5 -35q-13 -40 -32 -49q-12 -4 -43 -6 q-3 -10 -11.5 -38.5t-13.5 -44.5q-7 -24 -11 -39t-8.5 -35t-5.5 -32.5t-0.5 -25t5 -18t13.5 -5.5q38 0 103 104q4 7 11.5 6t10.5 -8q4 -5 0 -15q-114 -201 -207 -201q-59 0 -59 72q0 53 53 226q1 2 17 54q-7 0 -16.5 0.5t-15.5 1t-9 0.5q-18 1 -6 26q14 27 34 32q8 3 34 6 q3 10 9 28t11 32.5t9 26.5q-87 38 -87 133q0 55 43 95.5t91 40.5q50 0 77.5 -24.5t28.5 -61t-12 -79.5q-3 -6 -8.5 -21.5t-8.5 -24.5q56 10 135.5 55t154.5 82.5t133 37.5zM75 644q0 -48 67 -73q13 37 20 58q13 34 6 56t-33 22q-23 0 -41.5 -18.5t-18.5 -44.5z" />
<glyph horiz-adv-x="218" d="M381 648q0 -57 -44 -104.5t-119 -55.5q-6 -16 -18 -52q11 2 26 4t17 2q16 2 5 -35q-13 -40 -32 -49q-12 -4 -43 -6q-3 -10 -11.5 -38.5t-13.5 -44.5q-7 -24 -11 -39t-8.5 -35t-5.5 -32.5t-0.5 -25t5 -18t13.5 -5.5q38 0 103 104q4 7 11.5 6t10.5 -8q4 -5 0 -15 q-114 -201 -207 -201q-59 0 -59 72q0 53 53 226q1 2 17 54q-7 0 -16.5 0.5t-15.5 1t-9 0.5q-19 1 -6 27q14 26 33 31q10 3 35 6q2 7 11.5 35.5l14.5 43.5q-46 12 -122.5 44t-144.5 54.5t-122 22.5q-120 0 -135 -63q-4 -14 -16 -12.5t-18 12.5q-1 5 -2.5 17t4.5 29t13 35.5 t23 36.5t35.5 32.5t49 23.5t64.5 9q55 0 124 -33t145 -76.5t127 -58.5q4 13 11 32.5t9 26.5q17 47 49.5 81.5t73.5 34.5q43 0 69.5 -30.5t26.5 -66.5zM318 678q-32 0 -57 -69q-3 -6 -8.5 -21.5t-8.5 -24.5q40 8 67.5 29.5t27.5 51.5q0 34 -21 34z" />
<glyph horiz-adv-x="218" d="M381 648q0 -49 -46 -94.5t-116 -60.5l-19 -57q11 2 26 4t17 2q16 2 5 -35q-13 -40 -32 -49q-12 -4 -43 -6q-3 -10 -11.5 -38.5t-13.5 -44.5q-7 -24 -11 -39t-8.5 -35t-5.5 -32.5t-0.5 -25t5 -18t13.5 -5.5q38 0 103 104q4 7 11.5 6t10.5 -8q4 -5 0 -15 q-114 -201 -207 -201q-59 0 -59 72q0 53 53 226q1 2 17 54q-7 0 -16.5 0.5t-15.5 1t-9 0.5q-19 1 -6 27q14 26 33 31q10 3 35 6q16 50 24 73q-48 8 -164 41.5t-245 59.5t-251 26q-147 0 -162 -63q-4 -14 -16 -12.5t-19 12.5q-5 6 -2 21.5t8 36t20.5 42.5t35 40.5t53 30.5 t73.5 12q111 0 241 -35.5t257 -80.5t196 -56q5 14 13 37.5t9 25.5q44 116 123 116q43 0 69.5 -30.5t26.5 -66.5zM318 678q-32 0 -57 -69q-3 -6 -8.5 -21.5t-8.5 -24.5q40 8 67.5 29.5t27.5 51.5q0 34 -21 34z" />
<glyph horiz-adv-x="218" d="M969 738q40 0 73 -12t52.5 -30.5t35.5 -40.5t20.5 -42.5t7.5 -36.5t-2 -21q-7 -11 -18.5 -12.5t-15.5 12.5q-15 63 -162 63q-135 0 -282.5 -33t-261 -65.5t-167.5 -32.5q-21 0 -31 1q-6 -16 -18 -52q9 1 19 2.5t15.5 2.5t8.5 1q16 2 5 -35q-13 -40 -32 -49q-12 -4 -43 -6 q-3 -10 -11.5 -38.5t-13.5 -44.5q-7 -24 -11 -39t-8.5 -35t-5.5 -32.5t-0.5 -25t5 -18t13.5 -5.5q38 0 103 104q4 7 11.5 6t10.5 -8q4 -5 0 -15q-114 -201 -207 -201q-59 0 -59 72q0 53 53 226q1 2 17 54q-7 0 -16.5 0.5t-15.5 1t-9 0.5q-18 1 -6 26q14 27 34 32q8 3 34 6 q4 11 10.5 31t11.5 35.5t10 29.5q-89 42 -89 124q0 55 42.5 95.5t91.5 40.5t76.5 -27t27.5 -63.5t-11 -74.5q-10 -27 -17 -48q61 6 155 35.5t177.5 60.5t192.5 56t200 25zM75 644q0 -24 18.5 -43t48.5 -30q18 53 20 58q13 32 6 55t-32 23q-23 0 -42 -18.5t-19 -44.5z" />
<glyph horiz-adv-x="218" d="M522 780q0 -99 -86 -164.5t-204 -87.5q-6 -15 -17 -47t-15 -45q9 1 19 2.5t15.5 2.5t8.5 1q16 2 5 -35q-13 -40 -32 -49q-12 -4 -43 -6q-3 -10 -11.5 -38.5t-13.5 -44.5q-7 -24 -11 -39t-8.5 -35t-5.5 -32.5t-0.5 -25t5 -18t13.5 -5.5q38 0 103 104q4 7 11.5 6t10.5 -8 q4 -5 0 -15q-114 -201 -207 -201q-59 0 -59 72q0 53 53 226q1 2 17 54q-7 0 -16.5 0.5t-15.5 1t-9 0.5q-18 1 -6 26q14 27 34 32q8 3 34 6q11 36 34 102q-46 1 -79 14q-23 10 -28.5 29t3.5 32q7 16 23.5 19.5t32.5 -5.5q27 -14 72 -19l13 39q100 273 252 273 q43 0 75.5 -35.5t32.5 -86.5zM429 835q-84 0 -168 -226q-2 -5 -6 -17q59 8 108.5 29.5t83.5 60.5t34 88q0 25 -11.5 45t-40.5 20z" />
<glyph horiz-adv-x="218" d="M520 595q9 -13 3.5 -32t-28.5 -29q-42 -17 -114 -14t-143 26q-22 -62 -38 -110q9 1 19 2.5t15.5 2.5t8.5 1q16 2 5 -35q-13 -40 -32 -49q-12 -4 -43 -6q-3 -10 -11.5 -38.5t-13.5 -44.5q-7 -24 -11 -39t-8.5 -35t-5.5 -32.5t-0.5 -25t5 -18t13.5 -5.5q38 0 103 104 q4 7 11.5 6t10.5 -8q4 -5 0 -15q-114 -201 -207 -201q-59 0 -59 72q0 53 53 226q1 2 17 54q-7 0 -16.5 0.5t-15.5 1t-9 0.5q-18 1 -6 26q14 27 34 32q8 3 34 6q40 122 56 168q-128 74 -128 194q0 52 34.5 87t84.5 35q56 0 95 -32t51.5 -97t-23.5 -164q-1 -2 -2 -6t-2 -6 q58 -12 115.5 -9t91.5 21q16 9 32.5 5.5t23.5 -19.5zM60 770q0 -88 103 -141q22 63 26 109.5t-11.5 71.5t-49.5 25q-37 0 -52.5 -20.5t-15.5 -44.5z" />
<glyph horiz-adv-x="218" d="M286 745q43 0 64.5 -30.5t16.5 -66.5q-7 -47 -45 -81.5t-93 -49.5q-1 -2 -28 -81q9 1 18 2.5t16 2.5t9 1q15 2 4 -35q-12 -40 -31 -49q-12 -4 -43 -6q-9 -27 -25 -83q-11 -38 -16 -58t-9.5 -46.5t0.5 -38.5t18 -12q37 0 102 104q4 7 11.5 6t11.5 -8q3 -6 -1 -15 q-114 -201 -206 -201q-59 0 -59 72q0 56 52 226q3 8 5.5 16.5t6 19.5t5.5 18q-7 0 -16.5 0.5t-15.5 1t-9 0.5q-18 1 -6 26q14 27 34 32q8 3 35 6q15 48 30 93q-82 12 -134.5 67.5t-52.5 122.5q0 19 31 35q35 18 45 -1q3 -4 3 -11q4 -136 100 -168q14 -4 22 -5q4 11 27 78 q42 116 123 116zM325 652q2 9 -1.5 18t-10.5 9q-27 0 -52 -70q-5 -17 -17 -49q71 27 81 92z" />
<glyph horiz-adv-x="218" d="M508 664q35 0 64.5 -9t49 -23.5t35.5 -32.5t23 -36.5t13 -35.5t4.5 -28.5t-2.5 -16.5q-6 -11 -18 -12.5t-16 12.5q-15 62 -135 62q-46 0 -96.5 -14t-127 -45.5t-99.5 -39.5q-37 -115 -55 -176q-7 -24 -11 -39t-8.5 -35t-5.5 -32.5t-0.5 -25t5 -18t13.5 -5.5q38 0 103 104 q4 7 11.5 6t10.5 -8q4 -5 0 -15q-114 -201 -207 -201q-59 0 -59 72q0 53 53 226q16 53 37 117q-20 -2 -29 -2q-89 0 -138 41.5t-49 110.5q0 55 43 95.5t91 40.5q40 0 69 -23.5t29 -57.5q0 -45 -50 -64q-34 -13 -47 -2q-4 3 -2 8q14 33 5 52t-36 19q-23 0 -41.5 -18.5 t-18.5 -43.5q0 -37 40.5 -61t89.5 -24q35 0 71 12q40 120 56 160q12 27 38.5 29.5t45.5 -14.5t13 -37t-29 -81q11 6 44 24.5t47.5 26.5t43 21.5t46.5 20t42 11.5t44 5z" />
<glyph horiz-adv-x="218" d="M396 701q48 0 91 -40.5t43 -95.5q0 -69 -49 -110.5t-138 -41.5q-56 0 -140 31q-29 -88 -55 -175q-7 -24 -11 -39t-8.5 -35t-5.5 -32.5t-0.5 -25t5 -18t13.5 -5.5q38 0 103 104q4 7 11.5 6t10.5 -8q4 -5 0 -15q-114 -201 -207 -201q-59 0 -59 72q0 53 53 226q28 89 58 182 q-158 64 -233 64q-120 0 -135 -62q-4 -14 -16 -12.5t-18 12.5q-1 8 -1.5 27t13.5 46t33 51t56.5 41t85.5 17q34 0 77 -14.5t70 -28.5t80 -44q4 -2 6.5 -3.5t5.5 -3t6 -3.5q10 31 32 91q12 27 38.5 29.5t45.5 -14.5t13 -37q-2 -7 -41 -116q75 -34 129 -34q49 0 89.5 24 t40.5 61q0 25 -18.5 43.5t-41.5 18.5q-27 0 -36 -19t5 -52q4 -9 -11 -12q-31 -4 -61 18q-27 20 -27 52q0 34 29 57.5t69 23.5z" />
<glyph horiz-adv-x="218" d="M865 738q40 0 73 -12t52.5 -30.5t35.5 -40.5t20.5 -42.5t7.5 -36.5t-2 -21q-7 -11 -19 -12.5t-16 12.5q-15 63 -161 63q-117 0 -236.5 -23t-238.5 -57t-160 -42q-42 -120 -73 -227q-7 -24 -11 -39t-8.5 -35t-5.5 -32.5t-0.5 -25t5 -18t13.5 -5.5q38 0 103 104q4 7 11.5 6 t10.5 -8q4 -5 0 -15q-114 -201 -207 -201q-59 0 -59 72q0 53 53 226q36 116 61 191q-67 8 -117 46t-63 85q-3 10 3.5 18.5t17.5 7.5q15 -2 18 -15q8 -32 46.5 -52t82.5 -20q11 0 37 2q27 81 34 97q12 27 38.5 29.5t45.5 -14.5t13 -37q-9 -27 -18 -52q43 12 174 58t235.5 71 t203.5 25z" />
<glyph horiz-adv-x="218" d="M456 646q10 1 17 -7.5t5 -18.5q-16 -53 -75.5 -93t-136.5 -40q-24 0 -47 4q-47 -137 -71 -222q-7 -24 -11 -39t-8.5 -35t-5.5 -32.5t-0.5 -25t5 -18t13.5 -5.5q38 0 103 104q4 7 11.5 6t10.5 -8q4 -5 0 -15q-114 -201 -207 -201q-59 0 -59 72q0 53 53 226q28 91 69 214 q-6 1 -111 30t-149.5 39t-136 23.5t-169.5 13.5q-147 0 -162 -63q-4 -14 -16 -12.5t-19 12.5q-5 6 -2 21.5t7.5 36t20.5 42.5t35.5 40.5t52.5 30.5t73 12q97 0 198.5 -23.5t233 -69.5t170.5 -57q6 19 15 43t10 27q12 27 38.5 29.5t45.5 -14.5t13 -37q-2 -5 -10 -28.5 t-15 -42.5q33 -6 64 -6q44 0 83 20t46 52q3 13 18 15z" />
<glyph horiz-adv-x="382" d="M282 423q19 34 60 25q31 -6 37 -29q3 -9 -1 -18q-27 -64 -46 -121t-30.5 -108t-5 -81t32.5 -30q14 0 -10 -26q-39 -39 -70 -42q-38 0 -55.5 30t-10.5 89q-79 -112 -148 -112q-50 0 -50 72q0 71 36.5 185.5t64.5 165.5q14 25 41 27t45 -13.5t10 -35.5q0 -1 -9 -23 t-17.5 -45t-20 -55t-19 -59t-12.5 -51.5t-1.5 -39t14.5 -14.5q20 0 49.5 35.5t41.5 75.5q0 1 1 1q34 125 73 197z" />
<glyph horiz-adv-x="382" d="M641 341q7 -31 -18 -101t-67.5 -143.5t-108 -129t-129.5 -55.5q-56 0 -96.5 41t-40.5 119q0 18 3 41q-78 -113 -149 -113q-50 0 -50 72q0 71 36.5 185.5t64.5 165.5q14 25 41 27t45 -13.5t10 -35.5q0 -1 -9 -23t-17.5 -45t-20 -55t-19 -59t-12.5 -51.5t-1.5 -39 t14.5 -14.5q20 0 49.5 35.5t41.5 75.5q36 131 74 198q14 25 41 27t45.5 -13.5t10.5 -35.5q-68 -164 -85 -227q-27 -93 -16.5 -153.5t55.5 -60.5q44 0 90 54.5t78 127t52.5 141t20.5 101.5q3 4 16 3.5t30 -13.5t21 -33z" />
<glyph horiz-adv-x="350" d="M720 460q40 0 73 -12t52.5 -30.5t35.5 -40.5t20.5 -42.5t7.5 -36.5t-2 -21q-7 -11 -18.5 -12.5t-15.5 12.5q-15 63 -136 63q-75 0 -224 -50t-208 -56v-1q-40 -98 -96 -165.5t-111 -67.5q-44 0 -71 31.5t-27 94.5q0 105 66 297q9 26 39.5 28.5t54 -14t16.5 -36.5 q-43 -124 -61.5 -217.5t2.5 -99.5q21 0 52.5 48.5t63.5 123.5q-7 17 -7 39q0 55 26 115t71 60q15 0 24 -10t9 -27q0 -62 -31 -147q50 15 126 60.5t145 79.5t124 34z" />
<glyph horiz-adv-x="350" d="M305 233q-40 -98 -96 -165.5t-111 -67.5q-44 0 -71 31.5t-27 94.5q0 105 66 297q9 26 39.5 28.5t54 -14t16.5 -36.5q-43 -124 -61.5 -217.5t2.5 -99.5q21 0 52.5 48.5t63.5 123.5q-7 17 -7 39q0 55 26 115t71 60q15 0 24 -10t9 -27q0 -64 -51 -200z" />
<glyph horiz-adv-x="543" d="M912 460q40 0 73 -12t52.5 -30.5t35.5 -40.5t20.5 -42.5t7.5 -36.5t-2 -21q-7 -11 -18.5 -12.5t-15.5 12.5q-15 63 -136 63q-75 0 -224 -50t-206 -56l-1 -1q-41 -98 -97 -165.5t-111 -67.5q-88 0 -85 127q-22 -59 -59.5 -93t-80.5 -34q-29 0 -47.5 20.5t-18.5 62.5 q0 85 33 183.5t65 156.5q14 25 41 27t45 -13.5t10 -35.5q0 -1 -6.5 -17t-13 -33t-16 -43t-17 -50t-16 -50t-13 -48t-6 -39.5t2 -27.5t12.5 -10q32 0 63.5 67t60.5 164t34 109q11 26 41 28.5t53 -14t16 -36.5q-88 -253 -88 -299q0 -18 9 -18q21 0 52.5 48.5t64.5 123.5 q-8 16 -8 39q0 32 9.5 70.5t33 71.5t54.5 33q15 0 24 -10t9 -27q0 -60 -30 -147q50 15 126 60.5t144.5 79.5t123.5 34z" />
<glyph horiz-adv-x="547" d="M552 433q0 -43 -22.5 -115.5t-57 -143.5t-83.5 -122.5t-95 -51.5q-88 0 -85 127q-22 -59 -59.5 -93t-80.5 -34q-29 0 -47.5 20.5t-18.5 62.5q0 85 33 183.5t65 156.5q14 25 41 27t45 -13.5t10 -35.5q0 -1 -6.5 -17t-13 -33t-16 -43t-17 -50t-16 -50t-13 -48t-6 -39.5 t2 -27.5t12.5 -10q32 0 63.5 67t60.5 164t34 109q11 26 41 28.5t53 -14t16 -36.5q-88 -253 -88 -299q0 -18 9 -18q21 0 52.5 48.5t64.5 123.5q-8 16 -8 39q0 32 9.5 70.5t33 71.5t54.5 33q15 0 24 -10t9 -27z" />
<glyph horiz-adv-x="330" d="M377 216q5 -9 2 -14q0 -1 -16 -27.5t-26 -42.5t-29.5 -44t-35 -45t-34.5 -30t-35 -13q-55 0 -87 89q-70 -86 -127 -86q-20 0 -29.5 10t-8.5 25q1 19 14.5 35t31.5 16q45 0 104 57q-30 146 -35 277q-1 29 25 42.5t53 5.5t27 -30q3 -98 11 -163q54 122 79 156q27 36 52 36 q20 0 33.5 -19t12.5 -40t-16 -27q-20 -7 -47.5 -38t-48 -60.5t-52.5 -80.5q19 -87 50 -98q8 0 13 -1t13 5.5t13.5 10.5t14 14t13.5 16.5t12.5 18t11.5 17.5t10 16.5t8 13.5q4 7 11.5 6t11.5 -8z" />
<glyph horiz-adv-x="388" d="M806 -116q5 -6 2 -21.5t-7.5 -35.5t-20.5 -42t-35.5 -40.5t-52.5 -30.5t-73 -12q-54 0 -123 32.5t-147.5 76t-134.5 58.5q-53 -135 -146 -135q-42 0 -62.5 21.5t-20.5 55.5q0 52 39.5 91t110.5 48q23 84 39 138q-70 -88 -131 -88q-50 0 -50 72q0 71 36.5 185.5 t64.5 165.5q14 25 41 27t45.5 -13.5t10.5 -35.5q-9 -21 -13 -31t-20.5 -52.5t-24.5 -70.5t-17 -62.5t-6 -52.5t16 -18q18 0 45.5 31.5t40.5 68.5q46 141 74 207q11 26 38.5 28.5t47 -14t11.5 -36.5q-43 -106 -144 -455q41 -9 183 -65.5t214 -56.5q120 0 135 62q4 14 16 12.5 t19 -12.5zM54 -218q38 0 58 82q2 5 4 15q-39 -4 -63.5 -21t-24.5 -45q0 -14 7.5 -22.5t18.5 -8.5z" />
<glyph horiz-adv-x="388" d="M383 399q-44 -108 -148 -469q-1 -1 -1 -3t-1 -3q36 -21 56 -55t20 -70q0 -46 -29.5 -75.5t-75.5 -29.5q-60 0 -81.5 50t-5.5 135q-47 -5 -109.5 -33.5t-113 -60t-112 -57.5t-108.5 -26q-40 0 -73.5 12t-53 30.5t-35 40.5t-20 42t-7.5 35.5t2 21.5q6 11 18 12.5t16 -12.5 q15 -62 135 -62q63 0 150 32.5t172.5 65t143.5 32.5h14q15 60 38 136q-70 -88 -131 -88q-50 0 -50 72q0 71 36.5 185.5t64.5 165.5q14 25 41 27t45 -13.5t11 -35.5q-9 -21 -13 -31t-20.5 -52.5t-24.5 -70.5t-17 -62.5t-6.5 -52.5t15.5 -18q19 0 46.5 31.5t41.5 68.5 q42 133 73 207q11 26 38.5 28.5t47 -14t11.5 -36.5zM267 -205q0 43 -53 67q-8 -29 -12.5 -47.5t-5.5 -38.5t6.5 -29.5t23.5 -9.5q18 0 29.5 17.5t11.5 40.5z" />
<glyph horiz-adv-x="388" d="M383 399q-44 -108 -148 -469q-1 -1 -1 -3t-1 -3q36 -21 56 -55t20 -70q0 -46 -29.5 -75.5t-75.5 -29.5q-60 0 -81.5 50t-5.5 135q-62 -4 -157.5 -32.5t-181 -60.5t-198 -58t-206.5 -26q-40 0 -73.5 12t-53 30.5t-35 40.5t-20 42t-7.5 35.5t2 21.5q6 11 18 12.5t16 -12.5 q15 -62 162 -62q106 0 225 20.5t203.5 44.5t172 44.5t137.5 20.5h15q5 19 11 41.5t14 51t13 44.5q-70 -89 -131 -89q-50 0 -50 72q0 71 36.5 185.5t64.5 165.5q14 25 40.5 27t45 -13.5t10.5 -35.5q0 -1 -9 -23t-17.5 -45t-20 -55t-19 -59t-12.5 -51.5t-1.5 -39t14.5 -14.5 q20 0 49.5 35.5t41.5 75.5q0 2 1 3q39 119 69 193q11 26 38.5 28.5t47 -14t11.5 -36.5zM267 -205q0 43 -53 67q-8 -29 -12.5 -47.5t-5.5 -38.5t6.5 -29.5t23.5 -9.5q18 0 29.5 17.5t11.5 40.5z" />
<glyph horiz-adv-x="388" d="M1088 -116q5 -6 2 -21.5t-7.5 -35.5t-20.5 -42t-35.5 -40.5t-52.5 -30.5t-73 -12q-86 0 -187.5 22t-179 49.5t-169 57.5t-149.5 41q-55 -138 -148 -138q-42 0 -62.5 21.5t-20.5 55.5q0 52 39.5 91t110.5 48q22 81 39 139q-69 -89 -131 -89q-50 0 -50 72q0 71 36.5 185.5 t64.5 165.5q14 25 41 27t45 -13.5t10 -35.5q0 -1 -9 -23t-17.5 -45t-20 -55t-19 -59t-12.5 -51.5t-1.5 -39t14.5 -14.5q20 0 49.5 35.5t41.5 75.5q0 1 1 2q40 122 70 194q11 26 38 28.5t46.5 -14t11.5 -36.5q-40 -99 -143 -452q45 -8 162.5 -42t243 -58.5t246.5 -24.5 q146 0 161 62q4 14 16 12.5t19 -12.5zM55 -218q37 0 58 82q2 10 4 15q-40 -4 -64.5 -21t-24.5 -45q0 -14 7.5 -22.5t19.5 -8.5z" />
<glyph horiz-adv-x="388" d="M355 -47q42 -25 25 -61q-13 -26 -40 -48q-18 -15 -18 -1q0 30 -26 49t-65 26q-42 -146 -103.5 -229t-154.5 -83q-53 0 -93 31t-40 84q0 96 89.5 161.5t211.5 87.5q17 65 33 118q-70 -88 -131 -88q-50 0 -50 72q0 71 36.5 185.5t64.5 165.5q14 25 41 27t45 -13.5t10 -35.5 q0 -1 -9 -23t-17.5 -45t-20 -55t-19 -59t-12.5 -51.5t-1.5 -39t14.5 -14.5q19 0 46.5 31t40.5 69q39 124 74 207q11 26 38.5 28.5t47 -14t11.5 -36.5q-47 -116 -134 -420q69 -3 106 -26zM-23 -347q38 0 77 73.5t70 183.5q-76 -25 -136 -85t-60 -119q0 -21 12.5 -37t36.5 -16 z" />
<glyph horiz-adv-x="388" d="M234 -71q83 -12 136.5 -67.5t53.5 -123.5q0 -18 -31 -34q-36 -19 -46 0q-3 4 -3 11q-2 136 -99 168q-4 1 -11.5 3t-11.5 3q-61 -195 -149 -195q-43 0 -65 30.5t-16 66.5q7 47 44 81t91 49q1 4 3.5 12.5t3.5 13.5q23 88 40 142q-70 -89 -131 -89q-50 0 -50 72 q0 71 36.5 185.5t64.5 165.5q14 25 40.5 27t45 -13.5t10.5 -35.5q0 -1 -9 -23t-17.5 -45t-20 -55t-19 -59t-12.5 -51.5t-1.5 -39t14.5 -14.5q20 0 49.5 35.5t40.5 75.5l1 1q41 127 70 195q11 26 38.5 28.5t46.5 -14t11 -36.5q-51 -129 -147 -469zM46 -240q30 0 68 119 q-71 -27 -81 -91q-2 -10 2 -19t11 -9z" />
<glyph horiz-adv-x="381" d="M761 -116q5 -6 2 -21.5t-7.5 -35.5t-20.5 -42t-35.5 -40.5t-52.5 -30.5t-73 -12q-49 0 -106.5 24.5t-129.5 65.5t-115 59q-43 -53 -98 -85t-102 -32q-38 0 -60.5 22t-22.5 55q0 59 49.5 100t136.5 41q22 0 33 -2q24 56 24 105q0 25 -10 28q-24 -22 -38 -34 q-10 -9 -23 -5.5t-19 16.5q-10 19 3 37q49 66 86 126.5t55 102t26.5 72.5t7 45.5t-10.5 14.5q-19 0 -50.5 -40.5t-56.5 -104.5q-23 -59 -34 -116q-2 -14 -12 -28.5t-19 -17.5q-25 -8 -50.5 11t-21.5 53q7 45 23 90q37 110 92 166t110 56q52 0 87.5 -36t35.5 -89 q0 -48 -36.5 -119t-98.5 -142q68 -2 68 -92q0 -63 -30 -128q22 -8 99.5 -39.5t128 -45.5t96.5 -14q120 0 135 62q4 14 16 12.5t19 -12.5zM9 -218q22 0 52.5 27t58.5 69q-18 2 -27 2q-48 0 -79 -17.5t-31 -49.5q0 -14 7.5 -22.5t18.5 -8.5z" />
<glyph horiz-adv-x="381" d="M1044 -116q5 -6 2 -21.5t-7.5 -35.5t-20.5 -42t-35.5 -40.5t-52.5 -30.5t-73 -12q-101 0 -210.5 26.5t-238 72t-178.5 58.5q-43 -57 -100 -91t-106 -34q-38 0 -60.5 22t-22.5 55q0 59 49.5 100t136.5 41q21 0 33 -2q24 56 24 105q0 25 -10 28q-24 -23 -39 -34 q-10 -9 -22.5 -5.5t-18.5 16.5q-10 19 3 37q49 66 86 126.5t55 102t26.5 72.5t6.5 45.5t-11 14.5q-19 0 -50 -40.5t-56 -104.5q-23 -59 -34 -116q-2 -14 -12 -28.5t-19 -17.5q-25 -8 -50.5 11t-21.5 53q6 43 22 90q38 110 93 166t110 56q52 0 87 -36t35 -89 q0 -48 -36.5 -119t-97.5 -142q67 -2 67 -92q0 -64 -26 -121q3 -1 113 -30.5t154 -39t137.5 -23t172.5 -13.5q146 0 161 62q4 14 16 12.5t19 -12.5zM10 -218q21 0 52 27.5t59 69.5q-4 0 -13 0.5t-14 0.5q-48 0 -79 -17.5t-31 -49.5q0 -14 7.5 -22.5t18.5 -8.5z" />
<glyph horiz-adv-x="381" d="M308 -21q42 -25 25 -61q-13 -26 -40 -48q-18 -15 -18 -1q0 21 -13 37q-51 -110 -145.5 -192t-184.5 -82q-59 0 -99 30.5t-40 84.5q0 78 63.5 138.5t149.5 89t172 30.5q6 27 6 50q0 25 -10 28q-24 -23 -39 -34q-10 -9 -22.5 -5.5t-18.5 16.5q-10 19 3 37q49 66 86 126.5 t55 102t26.5 72.5t6.5 45.5t-11 14.5q-19 0 -50 -40.5t-56 -104.5q-23 -59 -34 -116q-2 -14 -12 -28.5t-19 -17.5q-25 -8 -51 11t-21 53q6 43 22 90q38 110 93 166t110 56q52 0 87 -36t35 -89q0 -48 -36.5 -119t-97.5 -142q67 -2 67 -92q0 -32 -7 -61zM-67 -321 q61 0 126.5 83t101.5 185q-13 1 -35 -1q-86 -8 -165.5 -76.5t-79.5 -137.5q0 -21 13.5 -37t38.5 -16z" />
<glyph horiz-adv-x="411" d="M641 562q11 1 17.5 -7.5t4.5 -18.5q-16 -53 -75.5 -93t-136.5 -40q-30 0 -67 5q-27 -82 -43 -139q-7 -24 -11 -39t-8.5 -35t-5.5 -32.5t-0.5 -25t5 -18t13.5 -5.5q38 0 103 104q4 7 11.5 6t10.5 -8q4 -5 0 -15q-114 -201 -207 -201q-59 0 -59 72q0 12 1 18 q-73 -90 -135 -90q-59 0 -59 72q0 53 53 226q22 72 62 194q-68 27 -109.5 41t-105 27.5t-120.5 13.5q-146 0 -161 -63q-4 -14 -16 -12.5t-19 12.5q-5 6 -2 21.5t7.5 36t20.5 42.5t35.5 40.5t52.5 30.5t73 12q67 0 138.5 -17.5t118 -36.5t119.5 -54q6 18 15 42t11 30 q12 27 38.5 29.5t45.5 -14.5t13 -37q-5 -16 -33 -93q52 -22 78 -32q39 118 51 147q11 27 37.5 29.5t46 -14.5t13.5 -37q-3 -8 -10 -28.5t-20 -56t-24 -67.5q42 -9 85 -9q44 0 83 20t46 52q3 13 18 15zM246 298q7 23 22 70.5t19 60.5q-42 13 -80 27q-39 -121 -59 -187 q-7 -24 -11 -39t-8.5 -35t-5.5 -32.5t-0.5 -25t5 -18t13.5 -5.5q27 0 65 49q13 52 40 135z" />
<glyph horiz-adv-x="411" d="M816 694q40 0 73 -12t52.5 -30.5t35.5 -40.5t20.5 -42.5t7.5 -36.5t-2 -21q-7 -11 -19 -12.5t-16 12.5q-15 63 -161 63q-36 0 -74.5 -5.5t-66.5 -11.5t-70.5 -20t-62.5 -21.5t-68 -26t-62 -24.5q-39 -116 -62 -196q-7 -24 -11 -39t-8.5 -35t-5.5 -32.5t-0.5 -25t5 -18 t13.5 -5.5q38 0 103 104q4 7 11.5 6t10.5 -8q4 -5 0 -15q-114 -201 -207 -201q-59 0 -59 72q0 12 1 18q-73 -90 -135 -90q-59 0 -59 72q0 53 53 226q14 48 35 109q-61 12 -106 49t-57 80q-3 10 3.5 18.5t17.5 7.5q15 -2 18 -15q8 -32 46.5 -52t82.5 -20q11 0 17 1 q47 144 63 182q12 27 38.5 29.5t45.5 -14.5t13 -37q-2 -7 -9 -27t-18.5 -52.5t-22.5 -62.5q53 15 101 36q39 114 45 128q11 27 37.5 29.5t46 -14.5t13.5 -37q-1 -3 -17 -47q70 33 117 52t117 36t136 17zM246 298q12 39 40 127q-44 -13 -96 -19q-35 -114 -42 -137 q-7 -24 -11 -39t-8.5 -35t-5.5 -32.5t-0.5 -25t5 -18t13.5 -5.5q27 0 65 49q13 52 40 135z" />
</font>
</defs>
</svg>
